<svg width="20" height="24" viewBox="0 0 20 24" fill="none" xmlns="http://www.w3.org/2000/svg">
<path d="M1.17021 6.9913L1.70213 7.04348H18.2979L18.8298 6.9913L18.883 7.2L18.7766 10.4348L18.7234 13.6174L18.4574 21.5478L18.3511 22.0696L18.0851 22.6957L17.4468 23.3739L16.9681 23.687L16.5426 23.8957L16.0638 24H3.93617L3.35106 23.8435L2.76596 23.5304L2.23404 23.0609L1.8617 22.5913L1.64894 22.0696L1.54255 21.4957L1.2234 12L1.17021 8.76522L1.11702 7.04348L1.17021 6.9913ZM5.95745 9.86087L5.6383 10.1217L5.58511 10.2783L5.6383 12.8348L5.85106 20.1391L6.01064 20.5043L6.2234 20.6609H6.54255L6.8617 20.4L6.91489 20.2435L6.8617 17.687L6.64894 10.3826L6.48936 10.0174L6.2766 9.86087H5.95745ZM9.89362 9.86087L9.62766 10.0174L9.52128 10.2261V20.2957L9.68085 20.5565L9.89362 20.6609L10.2128 20.6087L10.4255 20.4L10.4787 20.2957V10.2261L10.3191 9.96522L10.1064 9.86087H9.89362ZM13.7234 9.86087L13.4574 10.0696L13.3511 10.3826L13.0851 19.513V20.2435L13.2447 20.5043L13.4574 20.6609H13.7766L14.0426 20.4522L14.1489 20.1391L14.4149 10.9565V10.2783L14.2553 10.0174L14.0426 9.86087H13.7234Z" fill="white"/>
<path d="M7.44681 0H12.0213L12.6596 0.26087L13.0851 0.678261L13.2979 1.09565L13.3511 1.25217V2.1913H18.7234L19.2553 2.4L19.6277 2.71304L19.8936 3.13043L20 3.3913V4.85217L19.734 5.37391L19.3085 5.7913L18.6702 6.05217H1.2766L0.638298 5.73913L0.212766 5.32174L0 4.85217V3.3913L0.265957 2.86956L0.531915 2.55652L0.957447 2.29565L1.2234 2.1913H6.06383V1.30435L6.2766 0.782609L6.70213 0.313043L7.23404 0.0521739L7.44681 0ZM7.65957 1.14783L7.39362 1.35652L7.28723 1.56522V2.1913H12.1809V1.51304L11.9149 1.2L11.7553 1.14783H7.65957Z" fill="white"/>
</svg>
