<svg width="20" height="23" viewBox="0 0 20 23" fill="none" xmlns="http://www.w3.org/2000/svg">
<path fill-rule="evenodd" clip-rule="evenodd" d="M9.44141 0.0140336C9.37741 0.024682 9.17846 0.0562231 8.99928 0.0841248C7.94613 0.248165 6.88958 0.78688 6.06261 1.58147C5.27548 2.33774 4.78267 3.21159 4.52405 4.30955C4.41622 4.7673 4.41622 5.9939 4.52405 6.45165C5.03403 8.61666 6.65064 10.1773 8.89047 10.6667C9.38691 10.7752 10.5907 10.774 11.1168 10.6645C12.2091 10.4373 13.1429 9.9456 13.9356 9.18022C14.7286 8.41469 15.2172 7.54893 15.4757 6.45165C15.5836 5.9939 15.5836 4.7673 15.4757 4.30955C14.9746 2.18223 13.3492 0.585547 11.2099 0.119081C10.8321 0.0366784 9.70738 -0.030088 9.44141 0.0140336ZM9.46468 1.81524C7.98215 2.04556 6.81283 3.05995 6.39062 4.48199C6.27418 4.87414 6.26734 5.82392 6.37815 6.21181C6.65404 7.17718 7.17105 7.87823 7.98904 8.39578C8.61458 8.79162 9.1907 8.95058 9.99989 8.95058C10.8106 8.95058 11.383 8.79229 12.0171 8.39268C12.6358 8.00273 13.2144 7.33214 13.445 6.73781C13.6603 6.18319 13.6995 5.96388 13.6958 5.33567C13.6925 4.78141 13.6796 4.69218 13.5459 4.30092C13.1556 3.15924 12.2902 2.32498 11.1182 1.96073C10.7513 1.8467 10.5822 1.82032 10.1395 1.80819C9.84514 1.80015 9.54147 1.80329 9.46468 1.81524ZM8.95274 12.2628C6.65944 12.4857 4.42599 13.5128 2.76633 15.1076C1.66967 16.1614 0.831809 17.4535 0.325083 18.8722C-0.00581583 19.7987 -0.0664572 20.2599 0.0638079 20.8591C0.282126 21.863 1.16606 22.7164 2.20446 22.926C2.69443 23.0249 17.3074 23.0246 17.7953 22.9257C18.8466 22.7126 19.7127 21.8736 19.9371 20.8508C20.0662 20.2627 20.0049 19.7995 19.6752 18.8702C19.1858 17.491 18.3143 16.1447 17.2386 15.1063C15.0786 13.0209 12.0049 11.9662 8.95274 12.2628ZM9.04582 14.0596C8.49656 14.1195 7.66363 14.3085 7.16095 14.4873C4.72924 15.3522 2.91247 17.1416 2.06046 19.5112C1.82413 20.1685 1.81278 20.5142 2.0183 20.7951C2.09509 20.9 2.24169 21.0281 2.34408 21.0797L2.53024 21.1736H10.0308H17.5313L17.729 21.0388C18.1709 20.7374 18.2282 20.3208 17.939 19.5112C17.2694 17.6367 15.9769 16.1091 14.2138 15.1082C12.6935 14.2452 10.8232 13.8657 9.04582 14.0596Z" fill="#143886"/>
<path d="M9.04582 14.0596C8.49656 14.1195 7.66363 14.3085 7.16095 14.4873C4.72924 15.3522 2.91247 17.1416 2.06046 19.5112C1.82413 20.1685 1.81278 20.5142 2.0183 20.7951C2.09509 20.9 2.24169 21.0281 2.34408 21.0797L2.53024 21.1736H10.0308H17.5313L17.729 21.0388C18.1709 20.7374 18.2282 20.3208 17.939 19.5112C17.2694 17.6367 15.9769 16.1091 14.2138 15.1082C12.6935 14.2452 10.8232 13.8657 9.04582 14.0596Z" fill="#143886"/>
<path d="M9.46468 1.81524C7.98215 2.04556 6.81283 3.05995 6.39062 4.48199C6.27418 4.87414 6.26734 5.82392 6.37815 6.21181C6.65404 7.17718 7.17105 7.87823 7.98904 8.39578C8.61458 8.79162 9.1907 8.95058 9.99989 8.95058C10.8106 8.95058 11.383 8.79229 12.0171 8.39268C12.6358 8.00273 13.2144 7.33214 13.445 6.73781C13.6603 6.18319 13.6995 5.96388 13.6958 5.33567C13.6925 4.78141 13.6796 4.69218 13.5459 4.30092C13.1556 3.15924 12.2902 2.32498 11.1182 1.96073C10.7513 1.8467 10.5822 1.82032 10.1395 1.80819C9.84514 1.80015 9.54147 1.80329 9.46468 1.81524Z" fill="#143886"/>
</svg>
