<svg width="20" height="14" viewBox="0 0 20 14" fill="none" xmlns="http://www.w3.org/2000/svg">
<path fill-rule="evenodd" clip-rule="evenodd" d="M17.4779 0.0683944C17.3342 0.105713 17.1317 0.18291 17.0278 0.239998C16.9018 0.30925 15.2797 1.84239 12.1523 4.8483L7.46565 9.35285L5.38116 7.35352C4.23468 6.25389 3.21243 5.29973 3.10945 5.23315C2.47242 4.82126 1.55894 4.81712 0.906012 5.22314C0.224043 5.64723 -0.126178 6.45351 0.041574 7.21332C0.173044 7.80891 0.0254095 7.64604 3.26492 10.7688C5.25826 12.6903 6.2861 13.6549 6.42928 13.7384C6.84878 13.983 7.46002 14.0661 7.94864 13.9449C8.52364 13.8022 8.21173 14.0826 14.1436 8.37768C17.6493 5.00612 19.6652 3.04053 19.7306 2.9303C19.936 2.58371 20 2.34285 20 1.91657C20 1.33364 19.836 0.941589 19.4281 0.549653C18.9323 0.0731768 18.1773 -0.113113 17.4779 0.0683944Z" fill="#898C8F"/>
</svg>
