<svg width="20" height="20" viewBox="0 0 20 20" fill="none" xmlns="http://www.w3.org/2000/svg">
<path fill-rule="evenodd" clip-rule="evenodd" d="M5.90442 0.0740176C5.26801 0.301109 4.78569 0.860516 4.66118 1.51598C4.63247 1.66706 4.61707 4.82931 4.61707 10.578V19.4079L4.71554 19.6025C4.76972 19.7095 4.88092 19.8414 4.96271 19.8956C5.10766 19.9918 5.14057 19.9943 6.26468 19.9943H7.41794V17.316C7.41794 15.5757 7.43462 14.5469 7.46551 14.3785C7.59234 13.6874 8.10009 13.1814 8.79536 13.0531C9.12963 12.9914 10.8704 12.9914 11.2046 13.0531C11.8999 13.1814 12.4077 13.6874 12.5345 14.3785C12.5654 14.5469 12.5821 15.5757 12.5821 17.316V19.9943H13.7353C14.8594 19.9943 14.8923 19.9918 15.0373 19.8956C15.1191 19.8414 15.2303 19.7095 15.2845 19.6025L15.3829 19.4079V10.578C15.3829 4.8456 15.3675 1.66549 15.3389 1.51274C15.2301 0.930448 14.7453 0.326749 14.2152 0.113286L13.9606 0.0107693L10.0438 0.00268853C6.35667 -0.00491175 6.11387 -0.000762201 5.90442 0.0740176ZM1.22026 3.74316C0.775492 3.84913 0.317462 4.22683 0.117637 4.65236L0 4.90291V11.8698V18.8368L0.123107 19.07C0.296193 19.3981 0.545558 19.6518 0.864245 19.8244L1.13786 19.9724L2.17724 19.9862L3.21663 20V11.8508V3.70171L2.28665 3.70617C1.77519 3.70866 1.29527 3.7253 1.22026 3.74316ZM9.70153 3.77269C9.62157 3.81336 9.50341 3.91561 9.43895 3.99991C9.32442 4.14961 9.32131 4.17009 9.30779 4.86657L9.29387 5.57994L8.60757 5.58012C8.00446 5.58025 7.90424 5.5906 7.78136 5.66538C7.25313 5.98686 7.37186 6.76428 7.97475 6.9314C8.06565 6.9566 8.39965 6.9773 8.71689 6.97744L9.29374 6.9777L9.3077 7.67352C9.32315 8.44407 9.34359 8.50618 9.64945 8.71397C9.93991 8.91127 10.347 8.81509 10.5868 8.49251C10.669 8.38192 10.6797 8.29862 10.6923 7.67352L10.7063 6.9777L11.2831 6.97744C11.9556 6.97717 12.1541 6.93306 12.3463 6.74126C12.6692 6.41895 12.6079 5.9023 12.2186 5.66538C12.0957 5.59056 11.9955 5.58025 11.3895 5.58012L10.7002 5.57994V4.92042C10.7002 4.17677 10.663 4.03984 10.4077 3.84555C10.2172 3.70049 9.90643 3.66843 9.70153 3.77269ZM16.7834 11.8473V20L17.8228 19.9862L18.8621 19.9724L19.1358 19.8244C19.4544 19.6518 19.7038 19.3981 19.8769 19.07L20 18.8368V11.8698V4.90291L19.8824 4.65236C19.7322 4.33258 19.4137 4.01472 19.08 3.8518L18.8184 3.72399L17.8009 3.70931L16.7834 3.69468V11.8473ZM8.90591 14.4906C8.82026 14.5761 8.81838 14.6362 8.81838 17.2861V19.9943H10H11.1816V17.2861C11.1816 14.6362 11.1797 14.5761 11.0941 14.4906C11.0116 14.4083 10.9482 14.4033 10 14.4033C9.05177 14.4033 8.98836 14.4083 8.90591 14.4906Z" fill="#898C8F"/>
</svg>
