<svg width="20" height="20" viewBox="0 0 20 20" fill="none" xmlns="http://www.w3.org/2000/svg">
<path fill-rule="evenodd" clip-rule="evenodd" d="M7.31189 0.0672368C7.07644 0.200748 7.01531 0.358668 7.00047 0.871373L6.98729 1.32708H5.47992C3.81384 1.32708 3.79599 1.32979 3.62198 1.61042C3.53913 1.74407 3.53534 1.79288 3.52429 2.87204L3.51277 3.99464H11.6489H19.7851V2.92584C19.7851 1.9424 19.7788 1.84303 19.7073 1.6816C19.6572 1.56863 19.5751 1.4742 19.4769 1.41658C19.3318 1.33139 19.2515 1.32708 17.8158 1.32708H16.3072V0.925169C16.3072 0.61013 16.2904 0.485377 16.2294 0.34782C16.0779 0.00610528 15.6639 -0.106066 15.3881 0.119877C15.2058 0.269216 15.1479 0.462658 15.1479 0.922546V1.32708H13.6795H12.2111V0.925169C12.2111 0.61013 12.1943 0.485377 12.1333 0.34782C11.9818 0.00610528 11.5678 -0.106066 11.292 0.119877C11.1097 0.269216 11.0518 0.462658 11.0518 0.922546V1.32708H9.60271H8.15361V0.925169C8.15361 0.61013 8.1368 0.485377 8.07582 0.34782C7.93864 0.0384717 7.58908 -0.0899269 7.31189 0.0672368ZM3.46571 5.87305C3.36048 8.25522 2.67941 10.8227 1.64054 12.7531C1.31261 13.3625 0.79202 14.142 0.431909 14.5628C0.0903852 14.9618 0 15.1227 0 15.3313C0 15.5523 0.136563 15.8085 0.308137 15.9092C0.459461 15.998 0.519744 15.9987 8.15361 15.9987C15.6408 15.9987 15.8504 15.9964 15.99 15.914C16.2918 15.7359 16.999 14.7951 17.5626 13.8223C18.8062 11.6756 19.6166 8.72525 19.7338 5.91751L19.7584 5.32842H11.6241H3.48978L3.46571 5.87305ZM19.6726 12.1569C19.1511 13.6284 18.1638 15.3605 17.2348 16.4337C16.8359 16.8945 16.6451 17.0599 16.3406 17.2088L16.1333 17.3102L9.8249 17.322L3.51648 17.3337V18.4019C3.51648 19.3847 3.52271 19.4841 3.59427 19.6455C3.64435 19.7585 3.72643 19.8529 3.82462 19.9105C3.97595 19.9993 4.03627 20 11.6508 20C19.2653 20 19.3256 19.9993 19.4769 19.9105C19.5752 19.8528 19.6572 19.7585 19.7075 19.645C19.7842 19.472 19.7853 19.4048 19.7756 15.6816L19.7657 11.8942L19.6726 12.1569Z" fill="#373737"/>
</svg>
