<svg width="24" height="20" viewBox="0 0 24 20" fill="none" xmlns="http://www.w3.org/2000/svg">
<path fill-rule="evenodd" clip-rule="evenodd" d="M1.59232 0.534472C1.00865 0.650792 0.44675 1.10736 0.17026 1.68985L0.0200232 2.00649L0.00702242 9.8299C-0.00748029 18.5737 -0.0339513 17.8861 0.330306 18.2146C0.570469 18.4311 0.68696 18.4731 1.04812 18.4731C1.56731 18.4731 2.07091 18.146 2.30019 17.6598C2.35045 17.5532 3.0371 15.2524 3.82602 12.547C4.7465 9.39043 5.31717 7.51061 5.41888 7.30017C5.72691 6.66292 6.22474 6.16517 6.87244 5.84685C7.58626 5.49601 7.00503 5.52224 14.3937 5.50772L21.0231 5.4947V5.10236C21.0231 4.20913 20.6031 3.53187 19.823 3.16721L19.5447 3.03712L15.3441 3.0137L11.1435 2.99027L10.9346 2.87315C10.7957 2.79525 10.5786 2.57572 10.2862 2.2173C9.34541 1.06431 9.10182 0.848767 8.47867 0.617625L8.1866 0.509315L4.99506 0.500836C3.23972 0.496198 1.70849 0.51133 1.59232 0.534472ZM7.85853 6.53507C7.2534 6.65116 6.57839 7.16132 6.31927 7.69837C6.25089 7.84008 5.54912 10.1695 4.75978 12.8749C3.85813 15.9654 3.26417 17.9224 3.1619 18.1396C2.86992 18.7599 2.27761 19.2283 1.54745 19.4164C1.25594 19.4915 1.69464 19.4957 10.1578 19.4988C19.8511 19.5024 19.4064 19.514 19.9595 19.2437C20.4513 19.0033 20.9234 18.5212 21.1262 18.0521C21.1762 17.9364 21.8424 15.7123 22.6066 13.1097C23.8981 8.71129 23.9963 8.35122 23.9997 8.00287C24.0028 7.6919 23.9825 7.58369 23.8809 7.3673C23.7277 7.0412 23.4692 6.78415 23.1352 6.626L22.877 6.50378L15.4849 6.49694C10.9303 6.49272 8.00285 6.50738 7.85853 6.53507Z" fill="#898C8F"/>
</svg>
