<svg width="24" height="24" viewBox="0 0 24 24" fill="none" xmlns="http://www.w3.org/2000/svg">
<path fill-rule="evenodd" clip-rule="evenodd" d="M20.3375 0.0566248C19.9361 0.146534 19.3304 0.447123 19.0414 0.699779C18.8711 0.848737 11.2171 9.15534 8.12436 12.5477L7.85434 12.8439L7.16748 14.8944C6.54605 16.7498 6.48067 16.976 6.48072 17.2715C6.48081 18.1641 7.30435 18.8421 8.15848 18.6528C8.47432 18.5827 12.0641 17.0234 12.3131 16.848C12.4649 16.7411 22.051 6.34104 23.2739 4.95657C23.9114 4.23471 24.1632 3.10787 23.892 2.18969C23.6167 1.25757 22.8395 0.457864 21.9061 0.146018C21.4474 -0.00716062 20.7898 -0.0446815 20.3375 0.0566248ZM21.3513 2.13795C21.8597 2.36782 22.0901 3.03874 21.8078 3.46704C21.6828 3.65675 12.6011 13.5412 12.5518 13.5412C12.5283 13.5412 12.2022 13.2627 11.8271 12.9223L11.1452 12.3035L11.3279 12.1133C11.4284 12.0087 13.5161 9.73644 15.9672 7.06379C19.4614 3.25373 20.4628 2.18833 20.6045 2.12989C20.8452 2.0306 21.1204 2.0336 21.3513 2.13795ZM4.20315 2.2424C3.10884 2.3574 2.07957 2.86187 1.30943 3.66069C0.708302 4.28419 0.328888 4.97242 0.102795 5.84947L0 6.24813V13.1191V19.9901L0.129802 20.4587C0.567094 22.0377 1.69129 23.2398 3.21606 23.7588C3.92809 24.0012 3.88195 23.9998 11.011 24C16.7086 24.0001 17.6959 23.9902 18.0465 23.9294C20.0959 23.5738 21.66 21.9559 21.9375 19.9047C21.9694 19.6689 21.9872 17.9066 21.9872 14.9742C21.9872 9.90285 22.0033 10.1649 21.6701 9.82523C21.2715 9.41883 20.631 9.41606 20.2261 9.81899C19.9167 10.1269 19.9393 9.75216 19.9133 15.0186L19.8898 19.8025L19.7844 20.1108C19.5181 20.8898 18.8615 21.5433 18.0786 21.8083L17.7688 21.9131L11.1232 21.9263C3.77868 21.9408 4.12986 21.9538 3.50154 21.6442C3.09484 21.4438 2.53906 20.8877 2.34044 20.4826C2.04049 19.8706 2.0519 20.1621 2.0519 13.0957C2.0519 6.008 2.03851 6.33729 2.35114 5.71955C2.66485 5.09966 3.23251 4.6209 3.93554 4.38334C4.24189 4.27978 4.24199 4.27978 9.19077 4.25558C14.6423 4.22894 14.2545 4.2516 14.5496 3.94243C14.823 3.65595 14.9005 3.18601 14.7342 2.82172C14.6119 2.55378 14.2995 2.30173 14.0143 2.24085C13.7346 2.1812 4.77237 2.1826 4.20315 2.2424ZM10.863 14.8424L11.1684 15.1223L11.025 15.1961C10.6863 15.3704 9.01454 16.0783 8.99277 16.0566C8.96916 16.0331 9.61048 14.0656 9.69499 13.9023C9.74095 13.8135 9.7352 13.8089 10.863 14.8424Z" fill="#143886"/>
</svg>
