<svg width="16" height="16" viewBox="0 0 16 16" fill="none" xmlns="http://www.w3.org/2000/svg">
<path fill-rule="evenodd" clip-rule="evenodd" d="M7.31738 0.0357706C7.00793 0.149867 6.77667 0.352868 6.65447 0.617642C6.58951 0.7584 6.58854 0.79395 6.57313 3.67036L6.55752 6.58065L3.65465 6.5963L0.751781 6.61195L0.608947 6.68251C0.389421 6.79098 0.227235 6.94773 0.109716 7.16503L0.00265316 7.36299V8.00451C0.00265316 8.61461 0.00624273 8.65325 0.0758179 8.7936C0.186345 9.01651 0.374158 9.21115 0.573426 9.30926L0.751781 9.39707L3.65465 9.41272L6.55752 9.42836L6.57313 12.3387C6.58861 15.2256 6.58926 15.2501 6.65512 15.3898C6.75498 15.6016 6.92053 15.7732 7.1404 15.8927L7.33786 16H7.97774C8.58628 16 8.62483 15.9964 8.76482 15.9266C8.98716 15.8158 9.18131 15.6275 9.27916 15.4278L9.36675 15.249L9.38235 12.3387L9.39796 9.42836L12.3008 9.41272C15.1804 9.39719 15.2048 9.39654 15.3442 9.33051C15.4214 9.29389 15.5426 9.21331 15.6134 9.15145C15.727 9.05221 15.7757 8.97223 15.9736 8.56041C16.0119 8.48045 16.0071 7.40164 15.9684 7.42558C15.9513 7.43622 15.9372 7.42142 15.9372 7.39269C15.9372 7.29424 15.7387 6.9671 15.6117 6.85607C15.5418 6.79501 15.4214 6.71512 15.3442 6.67851C15.2048 6.61248 15.1804 6.61182 12.3008 6.5963L9.39796 6.58065L9.38235 3.67036L9.36675 0.760059L9.29005 0.603591C9.19223 0.404033 8.97352 0.185041 8.77369 0.0865913C8.62679 0.0142407 8.58269 0.0092337 8.02456 0.00169196C7.58832 -0.00419122 7.40132 0.00482131 7.31738 0.0357706ZM0 8.00451C0 8.32292 0.00465083 8.45316 0.0103005 8.29397C0.0159814 8.13475 0.0159814 7.87423 0.0103005 7.71504C0.00465083 7.55582 0 7.6861 0 8.00451Z" fill="#21C694"/>
</svg>
