<svg width="190" height="232" viewBox="0 0 190 232" fill="none" xmlns="http://www.w3.org/2000/svg">
<path d="M11.117 67.5826L16.1702 68.087H173.83L178.883 67.5826L179.388 69.6L178.378 100.87L177.872 131.635L175.346 208.296L174.335 213.339L171.809 219.391L165.745 225.948L161.197 228.974L157.154 230.991L152.606 232H37.3936L31.8351 230.487L26.2766 227.461L21.2234 222.922L17.6862 218.383L15.6649 213.339L14.6543 207.791L11.6223 116L11.117 84.7304L10.6117 68.087L11.117 67.5826ZM56.5957 95.3217L53.5638 97.8435L53.0585 99.3565L53.5638 124.07L55.5851 194.678L57.1011 198.209L59.1223 199.722H62.1543L65.1862 197.2L65.6915 195.687L65.1862 170.974L63.1649 100.365L61.6489 96.8348L59.6277 95.3217H56.5957ZM93.9894 95.3217L91.4628 96.8348L90.4521 98.8522V196.191L91.9681 198.713L93.9894 199.722L97.0213 199.217L99.0425 197.2L99.5479 196.191V98.8522L98.0319 96.3304L96.0106 95.3217H93.9894ZM130.372 95.3217L127.846 97.3391L126.835 100.365L124.309 188.626V195.687L125.824 198.209L127.846 199.722H130.878L133.404 197.704L134.415 194.678L136.941 105.913V99.3565L135.426 96.8348L133.404 95.3217H130.372Z" fill="#D2281E"/>
<path d="M70.7447 0H114.202L120.266 2.52174L124.309 6.55652L126.33 10.5913L126.835 12.1043V21.1826H177.872L182.926 23.2L186.463 26.2261L188.989 30.2609L190 32.7826V46.9043L187.473 51.9478L183.431 55.9826L177.367 58.5043H12.1277L6.06383 55.4783L2.02128 51.4435L0 46.9043V32.7826L2.5266 27.7391L5.05319 24.713L9.09574 22.1913L11.6223 21.1826H57.6064V12.6087L59.6277 7.56522L63.6702 3.02609L68.7234 0.504348L70.7447 0ZM72.766 11.0957L70.2394 13.113L69.2287 15.1304V21.1826H115.718V14.6261L113.191 11.6L111.676 11.0957H72.766Z" fill="#D2281E"/>
</svg>
