<svg width="232" height="232" viewBox="0 0 232 232" fill="none" xmlns="http://www.w3.org/2000/svg">
<path d="M112.545 0H119.455L125.379 2.46809L134.757 9.37872L138.706 12.3404L141.668 13.8213L145.123 14.3149H152.034L160.426 13.8213H169.804L173.753 14.8085L176.715 16.783L180.17 21.7192L184.119 30.1106L188.068 38.0085L190.536 41.4638L197.447 45.9064L209.294 51.3362L213.736 54.2979L217.191 57.7532L218.179 62.1957V71.5745L217.685 79.966V86.8766L218.672 91.3191L221.634 96.2553L226.077 101.685L230.519 108.596L232 112.545V119.455L229.532 125.379L222.621 134.757L219.66 138.706L218.179 141.668L217.685 145.123V152.034L218.179 160.426V169.804L217.191 173.753L215.217 176.715L210.281 180.17L201.889 184.119L193.991 188.068L190.536 190.536L187.574 194.979L183.626 202.877L179.677 211.268L175.234 216.204L173.26 217.685L169.804 218.179H160.426L152.034 217.685H145.123L140.681 218.672L135.745 221.634L130.315 226.077L123.404 230.519L119.455 232H112.545L106.621 229.532L97.2426 222.621L93.2936 219.66L90.3319 218.179L86.8766 217.685H79.966L71.5745 218.179H62.1957L58.2468 217.191L55.2851 215.217L51.8298 210.281L47.8809 201.889L43.9319 193.991L41.4638 190.536L36.5277 187.081L29.1234 183.626L20.7319 179.677L15.7957 175.234L14.3149 173.26L13.8213 169.804V160.426L14.3149 152.034V145.123L13.3277 140.681L10.366 135.745L5.9234 130.315L1.48085 123.404L0 119.455V112.545L2.46809 106.621L9.37872 97.2426L12.3404 93.2936L13.8213 89.3447L14.3149 86.8766V79.966L13.8213 72.0681V61.7021L15.3021 57.2596L17.7702 54.7915L21.7192 51.8298L31.0979 47.3872L38.9957 43.4383L41.4638 41.4638L44.4255 37.0213L48.3745 29.1234L52.3234 20.7319L56.766 15.7957L58.7404 14.3149L62.1957 13.8213H71.5745L79.966 14.3149H86.8766L91.3191 13.3277L96.2553 10.366L101.685 5.9234L108.596 1.48085L112.545 0Z" fill="#21C694"/>
<path d="M154.996 77.9915H160.919L165.855 79.966L169.311 83.4213L170.791 87.8638V93.7872L168.323 98.7234L113.038 154.008L109.583 155.983L107.115 156.477H103.166L99.217 154.996L94.2808 150.553L64.6638 120.936L62.6894 118.468L61.2085 114.519V109.089L62.6894 104.647L64.6638 102.179L68.6128 99.7106L70.0936 99.217H76.017L80.9532 101.191L88.3574 108.102L104.153 123.898L104.647 124.885L106.128 125.379L107.115 123.404L149.566 80.9532L153.515 78.4851L154.996 77.9915Z" fill="white"/>
</svg>
