<svg width="299" height="310" viewBox="0 0 299 310" fill="none" xmlns="http://www.w3.org/2000/svg">
<path d="M0 122.88H299.008V269.312L295.936 280.576L288.768 291.84L280.576 300.032L275.456 302.08V304.128L264.192 308.224L259.072 309.248H39.936L28.672 306.176L17.408 299.008L9.216 290.816L3.072 280.576L0 269.312V122.88ZM62.464 165.888V194.56H92.16V165.888H62.464ZM135.168 165.888V194.56H163.84V165.888H135.168ZM206.848 165.888V194.56H236.544V165.888H206.848ZM62.464 227.328V256H92.16V227.328H62.464ZM135.168 227.328V256H163.84V227.328H135.168ZM206.848 227.328V256H236.544V227.328H206.848Z" fill="#0F2F67"/>
<path d="M61.44 0H94.208V30.72H133.12V0H165.888V30.72H204.8V0H237.568V30.72H261.12L275.456 35.84L286.72 45.056L293.888 55.296L297.984 66.56L299.008 71.68V94.208H0V71.68L3.072 59.392L9.216 49.152L14.336 43.008L24.576 35.84L33.792 31.744L37.888 30.72H61.44V0Z" fill="#0F2F67"/>
</svg>
