<svg width="386" height="441" viewBox="0 0 386 441" fill="none" xmlns="http://www.w3.org/2000/svg">
<path d="M10.24 48.128H374.784L382.976 53.248L385.024 57.344V70.656L380.928 76.8L374.784 80.896H353.28V387.072L348.16 402.432L340.992 414.72L330.752 425.984L323.584 431.104L310.272 437.248L299.008 440.32H86.016L71.68 436.224L58.368 429.056L47.104 418.816L37.888 404.48L32.768 391.168L31.744 386.048V80.896H10.24L4.096 76.8L0 70.656V57.344L4.096 51.2L10.24 48.128ZM64.512 80.896V373.76L66.56 385.024L70.656 393.216L77.824 400.384L87.04 405.504L98.304 407.552H286.72L297.984 405.504L308.224 399.36L315.392 392.192L319.488 381.952L320.512 373.76V80.896H64.512Z" fill="black"/>
<path d="M241.664 151.552H254.976L261.12 155.648L265.216 161.792V334.848L261.12 340.992L254.976 345.088H242.688L236.544 340.992L232.448 334.848V161.792L237.568 153.6L241.664 151.552Z" fill="black"/>
<path d="M130.048 151.552H143.36L147.456 153.6L152.576 161.792V334.848L148.48 340.992L142.336 345.088H130.048L123.904 340.992L119.808 334.848V161.792L123.904 155.648L130.048 151.552Z" fill="black"/>
<path d="M121.856 0H263.168L269.312 4.096L273.408 10.24V22.528L269.312 28.672L263.168 32.768H121.856L115.712 28.672L111.616 22.528V10.24L115.712 4.096L121.856 0Z" fill="black"/>
</svg>
