<svg width="238" height="238" viewBox="0 0 238 238" fill="none" xmlns="http://www.w3.org/2000/svg">
<path d="M168 0H186L195 4L204 11L211 19L229 37L233 41L237 49L238 53V67L234 77L227 87L84 230L70 236L46 238H25L14 234L5 226L1 218L0 214V185L1 170L6 157L15 147L156 6L168 0ZM173 25L162 34L154 42L150 47L151 52L158 59L165 67L183 85L187 88L192 86L199 79L207 72L213 64V57L204 47L186 29L181 25H173ZM130 67L117 79L102 95L80 117L72 124L60 137L38 159L30 166L26 173L25 182V210L28 213L33 214L63 212L73 206L84 195L91 187L114 164L122 157L136 142L157 121L165 114L170 108L167 103L155 90L134 69L130 67Z" fill="black"/>
</svg>
