<svg width="202" height="202" viewBox="0 0 202 202" fill="none" xmlns="http://www.w3.org/2000/svg">
<path d="M86 0H116L133 4L145 9L159 17L169 25L180 36L187 46L193 56L199 72L202 86V116L198 133L193 145L185 159L177 169L166 180L156 187L146 193L130 199L116 202H86L69 198L57 193L43 185L33 177L22 166L15 156L9 146L3 130L0 116V86L4 69L9 57L17 43L25 33L36 22L46 15L56 9L72 3L86 0ZM93 19L75 23L61 29L48 38V40L44 42L39 47V49H37L28 63L22 78L19 93V109L23 127L29 141L38 154L47 163H49V165L63 174L78 180L93 183H109L127 179L141 173L154 164L163 155V153H165L174 139L180 124L183 109V93L179 75L173 61L164 48L155 39H153V37L139 28L124 22L109 19H93Z" fill="black"/>
<path d="M98 82H104L109 85L111 90V149L108 154L106 156H96L92 152L91 149V90L94 84L98 82Z" fill="black"/>
<path d="M96 46H106L110 50L111 57L108 63L104 65L95 64L92 60L91 53L94 48L96 46Z" fill="black"/>
</svg>
