<svg width="412" height="412" viewBox="0 0 412 412" fill="none" xmlns="http://www.w3.org/2000/svg">
<path d="M188.416 0H223.232L245.76 3.072L272.384 10.24L287.744 16.384L308.224 26.624L322.56 35.84L333.824 44.032L348.16 56.32L359.424 67.584L368.64 78.848L375.808 89.088L387.072 107.52L398.336 131.072L404.48 149.504L409.6 172.032L411.648 188.416V223.232L408.576 245.76L401.408 272.384L395.264 287.744L385.024 308.224L375.808 322.56L367.616 333.824L355.328 348.16L344.064 359.424L332.8 368.64L326.656 373.76L317.44 378.88L304.128 387.072L280.576 398.336L262.144 404.48L239.616 409.6L223.232 411.648H188.416L165.888 408.576L139.264 401.408L119.808 393.216L98.304 381.952L82.944 371.712L71.68 362.496L59.392 351.232L52.224 344.064L40.96 329.728L33.792 319.488L24.576 304.128L13.312 280.576L7.168 262.144L2.048 239.616L0 223.232V188.416L3.072 165.888L10.24 139.264L18.432 119.808L29.696 98.304L39.936 82.944L49.152 71.68L60.416 59.392L67.584 52.224L78.848 43.008L84.992 37.888L94.208 32.768L107.52 24.576L131.072 13.312L149.504 7.168L172.032 2.048L188.416 0ZM199.68 78.848L191.488 82.944L184.32 91.136L181.248 98.304V209.92L184.32 218.112L193.536 228.352L202.752 237.568L209.92 245.76L226.304 261.12L245.76 280.576L252.928 288.768L263.168 297.984L271.36 302.08L278.528 303.104L287.744 301.056L296.96 294.912L302.08 284.672L303.104 277.504L301.056 269.312L295.936 261.12L284.672 248.832L272.384 237.568L251.904 217.088L244.736 208.896L231.424 196.608L230.4 98.304L225.28 88.064L217.088 80.896L211.968 78.848H199.68Z" fill="#0F2F67"/>
</svg>
