<svg width="27" height="19" viewBox="0 0 27 19" fill="none" xmlns="http://www.w3.org/2000/svg">
<path fill-rule="evenodd" clip-rule="evenodd" d="M1.90558 0.0519567C1.0004 0.2299 0.230948 1.01605 0.0555224 1.94219C-0.0185075 2.33281 -0.0185075 16.66 0.0555224 17.0506C0.235113 17.9987 0.999877 18.7643 1.94687 18.9441C2.33937 19.0186 24.6606 19.0186 25.0531 18.9441C26.0001 18.7643 26.7649 17.9987 26.9445 17.0506C27.0185 16.66 27.0185 2.33281 26.9445 1.94219C26.7649 0.994144 26.0001 0.228528 25.0531 0.0487369C24.7002 -0.018302 2.24694 -0.0151878 1.90558 0.0519567ZM19.6437 6.20365C16.4817 9.35242 14.9119 10.8796 14.7136 10.9999C13.9747 11.4484 13.0253 11.4484 12.2864 10.9999C12.0881 10.8796 10.5183 9.35242 7.35632 6.20365L2.71717 1.58393H13.5H24.2828L19.6437 6.20365ZM6.30245 7.38158L8.41135 9.49647L5.77517 12.1392C4.32526 13.5927 2.78898 15.1157 2.36126 15.5236L1.58352 16.2652V9.49621V2.72718L2.88853 3.99691C3.60632 4.69527 5.14254 6.21837 6.30245 7.38158ZM25.4037 12.888L25.3901 16.2795L21.9892 12.8868L18.5882 9.49415L21.9892 6.10752L25.3901 2.7209L25.4037 6.10868C25.4112 7.97194 25.4112 11.0226 25.4037 12.888ZM10.1001 11.1887C11.0543 12.1513 11.6071 12.5345 12.3927 12.7779C12.7237 12.8805 12.9042 12.9004 13.5 12.9004C14.3106 12.9004 14.7335 12.8016 15.3455 12.4693C15.7987 12.2232 16.0382 12.0271 16.8065 11.2729L17.4503 10.641L18.7047 11.86C19.3946 12.5305 20.9319 14.0545 22.1207 15.2467L24.2824 17.4144L13.4997 17.4121L2.71717 17.4099L6.10804 14.0338C7.97302 12.177 9.51578 10.6577 9.53635 10.6577C9.55691 10.6577 9.81058 10.8966 10.1001 11.1887Z" fill="#373737"/>
</svg>
