<svg width="27" height="30" viewBox="0 0 27 30" fill="none" xmlns="http://www.w3.org/2000/svg">
<path fill-rule="evenodd" clip-rule="evenodd" d="M12.147 0.0746556C10.2628 0.393127 8.81911 1.07169 7.56867 2.22656C6.81193 2.92551 6.41284 3.43526 5.97678 4.25981C5.40672 5.33771 5.31032 5.79667 5.26485 7.64853L5.22463 9.28901L4.76314 9.36952C2.67854 9.73301 1.18616 10.7812 0.486741 12.3731C0.0326986 13.4065 0.0209242 13.5896 0.00440764 19.8836C-0.00924715 25.0885 0.00293613 25.7109 0.126565 26.1338C0.615603 27.8073 2.0922 29.2062 3.9997 29.8032L4.62872 30H13.5002H22.3718L23.0259 29.7965C24.8991 29.2138 26.3898 27.7947 26.8735 26.1338C26.9964 25.7117 27.0088 25.0786 26.996 19.8858C26.9805 13.5922 26.9687 13.4086 26.5138 12.3731C25.8513 10.8652 24.4489 9.82775 22.5481 9.43954L21.7758 9.28179L21.7356 7.64491C21.6902 5.7971 21.5935 5.33713 21.0237 4.25981C20.5894 3.43852 20.1889 2.9258 19.4448 2.23856C17.8954 0.80735 16.012 0.0695248 13.7455 0.00585941C13.0935 -0.0124236 12.5147 0.0125078 12.147 0.0746556ZM12.3147 2.40231C10.4822 2.73559 8.78411 4.06 8.14103 5.65734C7.925 6.19391 7.91069 6.3065 7.87832 7.72433L7.84414 9.22383H13.5003H19.1566L19.1268 7.76047C19.0979 6.34501 19.0887 6.27672 18.8468 5.67432C17.8846 3.27896 15.1168 1.89255 12.3147 2.40231ZM5.3521 11.6142C3.90485 11.832 3.06725 12.5129 2.74747 13.7316C2.63757 14.1505 2.62384 14.962 2.64444 19.831C2.67077 26.0611 2.64747 25.7891 3.21901 26.5398C3.58139 27.0157 4.0795 27.3304 4.77721 27.5243L5.36461 27.6875H13.5002H21.6359L22.2233 27.5243C23.221 27.2471 23.8839 26.6601 24.1918 25.7815C24.322 25.4096 24.3341 24.8867 24.3341 19.63C24.3341 14.3732 24.322 13.8504 24.1918 13.4785C23.8908 12.6193 23.237 12.0281 22.2661 11.7372L21.7176 11.5728L13.7455 11.5618C9.36088 11.5557 5.58382 11.5794 5.3521 11.6142ZM12.7301 16.3068C11.3325 16.7892 10.9282 18.3408 11.9359 19.3552L12.192 19.6129V21.2864C12.192 22.8085 12.2066 22.9852 12.353 23.2388C12.828 24.0617 14.2249 24.0466 14.6528 23.214C14.7865 22.9538 14.8051 22.7206 14.8067 21.2841L14.8085 19.6502L15.0815 19.3944C15.9192 18.6094 15.9068 17.4864 15.0521 16.731C14.4328 16.1837 13.5528 16.0229 12.7301 16.3068Z" fill="#373737"/>
</svg>
