<svg width="512" height="400" viewBox="0 0 512 400" fill="none" xmlns="http://www.w3.org/2000/svg">
<path d="M446.464 0.320312H461.824L471.04 3.39231L480.256 9.53631L490.496 18.7523L501.76 30.0163L508.928 39.2323L512 49.4723V68.9283L508.928 78.1443L504.832 84.2883L495.616 94.5283L477.184 112.96L468.992 120.128L459.776 130.368L435.2 154.944L427.008 162.112L415.744 174.4L392.192 197.952L384 205.12L374.784 215.36L349.184 240.96L340.992 248.128L331.776 258.368L307.2 282.944L299.008 290.112L289.792 300.352L264.192 325.952L256 333.12L246.784 343.36L222.208 367.936L214.016 375.104L202.752 387.392L192.512 396.608L185.344 399.68H171.008L163.84 396.608L154.624 389.44L141.312 376.128L135.168 368.96L126.976 361.792L118.784 352.576L110.592 345.408L98.304 333.12L93.184 326.976L84.992 319.808L77.824 312.64L72.704 307.52L56.32 291.136L50.176 283.968L41.984 276.8L34.816 269.632L29.696 264.512L13.312 248.128L4.096 236.864L2.048 233.792L0 225.6V206.144L3.072 196.928L7.168 190.784L16.384 180.544L29.696 167.232L38.912 161.088L43.008 159.04L49.152 158.016H66.56L74.752 160.064L84.992 167.232L123.904 206.144L129.024 211.264L166.912 249.152L172.032 254.272L176.128 258.368L180.224 256.32L191.488 245.056L199.68 237.888L215.04 222.528L222.208 214.336L234.496 202.048L242.688 194.88L257.024 180.544L264.192 172.352L276.48 160.064L284.672 152.896L300.032 137.536L307.2 129.344L319.488 117.056L327.68 109.888L342.016 95.5523L349.184 87.3603L362.496 74.0483L370.688 66.8803L385.024 52.5443L392.192 44.3523L404.48 32.0643L412.672 24.8963L431.104 6.46431L442.368 1.34431L446.464 0.320312Z" fill="black"/>
</svg>
