<svg width="512" height="400" viewBox="0 0 512 400" fill="none" xmlns="http://www.w3.org/2000/svg">
<path d="M446.464 0H461.824L471.04 3.072L480.256 9.216L490.496 18.432L501.76 29.696L508.928 38.912L512 49.152V68.608L508.928 77.824L504.832 83.968L495.616 94.208L477.184 112.64L468.992 119.808L459.776 130.048L435.2 154.624L427.008 161.792L415.744 174.08L392.192 197.632L384 204.8L374.784 215.04L349.184 240.64L340.992 247.808L331.776 258.048L307.2 282.624L299.008 289.792L289.792 300.032L264.192 325.632L256 332.8L246.784 343.04L222.208 367.616L214.016 374.784L202.752 387.072L192.512 396.288L185.344 399.36H171.008L163.84 396.288L154.624 389.12L141.312 375.808L135.168 368.64L126.976 361.472L118.784 352.256L110.592 345.088L98.304 332.8L93.184 326.656L84.992 319.488L77.824 312.32L72.704 307.2L56.32 290.816L50.176 283.648L41.984 276.48L34.816 269.312L29.696 264.192L13.312 247.808L4.096 236.544L2.048 233.472L0 225.28V205.824L3.072 196.608L7.168 190.464L16.384 180.224L29.696 166.912L38.912 160.768L43.008 158.72L49.152 157.696H66.56L74.752 159.744L84.992 166.912L123.904 205.824L129.024 210.944L166.912 248.832L172.032 253.952L176.128 258.048L180.224 256L191.488 244.736L199.68 237.568L215.04 222.208L222.208 214.016L234.496 201.728L242.688 194.56L257.024 180.224L264.192 172.032L276.48 159.744L284.672 152.576L300.032 137.216L307.2 129.024L319.488 116.736L327.68 109.568L342.016 95.232L349.184 87.04L362.496 73.728L370.688 66.56L385.024 52.224L392.192 44.032L404.48 31.744L412.672 24.576L431.104 6.144L442.368 1.024L446.464 0Z" fill="white"/>
</svg>
