<svg width="16" height="16" viewBox="0 0 16 16" fill="none" xmlns="http://www.w3.org/2000/svg">
  <path fill-rule="evenodd" clip-rule="evenodd" d="M13.5584 0.0377499C13.2907 0.0976895 12.8869 0.298082 12.6943 0.46652C12.5807 0.565825 7.47808 6.10356 5.41624 8.36513L5.23623 8.56258L4.77832 9.92959C4.36403 11.1665 4.32045 11.3173 4.32048 11.5143C4.32054 12.1094 4.86957 12.5614 5.43899 12.4352C5.64954 12.3885 8.04276 11.3489 8.20876 11.232C8.30997 11.1607 14.7007 4.22736 15.5159 3.30438C15.9409 2.82314 16.1088 2.07191 15.928 1.45979C15.7444 0.838382 15.2264 0.305242 14.6041 0.0973455C14.2983 -0.00477374 13.8598 -0.0297877 13.5584 0.0377499ZM14.2342 1.4253C14.5731 1.57854 14.7268 2.02582 14.5385 2.31136C14.4552 2.43783 8.40071 9.0275 8.36788 9.0275C8.3522 9.0275 8.13479 8.84183 7.88474 8.61489L7.43013 8.20232L7.55196 8.07553C7.61895 8.0058 9.01073 6.49096 10.6448 4.70919C12.9743 2.16915 13.6418 1.45888 13.7363 1.41992C13.8968 1.35373 14.0803 1.35573 14.2342 1.4253ZM2.8021 1.49493C2.07256 1.5716 1.38638 1.90791 0.872951 2.44046C0.472201 2.85613 0.219259 3.31495 0.0685302 3.89965L0 4.16542V8.74609V13.3268L0.0865347 13.6392C0.378063 14.6918 1.12753 15.4932 2.14404 15.8392C2.61873 16.0008 2.58796 15.9999 7.34065 16C11.1391 16.0001 11.7972 15.9935 12.031 15.9529C13.3973 15.7158 14.44 14.6373 14.625 13.2698C14.6463 13.1126 14.6581 11.9377 14.6581 9.98281C14.6581 6.6019 14.6689 6.77662 14.4467 6.55015C14.181 6.27922 13.754 6.27738 13.4841 6.54599C13.2778 6.75126 13.2928 6.50144 13.2756 10.0124L13.2598 13.2017L13.1896 13.4072C13.0121 13.9266 12.5743 14.3622 12.0524 14.5388L11.8459 14.6087L7.41546 14.6175C2.51912 14.6272 2.75324 14.6359 2.33436 14.4295C2.06323 14.2959 1.6927 13.9252 1.56029 13.6551C1.36033 13.2471 1.36793 13.4414 1.36793 8.73046C1.36793 4.00533 1.35901 4.22486 1.56743 3.81304C1.77657 3.39978 2.15501 3.0806 2.62369 2.92223C2.82793 2.85319 2.82799 2.85319 6.12718 2.83706C9.76151 2.8193 9.50298 2.8344 9.69971 2.62828C9.88201 2.4373 9.93364 2.124 9.82278 1.88115C9.74125 1.70252 9.53302 1.53449 9.34285 1.4939C9.1564 1.45413 3.18158 1.45507 2.8021 1.49493ZM7.24201 9.89495L7.44563 10.0816L7.35001 10.1307C7.12422 10.2469 6.0097 10.7189 5.99518 10.7044C5.97944 10.6888 6.40699 9.37707 6.46333 9.26823C6.49396 9.20901 6.49013 9.20591 7.24201 9.89495Z" fill="currentColor"/>
</svg>

