<svg width="153" height="153" viewBox="0 0 153 153" fill="none" xmlns="http://www.w3.org/2000/svg">
<path d="M56.5612 0H71.2101L81.383 2.03457L88.3005 4.47606L94.8112 7.73138L100.101 10.5798L106.612 15.8697L109.867 19.125L112.715 22.3803L116.378 26.8564L120.854 34.1809L124.109 41.5053L126.144 47.609L127.364 56.5612V71.2101L126.144 79.7553L123.295 88.3005L120.04 94.8112L118.005 98.0665L118.819 99.6941L126.551 107.426L129.399 110.681L133.468 114.343L143.234 124.109L146.082 127.364L149.745 130.62L152.186 134.282L153 136.723V143.641L150.965 147.71L149.338 149.745L145.676 152.186L143.641 153H136.723L133.061 151.372L128.992 148.117L124.923 143.641L121.668 140.793L115.564 134.689L114.343 133.468V132.654L112.715 131.84L108.239 126.957L104.984 124.109L98.8803 118.005L96.8457 118.819L91.1489 122.074L82.6037 125.33L78.1277 126.551L71.2101 127.364H56.5612L48.016 126.144L39.4707 123.295L32.5532 120.04L26.4495 115.971L21.1596 111.495L15.0559 105.798L10.9867 100.508L5.28989 90.3351L2.03457 81.383L0 71.2101V56.5612L1.62766 47.609L4.06915 40.2846L7.73138 32.5532L10.9867 27.2633L15.0559 21.9734L17.9043 19.125L19.9388 17.0904L22.7872 14.242L28.891 9.76596L33.367 7.32447L40.2846 4.06915L47.609 1.62766L56.5612 0ZM63.4787 19.5319L55.7473 20.3457L49.6436 21.9734L43.9468 24.4149L41.9122 25.2287L36.2154 29.2979L31.3324 33.7739L27.6702 38.25L24.8218 42.3191L22.7872 47.609L20.7527 53.7128L19.9388 58.1888V69.5824L21.5665 76.9069L23.6011 81.7899L25.2287 85.859L29.2979 91.5559L31.7394 94.4043L36.2154 98.0665L40.6915 101.322L44.7606 103.763L50.8644 106.205L58.1888 107.832L63.8856 108.239L72.0239 107.426L77.7207 105.798L84.2314 102.949L88.3005 100.508L91.9628 97.6596L96.0319 93.9973L100.508 88.3005L103.763 82.6037L106.205 76.9069L107.426 72.0239L107.832 69.1755V58.1888L106.205 50.8644L103.763 44.7606L100.915 39.8777L96.4388 34.1809L93.1835 30.5186L88.3005 26.8564L85.0452 24.8218L81.7899 23.6011L76.9069 21.5665L69.5824 19.9388L63.4787 19.5319Z" fill="#0F2F67"/>
</svg>
