<svg width="461" height="461" viewBox="0 0 461 461" fill="none" xmlns="http://www.w3.org/2000/svg">
<path d="M34.816 0H46.08L57.344 3.072L76.8 13.312L116.736 32.768L141.312 45.056L160.768 55.296L202.752 75.776L227.328 88.064L246.784 98.304L286.72 117.76L313.344 131.072L332.8 141.312L372.736 160.768L397.312 173.056L416.768 183.296L442.368 195.584L452.608 204.8L458.752 216.064L460.8 225.28V235.52L457.728 246.784L451.584 257.024L442.368 265.216L431.104 271.36L420.864 275.456L398.336 286.72L378.88 296.96L350.208 311.296L340.992 315.392L314.368 328.704L294.912 338.944L266.24 353.28L261.12 356.352L250.88 360.448L228.352 371.712L208.896 381.952L180.224 396.288L171.008 400.384L144.384 413.696L124.928 423.936L96.256 438.272L91.136 441.344L80.896 445.44L58.368 456.704L51.2 459.776L46.08 460.8H34.816L21.504 456.704L11.264 448.512L4.096 439.296L0 425.984V414.72L16.384 349.184L21.504 326.656L39.936 253.952L40.96 250.88L56.32 248.832L230.4 232.448L262.144 231.424V229.376L230.4 228.352L45.056 210.944L40.96 209.92L26.624 154.624L19.456 126.976L16.384 110.592L1.024 51.2L0 46.08V34.816L4.096 21.504L11.264 12.288L19.456 5.12L29.696 1.024L34.816 0Z" fill="white"/>
</svg>
