<svg width="451" height="259" viewBox="0 0 451 259" fill="none" xmlns="http://www.w3.org/2000/svg">
<path d="M20.48 258.048H430.08L440.32 253.952L445.44 248.832L449.536 241.664L450.56 237.568V228.352L446.464 218.112L437.248 208.896L430.08 200.704L420.864 190.464L411.648 181.248L405.504 174.08L397.312 166.912L390.144 157.696L379.904 147.456L372.736 139.264L352.256 118.784L344.064 108.544L331.776 96.2561L324.608 88.0641L317.44 81.9201L310.272 73.7281L301.056 63.4881L291.84 53.2481L269.312 30.7201L263.168 22.5281L245.76 5.12008L242.688 3.07208L229.376 8.34465e-05H221.184L207.872 3.07208L197.632 12.2881L185.344 24.5761L179.2 32.7681L152.576 59.3921L145.408 67.5841L135.168 78.8481L128 87.0401L119.808 94.2081L112.64 102.4L104.448 110.592L95.232 121.856L71.68 145.408L64.512 153.6L57.344 160.768L51.2 168.96L39.936 179.2L32.768 187.392L24.576 195.584L17.408 203.776L7.168 215.04V217.088L4.096 218.112L0 228.352V237.568L4.096 247.808L8.192 252.928L16.384 257.024L20.48 258.048Z" fill="#0F2F67"/>
</svg>
