<svg width="28" height="25" viewBox="0 0 28 25" fill="none" xmlns="http://www.w3.org/2000/svg">
<path fill-rule="evenodd" clip-rule="evenodd" d="M13.0074 0.117567C12.4785 0.310916 12.1077 0.611978 11.7931 1.10333C11.3942 1.72659 0.385532 21.254 0.181517 21.7003C-0.035327 22.1746 -0.0610598 22.941 0.121448 23.4889C0.28821 23.9894 0.764682 24.5158 1.28985 24.7795L1.72876 25H13.75H25.7713L26.2102 24.7795C26.7354 24.5158 27.2118 23.9894 27.3786 23.4889C27.561 22.9416 27.5353 22.1747 27.3189 21.7003C26.9463 20.8836 15.6448 0.947296 15.4143 0.700286C14.8401 0.0848051 13.7914 -0.169039 13.0074 0.117567ZM14.2475 7.44968C14.6391 7.56093 15.0919 8.02399 15.2006 8.42452C15.3159 8.8494 15.3173 15.216 15.2022 15.6507C14.8819 16.8597 13.0499 17.0746 12.4341 15.9754L12.2522 15.6507L12.2299 12.2138C12.2149 9.89204 12.2351 8.67278 12.2922 8.45602C12.5061 7.64334 13.3678 7.19992 14.2475 7.44968ZM14.4709 18.9513C14.8064 19.1144 15.1648 19.625 15.243 20.0515C15.3518 20.6447 14.987 21.3763 14.44 21.6617C13.8225 21.9839 12.9762 21.797 12.5709 21.2492C12.3323 20.9265 12.1889 20.387 12.2559 20.0634C12.4755 19.0015 13.5079 18.4831 14.4709 18.9513Z" fill="#D2281E"/>
</svg>
