<svg width="20" height="20" viewBox="0 0 20 20" fill="none" xmlns="http://www.w3.org/2000/svg">
<path fill-rule="evenodd" clip-rule="evenodd" d="M7.39133 0.0672368C7.15332 0.200748 7.09152 0.358668 7.07652 0.871373L7.0632 1.32708H5.53945C3.85527 1.32708 3.83723 1.32979 3.66133 1.61042C3.57758 1.74407 3.57375 1.79288 3.56258 2.87204L3.55094 3.99464H11.7755H20V2.92584C20 1.9424 19.9937 1.84303 19.9214 1.6816C19.8707 1.56863 19.7878 1.4742 19.6885 1.41658C19.5418 1.33139 19.4607 1.32708 18.0094 1.32708H16.4844V0.925169C16.4844 0.61013 16.4674 0.485377 16.4057 0.34782C16.2526 0.00610528 15.8341 -0.106066 15.5553 0.119877C15.371 0.269216 15.3125 0.462658 15.3125 0.922546V1.32708H13.8281H12.3438V0.925169C12.3438 0.61013 12.3268 0.485377 12.2651 0.34782C12.112 0.00610528 11.6934 -0.106066 11.4146 0.119877C11.2304 0.269216 11.1719 0.462658 11.1719 0.922546V1.32708H9.70703H8.24219V0.925169C8.24219 0.61013 8.22519 0.485377 8.16356 0.34782C8.02488 0.0384717 7.67152 -0.0899269 7.39133 0.0672368ZM3.50336 5.87305C3.39699 8.25522 2.70852 10.8227 1.65836 12.7531C1.32687 13.3625 0.800625 14.142 0.436602 14.5628C0.0913672 14.9618 0 15.1227 0 15.3313C0 15.5523 0.138047 15.8085 0.311484 15.9092C0.464453 15.998 0.525391 15.9987 8.24219 15.9987C15.8107 15.9987 16.0226 15.9964 16.1637 15.914C16.4688 15.7359 17.1837 14.7951 17.7534 13.8223C19.0105 11.6756 19.8297 8.72525 19.9482 5.91751L19.973 5.32842H11.7504H3.5277L3.50336 5.87305ZM19.8863 12.1569C19.3591 13.6284 18.3611 15.3605 17.422 16.4337C17.0188 16.8945 16.826 17.0599 16.5181 17.2088L16.3086 17.3102L9.93164 17.322L3.55469 17.3337V18.4019C3.55469 19.3847 3.56098 19.4841 3.63332 19.6455C3.68395 19.7585 3.76691 19.8529 3.86617 19.9105C4.01914 19.9993 4.08012 20 11.7773 20C19.4746 20 19.5355 19.9993 19.6885 19.9105C19.7879 19.8528 19.8707 19.7585 19.9216 19.645C19.9991 19.472 20.0003 19.4048 19.9905 15.6816L19.9805 11.8942L19.8863 12.1569Z" fill="#143886"/>
</svg>
