<svg width="210" height="210" viewBox="0 0 210 210" fill="none" xmlns="http://www.w3.org/2000/svg">
<path fill-rule="evenodd" clip-rule="evenodd" d="M128.823 1.36277L127.453 2.73302V105V207.266L128.823 208.636C129.576 209.39 130.683 210.004 131.283 210C131.883 209.996 148.879 205.073 169.053 199.058C208.687 187.243 207.68 187.622 209.278 183.887C210.241 181.636 210.241 28.3632 209.278 26.1121C207.681 22.3796 208.687 22.7589 169.055 10.9433C148.88 4.92879 131.883 0.00424067 131.283 2.16428e-05C130.683 -0.00419739 129.576 0.608969 128.823 1.36277ZM71.4582 7.92899C67.2583 8.94531 63.378 12.1147 61.3725 16.1655C60.217 18.5 60.2118 18.5722 60.0722 34.3289L59.9316 50.1484L61.1049 51.3222C62.2159 52.4337 62.5543 52.496 67.4753 52.496C72.3682 52.496 72.7393 52.4285 73.8222 51.3452L74.9725 50.1948V36.3442V22.494H92.5653H110.159L111.308 21.3432C112.391 20.2598 112.459 19.8885 112.459 14.9935C112.459 10.0985 112.391 9.72724 111.308 8.64388L110.159 7.49302L91.511 7.54084C81.2552 7.56756 72.2313 7.74195 71.4582 7.92899ZM75.5582 69.24C75.1103 69.4008 74.9725 72.3049 74.9725 81.5994V93.7488H38.6366H2.30025L1.15036 94.8996C0.00937245 96.0407 0 96.1227 0 105C0 113.876 0.00937245 113.958 1.15036 115.099L2.30025 116.25H38.6366H74.9725V128.388C74.9725 138.207 75.0948 140.573 75.6117 140.772C76.0071 140.924 83.0114 134.246 94.0034 123.236C103.767 113.456 111.833 105.225 111.928 104.945C112.096 104.447 78.2362 70.1433 76.8468 69.404C76.4603 69.1982 75.8806 69.1246 75.5582 69.24ZM154.051 91.2511C154.725 91.7541 155.71 92.7484 156.242 93.4605C157.148 94.6756 157.208 95.3839 157.208 105C157.208 116.275 157.175 116.414 153.982 118.8C152.167 120.155 147.723 120.155 145.908 118.8C142.798 116.477 142.696 116.096 142.535 106.256C142.454 101.311 142.515 96.5854 142.671 95.7547C143.022 93.881 144.984 91.4907 146.876 90.6319C148.773 89.7712 152.5 90.0928 154.051 91.2511ZM61.0998 158.682L59.9213 159.861L60.067 175.675C60.2076 191.001 60.2451 191.555 61.2699 193.614C62.9333 196.954 64.8245 198.927 68.0258 200.664L70.9896 202.272L90.5504 202.413L110.111 202.553L111.285 201.379C112.396 200.267 112.459 199.929 112.459 195.006C112.459 190.111 112.391 189.739 111.308 188.656L110.159 187.505H92.5653H74.9725V173.655V159.804L73.8222 158.654C72.7393 157.571 72.3682 157.503 67.4753 157.503C62.5482 157.503 62.2169 157.564 61.0998 158.682Z" fill="#21C694"/>
</svg>
