<svg width="20" height="20" viewBox="0 0 20 20" fill="none" xmlns="http://www.w3.org/2000/svg">
<path fill-rule="evenodd" clip-rule="evenodd" d="M9.02228 0.0452292C7.56897 0.184589 6.05092 0.695456 4.77136 1.47574C3.5109 2.24443 2.23114 3.52929 1.45385 4.8065C-0.00776946 7.20816 -0.385789 10.0983 0.403712 12.8352C0.638995 13.6508 1.15203 14.7548 1.62954 15.4729C2.43799 16.6886 3.57209 17.7905 4.77584 18.5298C7.69237 20.3211 11.3294 20.4863 14.3805 18.9662C14.6938 18.81 15.0818 18.5986 15.2427 18.4962C16.4937 17.7001 17.6575 16.5343 18.4565 15.277C18.6988 14.8957 19.1771 13.9134 19.3526 13.4363C19.6369 12.664 19.9219 11.3326 19.9224 10.7743C19.9225 10.6722 19.9401 10.5887 19.9616 10.5887C19.986 10.5887 20.0003 10.3515 20 9.95385C19.9996 9.52952 19.9869 9.3384 19.9616 9.37758C19.9344 9.41974 19.9236 9.38141 19.923 9.24084C19.9207 8.66938 19.6399 7.35205 19.3535 6.5691C19.1818 6.09981 18.7024 5.11644 18.4562 4.72836C17.841 3.75886 16.8426 2.66731 15.9837 2.02509C13.9543 0.507885 11.4942 -0.191803 9.02228 0.0452292ZM9.70594 2.87582C9.52767 2.9533 9.43926 3.03694 9.34964 3.21287C9.27882 3.35184 9.27578 3.49862 9.27578 6.75964C9.27578 9.59016 9.28494 10.1826 9.33037 10.2872C9.40081 10.4493 12.7687 13.8142 12.915 13.8687C13.5004 14.0867 14.0707 13.492 13.8231 12.9219C13.7925 12.8515 13.0882 12.1165 12.2241 11.2531L10.6798 9.71002V6.53394C10.6798 3.4944 10.6766 3.35161 10.6059 3.21287C10.5147 3.03382 10.4261 2.95162 10.2409 2.87407C10.0617 2.79909 9.8812 2.79968 9.70594 2.87582ZM0.00981938 10.0027C0.00981938 10.3572 0.0157473 10.5023 0.0229621 10.325C0.030177 10.1477 0.030177 9.85763 0.0229621 9.68037C0.0157473 9.50311 0.00981938 9.64814 0.00981938 10.0027Z" fill="#143886"/>
</svg>
