<svg width="16" height="22" viewBox="0 0 16 22" fill="none" xmlns="http://www.w3.org/2000/svg">
<path d="M7.1623 0.53125H8.8377L9.63351 0.61502L10.6806 0.908213L11.3927 1.20141L12.1466 1.62026L12.6492 1.95533L13.1937 2.37418L13.6963 2.83491L13.9895 3.12811L14.4503 3.7145L14.8272 4.259L15.3717 5.30612L15.6649 6.06005L15.9162 7.10717L16 7.69355V9.28518L15.8325 10.3323L15.5812 11.17L15.2461 11.9658L14.8272 12.7616L14.3246 13.4737L13.822 14.1019L13.6126 14.3951L13.4031 14.6045L13.1099 15.0234L12.6911 15.5679L12.2304 16.1543L11.9372 16.4894L11.5183 17.0339L11.1414 17.5784L10.6387 18.1648L10.1361 18.8349L9.63351 19.4632L9.25655 19.9658L8.67016 20.7197L8.16754 21.3899L7.95812 21.4737L7.74869 21.2642L6.57592 19.7564L5.73822 18.6674L5.27749 18.081L4.81675 17.5365L4.48168 17.0339L3.97906 16.4056L3.60209 15.9449L3.14136 15.3585L2.4712 14.437L2.26178 14.2276L1.42408 13.1386L1.08901 12.636L0.753927 11.9658L0.418848 11.17L0.167539 10.3323L0.0418848 9.66214L0 9.28518V7.69355L0.167539 6.68832L0.376963 5.93439L0.753927 5.05481L1.21466 4.17523L1.80105 3.37942L2.38743 2.75115L2.89005 2.29041L3.64398 1.74591L4.39791 1.32706L4.98429 1.03387L5.86387 0.740674L6.36649 0.61502L7.1623 0.53125ZM7.95812 1.78779L6.95288 1.87156L6.0733 2.08099L5.40314 2.29041L4.73298 2.62549L4.27225 2.91868L3.68586 3.37942L3.14136 3.88204L2.93194 4.09146L2.68063 4.38465L2.26178 5.05481L1.96859 5.55743L1.67539 6.22758L1.42408 7.06528L1.29843 7.81921V9.20141L1.46597 10.1229L1.75916 11.0025L2.09424 11.6726L2.4712 12.3009L2.63874 12.5103L2.80628 12.8035L2.93194 12.8454L3.01571 13.0129L3.47644 13.5993L4.06283 14.3532L4.60733 15.0653L5.19372 15.8192L5.57068 16.3218L5.65445 16.3637L5.73822 16.5312H5.82199L5.90576 16.6988L6.19895 17.1176L6.6178 17.6621L6.95288 18.081L7.37173 18.5836L7.79058 19.1281L7.95812 19.4213H8.04189L8.33508 18.9606L8.75393 18.458L9.04712 18.081L9.46597 17.5784L9.88482 16.992L10.3455 16.3637L10.555 16.1543L11.7277 14.6464L12.1466 14.1019L12.733 13.348L13.0681 12.9292V12.8454L13.1937 12.8035L13.4869 12.3428L13.8639 11.7564L14.199 11.0862L14.4503 10.4161L14.6178 9.74591L14.7016 9.20141V7.81921L14.5759 7.06528L14.3246 6.22758L14.1152 5.72497L13.6963 4.97104L13.2775 4.34277L12.9424 3.92392L12.6073 3.63073L12.0209 3.12811L11.4764 2.75115L10.8901 2.41607L10.2618 2.16476L9.25655 1.91345L8.71204 1.82968L7.95812 1.78779Z" fill="#143886"/>
<path fill-rule="evenodd" clip-rule="evenodd" d="M7.95812 1.78779L6.95288 1.87156L6.0733 2.08099L5.40314 2.29041L4.73298 2.62549L4.27225 2.91868L3.68586 3.37942L3.14136 3.88204L2.93194 4.09146L2.68063 4.38465L2.26178 5.05481L1.96859 5.55743L1.67539 6.22758L1.42408 7.06528L1.29843 7.81921V9.20141L1.46597 10.1229L1.75916 11.0025L2.09424 11.6726L2.4712 12.3009L2.63874 12.5103L2.80628 12.8035L2.93194 12.8454L3.01571 13.0129L3.47644 13.5993L4.06283 14.3532L4.60733 15.0653L5.19372 15.8192L5.57068 16.3218L5.65445 16.3637L5.73822 16.5312H5.82199L5.90576 16.6988L6.19895 17.1176L6.6178 17.6621L6.95288 18.081L7.37173 18.5836L7.79058 19.1281L7.95812 19.4213H8.04189L8.33508 18.9606L8.75393 18.458L9.04712 18.081L9.46597 17.5784L9.88482 16.992L10.3455 16.3637L10.555 16.1543L11.7277 14.6464L12.1466 14.1019L12.733 13.348L13.0681 12.9292V12.8454L13.1937 12.8035L13.4869 12.3428L13.8639 11.7564L14.199 11.0862L14.4503 10.4161L14.6178 9.74591L14.7016 9.20141V7.81921L14.5759 7.06528L14.3246 6.22758L14.1152 5.72497L13.6963 4.97104L13.2775 4.34277L12.9424 3.92392L12.6073 3.63073L12.0209 3.12811L11.4764 2.75115L10.8901 2.41607L10.2618 2.16476L9.25655 1.91345L8.71204 1.82968L7.95812 1.78779ZM8.58636 4.17539H7.41359L7.12039 4.21728L6.65966 4.34293L5.90574 4.67801L5.31935 5.05497L4.81673 5.51571L4.39788 6.06021L4.10469 6.56283L3.85338 7.1911L3.68584 7.90314V9.1178L3.72772 9.32722L3.89526 9.9555L4.18846 10.6257L4.56542 11.1702L4.85861 11.5471L5.02615 11.6309V11.7147L5.23558 11.8822L5.78008 12.2592L6.45024 12.5942L7.41359 12.8037H8.58636L9.21464 12.678L9.75914 12.5105L10.4293 12.1335L10.9738 11.7147L11.3089 11.3377L11.4345 11.1283L11.644 10.877L11.8953 10.4581L12.1466 9.82984L12.3141 9.1178V7.90314L12.2722 7.65183L12.1047 7.06544L11.8115 6.39529L11.3926 5.76701L11.0995 5.43194L10.5131 4.92932L9.84291 4.55235L9.34029 4.34293L8.58636 4.17539Z" fill="#143886"/>
<path d="M7.37174 6.60469H8.62828V7.81935H9.84294V9.15966H8.62828V10.3743H7.37174V9.15966H6.15708V7.81935H7.37174V6.60469Z" fill="#143886"/>
</svg>
