<svg width="21" height="24" viewBox="0 0 21 24" fill="none" xmlns="http://www.w3.org/2000/svg">
<path fill-rule="evenodd" clip-rule="evenodd" d="M9.91348 0.0146437C9.84629 0.0257552 9.63738 0.0586676 9.44924 0.0877824C8.34343 0.258955 7.23406 0.821092 6.36574 1.65023C5.53926 2.43938 5.02181 3.35122 4.75025 4.49692C4.63703 4.97457 4.63703 6.2545 4.75025 6.73215C5.28574 8.99129 6.98318 10.6198 9.33499 11.1305C9.85626 11.2437 11.1202 11.2425 11.6727 11.1282C12.8196 10.8911 13.8 10.378 14.6324 9.57936C15.465 8.78055 15.9781 7.87715 16.2495 6.73215C16.3627 6.2545 16.3627 4.97457 16.2495 4.49692C15.7234 2.27711 14.0167 0.611005 11.7704 0.124258C11.3737 0.0382731 10.1928 -0.0313962 9.91348 0.0146437ZM9.93791 1.89417C8.38126 2.13449 7.15348 3.19299 6.71016 4.67686C6.58789 5.08606 6.58071 6.07714 6.69706 6.48189C6.98674 7.48923 7.52961 8.22076 8.38849 8.76081C9.04531 9.17386 9.65023 9.33973 10.4999 9.33973C11.3511 9.33973 11.9522 9.17456 12.6179 8.75758C13.2676 8.35067 13.8752 7.65093 14.1173 7.03075C14.3433 6.45202 14.3845 6.22318 14.3805 5.56765C14.3771 4.98929 14.3635 4.89618 14.2231 4.48792C13.8134 3.2966 12.9047 2.42606 11.6742 2.04598C11.2889 1.92699 11.1114 1.89947 10.6465 1.88681C10.3374 1.87841 10.0185 1.8817 9.93791 1.89417ZM9.40038 12.796C6.99241 13.0286 4.64729 14.1003 2.90465 15.7645C1.75315 16.8641 0.873399 18.2123 0.341337 19.6928C-0.00610664 20.6595 -0.0697801 21.1408 0.0669983 21.766C0.296233 22.8135 1.22436 23.7041 2.31468 23.9227C2.82915 24.0259 18.1728 24.0257 18.6851 23.9225C19.7889 23.7001 20.6983 22.8246 20.934 21.7573C21.0695 21.1437 21.0052 20.6603 20.659 19.6907C20.1451 18.2514 19.23 16.8467 18.1005 15.7631C15.8325 13.5871 12.6051 12.4864 9.40038 12.796ZM9.49811 14.6708C8.92138 14.7334 8.04681 14.9306 7.519 15.1172C4.96571 16.0196 3.05809 17.8869 2.16348 20.3595C1.91534 21.0454 1.90342 21.4061 2.11921 21.6992C2.19984 21.8087 2.35377 21.9424 2.46128 21.9962L2.65675 22.0942H10.5323H18.4079L18.6154 21.9535C19.0795 21.639 19.1396 21.2043 18.8359 20.3595C18.1328 18.4035 16.7757 16.8094 14.9245 15.7651C13.3281 14.8646 11.3644 14.4686 9.49811 14.6708Z" fill="#373737"/>
</svg>
