<svg width="21" height="24" viewBox="0 0 21 24" fill="none" xmlns="http://www.w3.org/2000/svg">
<path d="M8.688 0H12.192L13.008 0.192L13.68 0.528L14.16 0.96L14.304 1.104L14.592 1.68L14.784 2.016L15.168 2.352L15.744 2.928L16.176 3.552L16.464 4.128L16.704 4.896L16.752 5.232V5.952L16.608 6.768L16.656 6.96L16.992 7.392L17.232 7.92L17.28 8.16V8.976L17.136 9.456L16.896 9.888L16.464 10.368L16.08 10.656L15.648 10.848L15.12 10.944L14.976 11.424L14.592 12.096L14.112 12.768L13.728 13.152L13.344 13.44L13.056 13.536V13.824L14.448 14.064L16.224 14.4L16.992 14.64L17.904 15.072L18.336 15.408L18.576 15.6L18.96 15.936L19.392 16.464L19.872 17.232L20.256 18.096L20.64 19.68L20.784 20.784L20.832 21.408V23.136H19.344L19.296 21.456L19.152 20.16L18.96 19.248L18.624 18.288L18.432 17.808L18.048 17.28L17.616 16.8L16.944 16.32L16.32 16.032L15.84 15.888V17.328L16.32 17.472L16.848 17.808L17.232 18.192L17.616 18.816L17.808 19.488V22.656L17.616 22.944L17.328 23.136H15.648V21.648H16.32L16.272 19.68L16.032 19.2L15.696 18.912L15.312 18.768H14.832L14.4 18.96L14.16 19.152L13.968 19.488L13.92 19.68L13.872 21.648H14.496V23.136H12.816L12.528 22.944L12.384 22.656V19.488L12.576 18.768L12.816 18.336L13.248 17.856L13.488 17.664L14.256 17.328H14.352L14.304 15.6L12.72 15.36L12.624 15.648L12.336 16.272L12.096 16.896L11.712 17.664L11.376 18.288L11.04 18.672L10.656 18.864H10.128L9.648 18.576L9.312 18.096L8.688 16.848L8.496 16.416L8.352 15.984L8.112 15.456V15.36L7.632 15.456L6.816 15.552L6.432 15.6V19.488L6.72 19.584L7.008 19.776L7.344 20.16L7.584 20.688L7.632 20.88V21.552L7.44 22.128L7.152 22.512L6.72 22.896L6.288 23.088L6.096 23.136H5.28L4.752 22.944L4.272 22.512L3.984 22.08L3.84 21.696L3.792 21.072L3.888 20.592L4.128 20.112L4.464 19.728L4.896 19.488L4.944 15.888L4.368 16.08L3.6 16.512L3.072 16.944L2.544 17.568L2.352 17.904L2.064 18.672L1.776 19.632L1.584 20.88L1.536 21.456L1.488 23.136H0V21.36L0.144 19.968L0.432 18.672L0.576 18.144L0.912 17.328L1.344 16.608L1.68 16.176L2.112 15.696L2.544 15.36L3.024 15.024L3.84 14.64L4.608 14.4L7.68 13.824H7.776V13.536L7.488 13.44L6.864 12.912L6.528 12.528L6.192 12L5.808 11.328L5.712 10.944L5.04 10.8L4.512 10.512L4.032 10.032L3.744 9.552L3.6 9.216L3.552 8.976V8.16L3.696 7.68L4.032 7.104L4.272 6.864L4.224 6.24L4.128 5.472V4.224L4.272 3.552L4.608 2.688L4.944 2.16L5.328 1.68L5.856 1.248L6.432 0.816L7.008 0.48L7.776 0.192L8.688 0ZM8.784 1.488L8.064 1.68L7.296 2.064L6.864 2.352L6.384 2.784L6.048 3.264L5.76 3.84L5.616 4.368V5.328L5.712 5.232L5.904 4.752L6.24 4.32L6.576 4.032L6.96 3.84L7.344 3.744H8.16L9.024 3.936L10.224 4.368L11.136 4.752L11.856 4.992L12.048 5.04H12.48L12.864 4.848L13.248 4.752H13.776L14.304 4.896L14.688 5.184L14.976 5.568L15.168 5.904L15.264 5.808V5.376L15.072 4.704L14.688 4.08L14.352 3.648L13.92 3.264L13.488 2.928L13.104 2.064L12.72 1.728L12.288 1.536L12.048 1.488H8.784ZM7.536 5.232L7.248 5.424L7.104 5.616L6.96 6.192L6.912 6.72V9.552L7.056 10.32L7.296 10.944L7.68 11.52L8.016 11.904L8.256 12.048L8.496 12.288L9.168 12.624L9.84 12.816L10.56 12.864L11.184 12.768L11.76 12.576L12.336 12.288L12.768 11.952L13.104 11.568L13.44 11.088L13.68 10.608L13.872 9.936L13.92 9.552V6.912L13.728 6.288L13.584 6.192L13.344 6.24L12.72 6.48H11.856L10.944 6.24L9.6 5.712L9.024 5.472L8.064 5.232H7.536ZM5.376 7.872L5.136 8.16L5.04 8.352V8.784L5.184 9.072L5.424 9.264V7.872H5.376ZM15.408 7.872V9.264L15.696 9.024L15.792 8.784V8.352L15.552 7.968L15.408 7.872ZM9.264 14.208L9.312 14.448L9.936 15.84L10.272 16.56L10.368 16.896L10.512 16.704L10.704 16.224L11.424 14.688L11.568 14.352V14.208L10.56 14.304L9.696 14.256L9.264 14.208ZM5.568 20.832L5.328 21.072L5.28 21.264L5.424 21.552L5.568 21.648H5.856L6.096 21.456L6.144 21.12L5.952 20.88L5.856 20.832H5.568Z" fill="#373737"/>
</svg>
