<svg width="19" height="19" viewBox="0 0 19 19" fill="none" xmlns="http://www.w3.org/2000/svg">
<path fill-rule="evenodd" clip-rule="evenodd" d="M4.81578 0.105627C4.55519 0.244552 4.34581 0.56008 4.30335 0.877799C4.26686 1.15067 4.23404 1.1857 4.01291 1.18762C3.77546 1.18972 3.31979 1.30832 2.86466 1.48657C1.73722 1.928 0.698109 3.00347 0.290373 4.15076C-0.0142412 5.00788 0.000106339 4.71117 0.000106339 10.1616C0.000106339 14.7675 0.00553143 15.1196 0.0820661 15.4821C0.249124 16.273 0.612922 16.9761 1.16306 17.571C1.8928 18.3601 2.77616 18.8195 3.81115 18.9482C4.35258 19.0155 13.7909 19.018 14.3263 18.9511C15.3164 18.8272 16.1302 18.4359 16.8296 17.7477C17.5859 17.0035 18.0154 16.1116 18.1368 15.0332C18.1712 14.7273 18.1811 13.1388 18.1689 9.86478C18.1497 4.67034 18.1666 4.99043 17.8679 4.14967C17.4741 3.04114 16.486 1.99363 15.3899 1.52255C14.9852 1.34865 14.3924 1.1889 14.1458 1.1873C13.9248 1.18584 13.8918 1.15076 13.8553 0.877799C13.8347 0.723118 13.7724 0.560079 13.6818 0.423712C13.1546 -0.369971 11.9507 0.02598 11.9491 0.99357L11.9488 1.14199H9.07935H6.20986L6.20959 0.99357C6.20896 0.612827 5.97842 0.237428 5.6526 0.0867198C5.39587 -0.0320654 5.05978 -0.0244388 4.81578 0.105627ZM6.14476 3.18568C6.06208 3.53163 5.63282 3.8825 5.29315 3.88186C4.91307 3.88118 4.55806 3.64804 4.40683 3.29986C4.30497 3.06526 4.253 3.05886 3.75389 3.21943C3.0636 3.44157 2.47733 3.96585 2.17029 4.63568C1.9445 5.12826 1.90563 5.39118 1.90563 6.42517V7.30732H9.07935H16.2531V6.42517C16.2531 5.39054 16.2142 5.1284 15.9876 4.63394C15.6814 3.96562 15.1246 3.46883 14.4065 3.22332C13.918 3.05626 13.8544 3.0637 13.7519 3.29986C13.6006 3.64804 13.2456 3.88118 12.8655 3.88186C12.5259 3.8825 12.0966 3.53163 12.0139 3.18568L11.9839 3.06009H9.07935H6.17475L6.14476 3.18568ZM4.82358 9.84866C4.2226 10.1537 4.11791 10.9594 4.6207 11.4102C5.10954 11.8485 5.80773 11.7192 6.09225 11.1376C6.28976 10.7339 6.22609 10.3363 5.91264 10.0166C5.60758 9.70545 5.22271 9.64607 4.82358 9.84866ZM8.69784 9.81295C7.98782 10.1415 7.94962 11.1668 8.63296 11.5534C9.04913 11.7888 9.57662 11.6563 9.85994 11.2453C10.0399 10.9842 10.0754 10.563 9.94006 10.2949C9.69328 9.80592 9.16005 9.59908 8.69784 9.81295ZM12.577 9.78788C12.4909 9.81578 12.3361 9.92461 12.2329 10.0297C11.9275 10.3408 11.8685 10.7331 12.0664 11.1376C12.3616 11.741 13.0917 11.8562 13.5651 11.3741C14.2855 10.6402 13.5566 9.47007 12.577 9.78788ZM4.97948 13.665C4.71454 13.7388 4.39849 14.0814 4.33102 14.3678C4.22529 14.8168 4.42212 15.2488 4.82573 15.4536C5.21939 15.6534 5.61265 15.5897 5.92107 15.276C6.60935 14.576 5.92309 13.4019 4.97948 13.665ZM8.87759 13.6504C8.40784 13.7737 8.1378 14.1258 8.1378 14.6147C8.1378 15.2806 8.83024 15.757 9.42826 15.5025C10.1731 15.1856 10.2293 14.1136 9.52062 13.7434C9.32316 13.6402 9.06074 13.6023 8.87759 13.6504ZM12.6768 13.6544C12.4201 13.7164 12.1922 13.9065 12.0664 14.1636C11.8686 14.5679 11.9275 14.9606 12.2324 15.2707C12.5463 15.5899 12.9366 15.6548 13.333 15.4536C13.9039 15.1638 14.0309 14.4527 13.6006 13.9547C13.4682 13.8015 13.3632 13.7304 13.193 13.679C12.9437 13.6036 12.8963 13.6013 12.6768 13.6544Z" fill="#373737"/>
</svg>
