<svg width="301" height="291" viewBox="0 0 301 291" fill="none" xmlns="http://www.w3.org/2000/svg">
<path fill-rule="evenodd" clip-rule="evenodd" d="M65.5118 1.17801C64.375 2.31244 64.3314 3.14117 64.3314 23.5603C64.3314 43.9794 64.375 44.8081 65.5118 45.9425C66.3776 46.8066 67.4789 47.1205 69.6431 47.1205H72.5941V53.0106C72.5941 56.2502 72.7564 58.9007 72.9547 58.9007C73.1524 58.9007 76.0963 56.2502 79.4965 53.0106L85.6782 47.1205H107.128C125.842 47.1205 128.697 47.0022 129.506 46.1952C130.316 45.3865 130.433 42.4815 130.433 23.2446C130.433 2.07154 130.389 1.19568 129.292 0.609622C128.546 0.212042 117.475 0 97.4213 0C67.4789 0 66.6621 0.0300393 65.5118 1.17801ZM171.6 0.636127C170.645 1.19097 170.567 2.90616 170.567 23.2528C170.567 42.4827 170.684 45.3865 171.494 46.1952C172.303 47.0027 175.163 47.1205 193.913 47.1205H215.405L221.532 53.0106C224.903 56.2502 227.828 58.9007 228.033 58.9007C228.238 58.9007 228.406 56.2502 228.406 53.0106V47.1205H231.357C233.521 47.1205 234.622 46.8066 235.488 45.9425C236.625 44.8081 236.669 43.9794 236.669 23.5603C236.669 3.14117 236.625 2.31244 235.488 1.17801C234.337 0.0294503 233.534 0.000588851 203.47 0.01767C183.625 0.0294502 172.264 0.249739 171.6 0.636127ZM73.5591 11.2341C71.4816 12.8645 71.3878 16.2984 73.3696 18.1567C74.7241 19.4266 74.9313 19.4372 97.8203 19.4372H120.905L122.128 17.8852C123.784 15.7848 123.694 13.2474 121.902 11.4591L120.454 10.0131H97.7837C75.7434 10.0131 75.0712 10.0473 73.5591 11.2341ZM179.098 11.4591C177.306 13.2474 177.216 15.7848 178.872 17.8852L180.095 19.4372H203.262H226.429L227.713 18.0743C229.584 16.0858 229.455 12.8144 227.441 11.2341C225.929 10.0473 225.257 10.0131 203.216 10.0131H180.546L179.098 11.4591ZM74.6598 27.7746C71.8097 29.3302 71.0944 32.9102 73.1318 35.4223L74.2597 36.8129L96.297 36.9843C108.417 37.078 118.925 37.0091 119.646 36.83C123.503 35.8723 124.583 31.1785 121.535 28.6193L119.72 27.0943L97.7796 27.112C83.043 27.1244 75.4524 27.3417 74.6598 27.7746ZM179.465 28.6193C176.417 31.1785 177.497 35.8723 181.354 36.83C182.076 37.0091 192.583 37.078 204.703 36.9843L226.74 36.8129L227.868 35.4223C228.993 34.0352 229.324 31.5778 228.63 29.7713C227.667 27.2681 226.01 27.0943 203.102 27.0943H181.281L179.465 28.6193ZM36.2971 59.687C32.2867 61.017 30.3556 62.2727 27.5751 65.3586C24.2866 69.0092 23.0176 72.5433 23.0176 78.054C23.0176 93.7711 41.9417 102.036 53.7232 91.4651C58.2777 87.3786 59.8418 83.8917 59.8766 77.7489C59.9002 73.5911 59.66 72.2458 58.4601 69.8126C56.6417 66.1248 53.0091 62.4689 49.459 60.7537C46.0388 59.1009 39.6293 58.5814 36.2971 59.687ZM254.018 59.7006C240.32 64.18 236.389 81.475 246.877 91.1223C250.207 94.1863 252.099 95.1594 256.157 95.8974C264.464 97.4076 272.393 93.4353 276.184 85.8642C277.686 82.865 277.982 81.5774 277.982 78.054C277.982 75.7257 277.557 72.5921 277.035 71.0596C275.723 67.2192 271.12 62.3399 267.223 60.6606C263.44 59.0303 257.409 58.5915 254.018 59.7006ZM117.977 68.9809C117.131 69.2908 116.135 70.2102 115.763 71.0236C115.284 72.0744 115.088 81.4655 115.088 103.437C115.088 134.317 115.194 136.111 117.095 137.377C117.955 137.95 183.053 137.938 183.956 137.365C184.342 137.12 184.94 136.18 185.284 135.274C186.19 132.898 186.148 73.0215 185.24 71.0325C184.259 68.8838 181.882 68.3248 173.725 68.3248H166.435V82.1959C166.435 98.939 166.086 100.131 161.179 100.131C160.136 100.131 158.016 98.9785 155.222 96.8916C152.835 95.1099 150.711 93.6521 150.5 93.6521C150.289 93.6521 148.165 95.1099 145.778 96.8916C142.984 98.9785 140.864 100.131 139.821 100.131C134.914 100.131 134.565 98.939 134.565 82.1959V68.3248L127.04 68.3713C122.901 68.3967 118.823 68.6711 117.977 68.9809ZM144.598 79.5159V85.4054L147.549 83.7862L150.5 82.1665L153.451 83.7862L156.402 85.4054V79.5159V73.6259H150.5H144.598V79.5159ZM34.8782 108.642C28.7485 110.629 23.4137 115.925 21.1945 122.226C20.1463 125.203 20.0667 127.363 20.0667 152.833V180.236H41.6088H63.151V177.708V175.179L48.4238 163.131C40.324 156.503 33.4246 150.486 33.0923 149.758C32.3764 148.189 33.0368 146.088 34.798 144.33C37.3393 141.794 38.4306 142.4 53.4092 154.654C61.1573 160.994 68.232 166.56 69.1309 167.023C70.4411 167.7 74.2354 167.867 88.2721 167.867C105.011 167.867 105.877 167.812 108.004 166.619C114.201 163.144 114.168 154.739 107.944 151.08C106.12 150.008 104.569 149.876 90.5951 149.608L75.25 149.313L69.2005 144.333L63.151 139.351V133.958C63.151 121.569 59.6836 114.631 51.2414 110.131C47.98 108.393 46.8799 108.122 42.4941 107.971C39.2988 107.862 36.5337 108.105 34.8782 108.642ZM253.102 108.581C246.752 110.928 241.715 115.64 239.563 121.249C238.59 123.787 238.217 126.335 237.992 132.003L237.698 139.433L231.724 144.373L225.75 149.313L210.405 149.608C196.431 149.876 194.88 150.008 193.056 151.08C190.243 152.734 188.782 154.928 188.432 158.023C188.047 161.435 189.868 164.865 192.996 166.619C195.123 167.812 195.989 167.867 212.728 167.867C226.94 167.867 230.549 167.705 231.905 167.005C232.824 166.531 239.899 160.965 247.629 154.636C262.01 142.86 263.358 142.058 265.745 143.865C267.495 145.19 268.488 147.812 267.887 149.523C267.537 150.518 262.013 155.439 252.594 163.145L237.849 175.21V177.723V180.236H259.418H280.986L280.812 151.817L280.638 123.397L278.976 120.017C276.857 115.711 272.996 111.858 268.68 109.743C265.902 108.381 264.392 108.056 260.276 107.933C257.154 107.84 254.445 108.085 253.102 108.581ZM3.8888 141.407L2.36078 143.219V179.987V216.755H27.8378C41.8496 216.755 53.2038 216.646 53.0687 216.513C52.9335 216.38 48.7059 214.635 43.6745 212.635C33.7061 208.672 32.4136 207.992 26.2637 203.487C19.7161 198.689 13.7179 193.243 11.8004 190.353L10.0333 187.691V164.001C10.0333 142.941 9.92946 140.27 9.09964 139.952C7.06465 139.173 5.37492 139.644 3.8888 141.407ZM291.36 139.987C291.144 140.203 290.967 151.041 290.967 164.072V187.765L288.994 190.627C286.805 193.801 277.552 201.836 271.334 205.962C269.094 207.448 263.065 210.328 257.743 212.455C252.482 214.558 248.066 216.386 247.931 216.517C247.796 216.647 259.15 216.755 273.162 216.755H298.639V179.987V143.219L297.111 141.407C295.983 140.069 295.082 139.595 293.669 139.595C292.615 139.595 291.576 139.771 291.36 139.987ZM93.8412 236.192V290.969H110.957H128.073V267.704V244.438H150.5H172.927V267.704V290.969H190.043H207.159V236.192V181.414H150.5H93.8412V236.192ZM26.8539 191.703C34.9797 198.352 37.4863 199.67 56.2061 207.136C66.3557 211.184 74.867 214.694 75.1208 214.936C75.3739 215.179 77.429 219.464 79.6877 224.459L83.7937 233.541L83.7848 215.577L83.776 197.612L77.547 193.93L71.3181 190.249L48.2007 190.252L25.0833 190.255L26.8539 191.703ZM223.257 193.981L217.223 197.612L217.215 215.577L217.206 233.541L221.312 224.459C223.571 219.464 225.626 215.179 225.879 214.936C226.133 214.694 234.644 211.184 244.794 207.136C263.514 199.67 266.02 198.352 274.146 191.703L275.917 190.255L252.604 190.303L229.291 190.351L223.257 193.981ZM23.4691 244.291L23.3127 261.814L14.4598 262.108C5.00309 262.423 4.06114 262.682 1.53923 265.674L0 267.499V279.235V290.969H8.85294H17.7059V285.374V279.778H31.8706H46.0353V285.374V290.969H54.9219H63.8085L63.6273 278.903L63.4461 266.837L61.2246 264.62L59.0031 262.403L49.7158 262.108L40.4284 261.814L40.272 244.291L40.1156 226.768H31.8706H23.6255L23.4691 244.291ZM260.728 244.291L260.572 261.814L251.232 262.108L241.892 262.403L239.631 264.823C237.654 266.941 237.322 267.715 236.984 271.008C236.771 273.078 236.68 278.35 236.781 282.723L236.964 290.675L245.964 290.837L254.965 291V285.389V279.778H269.129H283.294V285.374V290.969H292.147H301V279.166V267.364L298.683 264.883L296.366 262.403L287.027 262.108L277.687 261.814L277.531 244.291L277.374 226.768H269.129H260.884L260.728 244.291Z" fill="#373737"/>
</svg>
