<svg width="642" height="526" viewBox="0 0 642 526" fill="none" xmlns="http://www.w3.org/2000/svg">
<path fill-rule="evenodd" clip-rule="evenodd" d="M191.805 54.367C177.526 56.9239 157.343 63.9618 143.822 71.1001C112.946 87.3995 87.2911 114.202 72.5616 145.547C55.3308 182.212 52.5858 228.26 65.4046 265.566C67.1513 270.647 68.5795 274.949 68.5795 275.128C68.5795 275.308 40.9748 274.777 36.6631 275.289C26.887 276.448 22.9081 278.883 19.6855 285.682C16.5361 292.326 17.7478 297.678 23.7631 303.7C28.2595 308.202 28.64 308.278 46.3708 308.289L88.482 309.396L92.0135 314.565C93.956 317.409 140.886 365.023 196.303 420.374C291.246 515.204 297.551 521.17 305.554 523.762C316.74 527.386 332.716 526.527 342.459 521.779C347.704 519.224 377.752 490.089 453.678 413.942L557.709 309.603L580.775 309.09C603.808 308.576 626.115 308.57 629.948 304.103C635.648 297.462 635.293 287.504 629.145 281.608C625.006 277.635 600.767 277.065 588.569 276.303C581.051 275.832 574.9 275.303 574.9 275.126C574.9 274.948 576.328 270.647 578.075 265.566C584.168 247.832 586.468 230.401 585.646 208.149C584.7 182.485 580.732 166.12 570.189 144.386C549.18 101.08 511.475 70.0416 464.242 57.1726C447.683 52.6614 414.062 51.5997 395.981 55.0158C371.611 59.6211 346.682 70.3078 329.263 83.6199L322.308 88.9362L308.827 79.8882C293.854 69.8391 276.782 62.178 258.33 57.2268C244.475 53.5094 205.866 51.85 191.805 54.367ZM200.981 86.2247C187.447 88.1152 172.374 93.1988 156.947 101.074C146.918 106.194 140.802 110.981 128.184 123.59C113.855 137.908 111.295 141.377 104.004 156.342C93.6105 177.675 90.1109 192.999 90.3545 216.12C90.5551 235.12 93.773 250.459 100.97 266.732L105.025 275.898L193.567 275.832L207.897 248.368C220.563 224.092 222.904 220.57 228.059 218.047C234.939 214.68 240.416 215.592 245.653 220.978C247.656 223.038 260.343 248.454 273.846 277.458C287.35 306.463 298.949 329.632 299.624 328.949C300.298 328.265 313.08 291.838 328.029 248.001C351.5 179.174 355.861 167.7 359.994 163.914C366.052 158.363 373.99 158.044 379.82 163.117C384.204 166.93 386.543 172.432 410.975 236.419L426.029 275.845L538.455 275.898L542.51 266.732C550.089 249.597 552.992 235.241 553.063 214.526C553.146 190.887 550.361 178.829 539.814 157.139C526.997 130.784 507.98 111.735 481.756 98.99C460.063 88.4468 448.025 85.6651 424.437 85.748C393.906 85.8548 366.522 95.2041 345.099 112.836C321.28 132.442 322.2 132.442 298.381 112.836C273.595 92.4352 233.989 81.6146 200.981 86.2247ZM344.18 301.91C329.814 344.153 317.084 380.676 315.893 383.072C311.198 392.508 297.253 394.687 290.378 387.061C288.612 385.102 277.279 362.337 265.194 336.473C253.108 310.609 241.079 284.883 238.461 279.306L233.701 269.164L225.241 285.682C212.346 310.857 215.807 309.373 169.995 309.373H131.475L223.388 401.395C314.553 492.667 315.355 493.418 321.737 493.418C328.118 493.418 328.924 492.662 419.7 401.793L511.228 310.17L459.515 309.373C410.141 308.613 407.655 308.43 404.555 305.323C402.769 303.534 394.816 285.242 386.882 264.674C378.946 244.107 371.971 226.789 371.378 226.191C370.786 225.593 358.547 259.667 344.18 301.91Z" fill="#21C694"/>
<path fill-rule="evenodd" clip-rule="evenodd" d="M106.068 18.96C101.875 19.5824 87.6469 27.9583 76.6423 36.2825C57.0178 51.1263 40.1668 69.4429 27.4525 89.749C14.6954 110.125 2.70308 140.051 3.94409 148.412C5.87045 161.386 22.0474 166.735 31.2986 157.457C33.6152 155.135 34.4424 153.404 37.6227 144.226C46.3207 119.12 56.7815 101.235 73.4732 82.9278C84.595 70.7302 94.8204 62.4472 113.221 50.7307C118.956 47.0786 120.994 45.3215 122.421 42.7969C128.863 31.3989 119.011 17.0381 106.068 18.96Z" fill="#21C694"/>
<path fill-rule="evenodd" clip-rule="evenodd" d="M535.235 18.96C539.428 19.5824 553.656 27.9583 564.66 36.2825C584.285 51.1263 601.136 69.4429 613.85 89.749C626.607 110.125 638.6 140.051 637.359 148.412C635.432 161.386 619.255 166.735 610.004 157.457C607.688 155.135 606.86 153.404 603.68 144.226C594.982 119.12 584.521 101.235 567.83 82.9278C556.708 70.7302 546.482 62.4472 528.082 50.7307C522.346 47.0786 520.309 45.3215 518.882 42.7969C512.44 31.3989 522.292 17.0381 535.235 18.96Z" fill="#21C694"/>
</svg>
