<svg viewBox="0 0 430 430" xmlns="http://www.w3.org/2000/svg">
  <path d="M110.552 0.984375H319.448L335.832 4.05638L349.144 11.2244L359.384 20.4404L368.6 30.6804L379.864 45.0164L391.128 59.3524L404.44 75.7364L415.704 90.0724L422.872 98.2644L425.944 103.384L429.016 117.72V371.672L425.944 388.056L418.776 401.368L409.56 411.608L401.368 418.776L388.056 425.944L371.672 429.016H58.328L41.944 425.944L28.632 418.776L18.392 409.56L11.224 401.368L4.05601 388.056L0.984009 371.672V117.72L4.05601 104.408L10.2 94.1684L14.296 89.0484L19.416 83.9284L32.728 67.5444L43.992 53.2084L55.256 38.8724L68.568 22.4884L77.784 13.2724L92.12 5.08038L104.408 2.00838L110.552 0.984375ZM113.624 45.0164L105.432 49.1124L95.192 60.3764L81.88 77.7844L77.784 83.9284L72.664 89.0484L63.448 100.312V105.432L66.52 107.48H363.48L366.552 105.432V100.312L355.288 87.0004L350.168 79.8324L346.072 75.7364L337.88 64.4724L326.616 51.1604L321.496 47.0644L316.376 45.0164H113.624ZM210.904 173.016L202.712 177.112L196.568 184.28L194.52 190.424V303.064L186.328 296.92L181.208 291.8L174.04 283.608L167.896 280.536L160.728 279.512L151.512 282.584L145.368 287.704L141.272 295.896V304.088L145.368 312.28L168.92 335.832L176.088 344.024L186.328 353.24L193.496 359.384L205.784 364.504L218.072 365.528L230.36 362.456L240.6 356.312L252.888 345.048L283.608 314.328L288.728 304.088V295.896L284.632 287.704L276.44 281.56L273.368 280.536H262.104L255.96 283.608L250.84 288.728L243.672 296.92L235.48 303.064V190.424L232.408 182.232L224.216 175.064L219.096 173.016H210.904Z"/>
</svg>

