<svg width="99" height="90" viewBox="0 0 99 90" fill="none" xmlns="http://www.w3.org/2000/svg">
<rect x="41" y="20" width="18" height="58" fill="white"/>
<path fill-rule="evenodd" clip-rule="evenodd" d="M46.8266 0.423241C44.9227 1.1193 43.5877 2.20312 42.4553 3.97197C41.0193 6.21571 1.38792 76.5144 0.65346 78.1209C-0.127177 79.8287 -0.219815 82.5877 0.437214 84.5599C1.03756 86.3619 2.75286 88.2569 4.64347 89.2064L6.22355 90H49.5001H92.7767L94.3567 89.2064C96.2473 88.2569 97.9626 86.3619 98.563 84.5599C99.2195 82.5897 99.1271 79.829 98.3481 78.1209C97.0067 75.1808 56.3212 3.41026 55.4916 2.52103C53.4243 0.305298 49.6491 -0.608542 46.8266 0.423241ZM51.2912 26.8188C52.7009 27.2193 54.3308 28.8864 54.7223 30.3283C55.1374 31.8578 55.1424 54.7777 54.7279 56.3426C53.5747 60.6949 46.9796 61.4684 44.7626 57.5113L44.1078 56.3426L44.0276 43.9697C43.9737 35.6113 44.0464 31.222 44.2519 30.4417C45.022 27.516 48.1241 25.9197 51.2912 26.8188ZM52.0953 68.2245C53.3032 68.8117 54.5932 70.6498 54.875 72.1853C55.2665 74.321 53.9533 76.9545 51.9839 77.982C49.7611 79.142 46.7144 78.4694 45.2554 76.4972C44.3962 75.3356 43.88 73.3933 44.1211 72.2283C44.9117 68.4052 48.6285 66.5391 52.0953 68.2245Z" fill="#FFB200"/>
</svg>
