<svg width="426" height="426" viewBox="0 0 426 426" xmlns="http://www.w3.org/2000/svg">
  <path d="M375.6 0.222656H388.912L401.2 4.31866L410.416 10.4627L417.584 17.6307L423.728 29.9187L425.776 38.1107V50.3987L421.68 65.7587L406.32 114.911L397.104 143.583L390.96 163.039L386.864 179.423L368.432 237.791L351.024 293.087L348.976 299.231L346.928 309.471L328.496 367.839L319.28 397.535L313.136 408.799L306.992 414.943H304.944V416.991L292.656 423.135L282.416 425.183H273.2L260.912 422.111L248.624 414.943L240.432 405.727L224.048 372.959L212.784 349.407L188.208 301.279L167.728 259.295L148.272 249.055L112.432 231.647L66.352 208.095L26.416 188.639L16.176 182.495L9.008 174.303L2.864 162.015L0.816002 152.799V143.583L3.888 131.295L9.008 121.055H11.056L13.104 116.959L20.272 110.815L31.536 105.695L77.616 91.3586L103.216 83.1667L119.6 78.0467L129.84 75.9987L174.896 61.6627L228.144 45.2787L249.648 38.1107L269.104 32.9907L309.04 20.7027L334.64 12.5107L370.48 1.24666L375.6 0.222656ZM376.624 46.3027L347.952 55.5187L298.8 70.8787L292.656 72.9267L282.416 74.9747L237.36 89.3107L214.832 96.4786L168.752 110.815L152.368 115.935L135.984 120.031L68.4 141.535L47.92 147.679L50.992 150.751L75.568 163.039L82.736 166.111L99.12 174.303L133.936 191.711L153.392 201.951L161.584 206.047L168.752 209.119L178.992 214.239L183.088 212.191L187.184 208.095V206.047L191.28 203.999L200.496 193.759L212.784 181.471L220.976 174.303L229.168 166.111V164.063L233.264 162.015L244.528 149.727L255.792 138.463L257.84 137.439V135.391H259.888V133.343H261.936V131.295H263.984V129.247H266.032V127.199H268.08V125.151L271.152 124.127L276.272 119.007L283.44 115.935H294.704L301.872 119.007L306.992 124.127L310.064 131.295V142.559L305.968 150.751L296.752 160.991L211.76 245.983L218.928 260.319L223.024 270.559L233.264 291.039L243.504 310.495L257.84 339.167L261.936 346.335L266.032 356.575L276.272 377.055H278.32L288.56 345.311L306.992 286.943L313.136 263.391L321.328 237.791L330.544 208.095L340.784 176.351L352.048 140.511L354.096 131.295L370.48 78.0467L379.696 49.3747V46.3027H376.624Z"/>
</svg>

