<svg width="28" height="28" viewBox="0 0 28 28" fill="none" xmlns="http://www.w3.org/2000/svg">
<path fill-rule="evenodd" clip-rule="evenodd" d="M10.6607 0.58841C10.7973 0.368854 11.051 0.150939 11.273 0.062438C11.7349 -0.121729 12.3895 0.117354 12.6671 0.571563C12.8207 0.822789 12.8329 0.882847 12.8505 1.47407L12.8695 2.10742L12.5279 2.65002C11.9297 3.60039 11.5132 4.63789 11.2637 5.7995C11.1579 6.29156 11.1399 6.54235 11.1377 7.54982C11.1349 8.85376 11.2206 9.46025 11.55 10.4667C11.7796 11.1685 12.4061 12.4031 12.845 13.0189C13.3189 13.6838 14.3293 14.6933 14.9948 15.1668C15.6087 15.6036 16.8422 16.2272 17.5523 16.4598C18.2521 16.6889 19.1191 16.8479 19.8823 16.887L20.5276 16.92L20.722 17.3081C21.0867 18.0363 21.5172 18.6107 22.3061 19.4212C23.2227 20.3628 23.3359 20.5706 23.3329 21.3063C23.3294 22.188 22.8167 22.9161 21.9811 23.226C21.7092 23.3269 21.393 23.3301 11.6546 23.3301H1.60857L1.29394 23.2031C0.344244 22.82 -0.206235 21.72 0.0724267 20.7623C0.205516 20.305 0.33992 20.1217 1.10002 19.3615C2.09992 18.3615 2.70093 17.4006 3.11126 16.1461C3.43142 15.1672 3.45446 14.9226 3.49826 12.035C3.53478 9.62762 3.54912 9.33526 3.65325 8.87514C4.02843 7.21781 4.73455 5.92585 5.90373 4.75779C7.06222 3.60033 8.46894 2.82926 9.9764 2.52541L10.4775 2.42439L10.5049 1.60956C10.5296 0.876721 10.5452 0.773889 10.6607 0.58841ZM7.94097 25.9164C7.739 25.574 7.47365 24.9517 7.41414 24.681L7.37565 24.5061H11.6725H15.9692L15.8871 24.8206C15.6916 25.5697 15.1263 26.438 14.4847 26.9748C13.055 28.1712 11.1062 28.3333 9.45209 27.3933C8.97869 27.1243 8.21065 26.3737 7.94097 25.9164Z" fill="#143886"/>
<path fill-rule="evenodd" clip-rule="evenodd" d="M10.6607 0.58841C10.7973 0.368854 11.051 0.150939 11.273 0.062438C11.7349 -0.121729 12.3895 0.117354 12.6671 0.571563C12.8207 0.822789 12.8329 0.882847 12.8505 1.47407L12.8695 2.10742L12.5279 2.65002C11.9297 3.60039 11.5132 4.63789 11.2637 5.7995C11.1579 6.29156 11.1399 6.54235 11.1377 7.54982C11.1349 8.85376 11.2206 9.46025 11.55 10.4667C11.7796 11.1685 12.4061 12.4031 12.845 13.0189C13.3189 13.6838 14.3293 14.6933 14.9948 15.1668C15.6087 15.6036 16.8422 16.2272 17.5523 16.4598C18.2521 16.6889 19.1191 16.8479 19.8823 16.887L20.5276 16.92L20.722 17.3081C21.0867 18.0363 21.5172 18.6107 22.3061 19.4212C23.2227 20.3628 23.3359 20.5706 23.3329 21.3063C23.3294 22.188 22.8167 22.9161 21.9811 23.226C21.7092 23.3269 21.393 23.3301 11.6546 23.3301H1.60857L1.29394 23.2031C0.344244 22.82 -0.206235 21.72 0.0724267 20.7623C0.205516 20.305 0.33992 20.1217 1.10002 19.3615C2.09992 18.3615 2.70093 17.4006 3.11126 16.1461C3.43142 15.1672 3.45446 14.9226 3.49826 12.035C3.53478 9.62762 3.54912 9.33526 3.65325 8.87514C4.02843 7.21781 4.73455 5.92585 5.90373 4.75779C7.06222 3.60033 8.46894 2.82926 9.9764 2.52541L10.4775 2.42439L10.5049 1.60956C10.5296 0.876721 10.5452 0.773889 10.6607 0.58841ZM7.94097 25.9164C7.739 25.574 7.47365 24.9517 7.41414 24.681L7.37565 24.5061H11.6725H15.9692L15.8871 24.8206C15.6916 25.5697 15.1263 26.438 14.4847 26.9748C13.055 28.1712 11.1062 28.3333 9.45209 27.3933C8.97869 27.1243 8.21065 26.3737 7.94097 25.9164Z" fill="black" fill-opacity="0.2"/>
<path fill-rule="evenodd" clip-rule="evenodd" d="M19.5929 0.035855C16.2902 0.451994 13.6861 2.83708 12.9833 6.08984C12.9083 6.43651 12.8868 6.78559 12.8882 7.63187C12.8899 8.62983 12.9028 8.77642 13.035 9.30255C13.5384 11.3055 14.6545 12.8766 16.3538 13.9748C17.6688 14.8245 19.0523 15.1932 20.7132 15.1363C21.9224 15.0949 22.7245 14.903 23.7263 14.4154C25.8807 13.3668 27.3736 11.4359 27.8926 9.02666C28.0357 8.36203 28.0358 6.8375 27.8928 6.15504C27.5854 4.68854 26.9219 3.4142 25.9198 2.36553C25.2783 1.69434 24.6427 1.2241 23.8358 0.823828C22.6718 0.246495 21.9177 0.0597578 20.6331 0.0308228C20.1664 0.0203209 19.6983 0.0226182 19.5929 0.035855ZM18.5888 6.07332C18.2132 5.62742 18.4462 4.8738 19.0101 4.71058C19.2581 4.63876 20.6503 4.63986 20.9374 4.71206C21.2243 4.78426 21.4751 5.0397 21.5605 5.34677C21.6399 5.63267 21.6382 10.128 21.5585 10.4214C21.3925 11.0326 20.6678 11.2696 20.1675 10.8764C19.8764 10.6476 19.8666 10.5673 19.8666 8.39939V6.40117H19.4533C18.9907 6.40117 18.8058 6.33105 18.5888 6.07332Z" fill="#143886"/>
<path fill-rule="evenodd" clip-rule="evenodd" d="M19.5929 0.035855C16.2902 0.451994 13.6861 2.83708 12.9833 6.08984C12.9083 6.43651 12.8868 6.78559 12.8882 7.63187C12.8899 8.62983 12.9028 8.77642 13.035 9.30255C13.5384 11.3055 14.6545 12.8766 16.3538 13.9748C17.6688 14.8245 19.0523 15.1932 20.7132 15.1363C21.9224 15.0949 22.7245 14.903 23.7263 14.4154C25.8807 13.3668 27.3736 11.4359 27.8926 9.02666C28.0357 8.36203 28.0358 6.8375 27.8928 6.15504C27.5854 4.68854 26.9219 3.4142 25.9198 2.36553C25.2783 1.69434 24.6427 1.2241 23.8358 0.823828C22.6718 0.246495 21.9177 0.0597578 20.6331 0.0308228C20.1664 0.0203209 19.6983 0.0226182 19.5929 0.035855ZM18.5888 6.07332C18.2132 5.62742 18.4462 4.8738 19.0101 4.71058C19.2581 4.63876 20.6503 4.63986 20.9374 4.71206C21.2243 4.78426 21.4751 5.0397 21.5605 5.34677C21.6399 5.63267 21.6382 10.128 21.5585 10.4214C21.3925 11.0326 20.6678 11.2696 20.1675 10.8764C19.8764 10.6476 19.8666 10.5673 19.8666 8.39939V6.40117H19.4533C18.9907 6.40117 18.8058 6.33105 18.5888 6.07332Z" fill="#D2281E"/>
</svg>
