<svg width="21" height="20" viewBox="0 0 21 20" fill="none" xmlns="http://www.w3.org/2000/svg">
<path fill-rule="evenodd" clip-rule="evenodd" d="M7.90695 0.0672368C7.66895 0.200748 7.60715 0.358668 7.59215 0.871373L7.57883 1.32708H6.05508C4.3709 1.32708 4.35285 1.32979 4.17695 1.61042C4.0932 1.74407 4.08938 1.79288 4.0782 2.87204L4.06656 3.99464H12.2911H20.5156V2.92584C20.5156 1.9424 20.5093 1.84303 20.437 1.6816C20.3864 1.56863 20.3034 1.4742 20.2041 1.41658C20.0574 1.33139 19.9763 1.32708 18.525 1.32708H17V0.925169C17 0.61013 16.983 0.485377 16.9214 0.34782C16.7682 0.00610528 16.3497 -0.106066 16.0709 0.119877C15.8866 0.269216 15.8281 0.462658 15.8281 0.922546V1.32708H14.3438H12.8594V0.925169C12.8594 0.61013 12.8424 0.485377 12.7807 0.34782C12.6276 0.00610528 12.2091 -0.106066 11.9303 0.119877C11.746 0.269216 11.6875 0.462658 11.6875 0.922546V1.32708H10.2227H8.75781V0.925169C8.75781 0.61013 8.74082 0.485377 8.67918 0.34782C8.54051 0.0384717 8.18715 -0.0899269 7.90695 0.0672368ZM4.01898 5.87305C3.91262 8.25522 3.22414 10.8227 2.17398 12.7531C1.8425 13.3625 1.31625 14.142 0.952227 14.5628C0.606992 14.9618 0.515625 15.1227 0.515625 15.3313C0.515625 15.5523 0.653672 15.8085 0.827109 15.9092C0.980078 15.998 1.04102 15.9987 8.75781 15.9987C16.3263 15.9987 16.5382 15.9964 16.6793 15.914C16.9844 15.7359 17.6993 14.7951 18.269 13.8223C19.5262 11.6756 20.3454 8.72525 20.4638 5.91751L20.4887 5.32842H12.266H4.04332L4.01898 5.87305ZM20.402 12.1569C19.8748 13.6284 18.8767 15.3605 17.9376 16.4337C17.5345 16.8945 17.3416 17.0599 17.0338 17.2088L16.8242 17.3102L10.4473 17.322L4.07031 17.3337V18.4019C4.07031 19.3847 4.0766 19.4841 4.14895 19.6455C4.19957 19.7585 4.28254 19.8529 4.3818 19.9105C4.53477 19.9993 4.59574 20 12.293 20C19.9902 20 20.0512 19.9993 20.2041 19.9105C20.3035 19.8528 20.3864 19.7585 20.4372 19.645C20.5147 19.472 20.5159 19.4048 20.5061 15.6816L20.4961 11.8942L20.402 12.1569Z" fill="#143886"/>
</svg>
