<svg width="15" height="16" viewBox="0 0 15 16" fill="none" xmlns="http://www.w3.org/2000/svg">
<path fill-rule="evenodd" clip-rule="evenodd" d="M12.711 0.535391C12.46 0.591584 12.0815 0.779452 11.9009 0.937362C11.7944 1.03046 7.0107 6.22209 5.07772 8.34231L4.90896 8.52742L4.47968 9.80899C4.09128 10.9686 4.05042 11.11 4.05045 11.2947C4.05051 11.8526 4.56522 12.2763 5.09905 12.158C5.29645 12.1142 7.54009 11.1396 7.69571 11.03C7.79059 10.9632 13.7819 4.46315 14.5462 3.59785C14.9446 3.1467 15.102 2.44242 14.9325 1.86855C14.7604 1.28598 14.2747 0.786165 13.6913 0.591261C13.4047 0.495525 12.9936 0.472074 12.711 0.535391ZM13.3446 1.83622C13.6623 1.97989 13.8063 2.39921 13.6299 2.6669C13.5517 2.78547 7.87567 8.96328 7.84488 8.96328C7.83018 8.96328 7.62637 8.78922 7.39194 8.57646L6.96575 8.18968L7.07996 8.07081C7.14276 8.00544 8.44756 6.58528 9.9795 4.91487C12.1634 2.53358 12.7892 1.8677 12.8778 1.83118C13.0282 1.76912 13.2003 1.771 13.3446 1.83622ZM2.62697 1.9015C1.94302 1.97338 1.29973 2.28867 0.818391 2.78793C0.442689 3.17762 0.205555 3.60776 0.064247 4.15592L0 4.40508V8.69946V12.9938L0.0811263 13.2867C0.354434 14.2735 1.05706 15.0249 2.01004 15.3493C2.45506 15.5008 2.42622 15.4999 6.88186 15.5C10.4429 15.5001 11.0599 15.4939 11.2791 15.4559C12.5599 15.2336 13.5375 14.2224 13.711 12.9404C13.7309 12.7931 13.742 11.6916 13.742 9.85888C13.742 6.68928 13.752 6.85308 13.5438 6.64077C13.2947 6.38677 12.8944 6.38504 12.6413 6.63687C12.448 6.82931 12.462 6.5951 12.4458 9.88664L12.4311 12.8766L12.3653 13.0692C12.1988 13.5562 11.7884 13.9645 11.2991 14.1302L11.1055 14.1957L6.95199 14.2039C2.36168 14.213 2.58116 14.2211 2.18846 14.0276C1.93427 13.9024 1.58691 13.5548 1.46278 13.3016C1.27531 12.9192 1.28244 13.1013 1.28244 8.6848C1.28244 4.255 1.27407 4.46081 1.46946 4.07472C1.66553 3.68729 2.02032 3.38806 2.45971 3.23959C2.65118 3.17487 2.65124 3.17487 5.74423 3.15974C9.15142 3.14309 8.90904 3.15725 9.09347 2.96402C9.26439 2.78497 9.31279 2.49125 9.20886 2.26358C9.13242 2.09611 8.9372 1.93858 8.75892 1.90053C8.58412 1.86325 2.98273 1.86413 2.62697 1.9015ZM6.78939 9.77652L6.98027 9.95146L6.89063 9.99757C6.67895 10.1065 5.63409 10.5489 5.62048 10.5354C5.60572 10.5207 6.00655 9.291 6.05937 9.18896C6.08809 9.13344 6.0845 9.13054 6.78939 9.77652Z" fill="#143886"/>
</svg>
