<svg width="142" height="143" viewBox="0 0 142 143" fill="none" xmlns="http://www.w3.org/2000/svg">
<path fill-rule="evenodd" clip-rule="evenodd" d="M58.9592 0.851652C56.8047 0.40432 53.8977 0.129038 50.4094 0.0258077C47.5025 -0.0430126 44.0484 0.0258072 42.7147 0.232268C41.4151 0.404319 38.7818 0.954881 36.9008 1.43662C35.0199 1.91837 32.0103 2.91626 30.232 3.67328C28.4536 4.43031 25.6151 5.87553 23.9052 6.90784C22.2294 7.90573 19.5961 9.72947 18.0913 10.9682C16.5866 12.1726 14.3294 14.306 13.0298 15.7168C11.7645 17.1277 9.81514 19.5708 8.72077 21.1881C7.62639 22.8053 6.01904 25.5237 5.16406 27.2098C4.30908 28.8959 3.04372 31.924 2.39394 33.9198C1.74415 35.9156 0.923376 39.0125 0.615584 40.8018C0.205196 42.9697 0 45.8257 0 49.4044C0 52.983 0.205196 55.8391 0.615584 58.0069C0.923376 59.7962 1.70996 62.8243 2.32554 64.7169C2.97532 66.6095 4.20649 69.6375 5.09566 71.4269C5.98484 73.2162 7.3528 75.6249 8.10518 76.7605C8.85756 77.896 10.4991 80.0638 11.7645 81.5779C12.9957 83.0919 15.3212 85.4318 16.9285 86.7738C18.5017 88.1158 20.793 89.8707 22.0242 90.6966C23.2554 91.5224 25.7177 92.9332 27.4961 93.8279C29.2744 94.7226 32.2155 95.9269 33.9939 96.4775C35.7722 97.0624 38.5424 97.7851 40.1497 98.0948C41.7571 98.37 44.7324 98.7141 46.8185 98.8518C48.9731 98.955 52.1194 98.8862 54.1713 98.6453C56.1549 98.4044 59.2328 97.8539 61.0112 97.4065C62.7895 96.9592 65.4912 96.099 66.996 95.514C68.5008 94.8946 70.5869 93.9655 71.6129 93.4494C72.6388 92.9332 74.9302 91.5224 76.7085 90.3181L79.8891 88.1158L90.9354 99.2991C86.5921 103.669 85.8739 104.633 85.6345 105.665C85.4293 106.56 85.4293 107.523 85.6687 108.418C85.9765 109.588 88.131 111.928 100.614 124.522C108.65 132.608 116.003 139.731 116.927 140.35C117.884 140.935 119.628 141.796 120.86 142.209C122.399 142.759 123.869 143 125.647 143C127.255 143 128.896 142.759 130.093 142.381C131.119 142.002 132.658 141.383 133.513 140.935C134.368 140.488 135.941 139.284 137.036 138.217C138.267 137.047 139.464 135.43 140.148 134.053C140.763 132.815 141.482 130.888 141.721 129.752C141.96 128.548 142.063 126.69 141.96 125.279C141.858 123.937 141.413 121.907 140.969 120.737C140.558 119.567 139.532 117.709 138.746 116.607C137.959 115.506 131.017 108.315 123.356 100.607C111.865 89.1137 109.163 86.5673 108.035 86.2232C107.214 85.948 106.12 85.8791 105.299 86.0512C104.205 86.2577 103.384 86.8426 101.263 88.9416L98.5959 91.5568L87.5154 80.4423C90.9012 75.4529 92.4401 72.8377 93.1583 71.4269C93.8765 70.0161 94.9024 67.5385 95.4838 65.9213C96.031 64.304 96.8518 61.3791 97.2964 59.3833C98.0146 56.2864 98.1172 54.8412 98.1172 49.4044C98.1172 44.5525 97.9804 42.3503 97.5016 40.1136C97.1596 38.4964 96.373 35.6403 95.7574 33.7478C95.1076 31.8552 93.9449 28.9992 93.1583 27.3819C92.3375 25.7646 91.3115 23.8376 90.7986 23.0806C90.3198 22.3236 88.986 20.4654 87.8232 18.9514C86.6947 17.4373 84.4375 14.9598 82.8302 13.4458C81.257 11.9317 78.5895 9.72947 76.9137 8.59394C75.2038 7.42399 72.6046 5.84112 71.0999 5.0841C69.5951 4.32708 66.9618 3.22595 65.286 2.64098C63.6103 2.0216 60.7376 1.23016 58.9592 0.851652ZM31.6 15.2007C33.5835 14.2028 36.3536 13.0328 37.7558 12.5855C39.1579 12.1726 41.4835 11.622 42.8856 11.3812C44.2878 11.1403 46.8869 10.9338 48.6311 10.8994C50.341 10.865 52.9744 11.0371 54.4449 11.2435C55.8813 11.45 58.3778 12.0005 59.9852 12.4823C61.5925 12.9296 64.0549 13.8587 65.457 14.5125C66.8592 15.2007 69.1163 16.4395 70.4159 17.3341C71.7497 18.2288 74.0068 20.1213 75.5116 21.5322C76.9821 22.943 78.9315 25.1108 79.8207 26.3496C80.744 27.5883 82.0778 29.7562 82.8302 31.167C83.5825 32.5778 84.6769 35.0553 85.2241 36.6726C85.7713 38.2899 86.4895 41.0771 86.7973 42.8664C87.1051 44.6558 87.3444 47.6151 87.3444 49.4044C87.3444 51.1937 87.1051 54.0842 86.8315 55.7703C86.5237 57.4564 85.9765 59.8651 85.5661 61.1038C85.1899 62.3426 84.4033 64.3384 83.8561 65.5772C83.309 66.8159 82.0094 69.1214 80.9492 70.7387C79.889 72.356 77.7345 75.0055 76.093 76.6228C74.4856 78.2745 71.8523 80.4423 70.2449 81.509C68.6376 82.5414 66.2778 83.9178 64.9441 84.5027C63.6445 85.0877 61.3189 85.948 59.8142 86.3953C58.3094 86.8082 55.5393 87.3932 53.6584 87.5997C51.6748 87.8749 48.8705 87.9438 46.9895 87.8405C45.2112 87.7373 42.6805 87.3932 41.3467 87.1179C40.0471 86.8426 37.8926 86.2232 36.5588 85.7759C35.2593 85.3286 33.1731 84.4339 31.9419 83.8145C30.7108 83.1952 28.7956 82.0596 27.6671 81.2682C26.5385 80.5112 24.6233 78.9971 23.3922 77.9648C22.161 76.8981 20.1091 74.6614 18.8437 72.9409C17.5441 71.2548 15.7658 68.33 14.8424 66.4374C13.919 64.5448 12.7563 61.5856 12.2775 59.8995C11.7987 58.2134 11.2173 55.1165 11.0121 53.0174C10.7385 50.1614 10.7385 48.3377 11.0121 45.6193C11.2173 43.6235 11.7987 40.5954 12.2775 38.9093C12.7563 37.2232 13.748 34.5736 14.4662 33.0596C15.1502 31.5455 16.2788 29.4465 16.9285 28.4142C17.6125 27.3819 19.0489 25.4549 20.1775 24.1129C21.306 22.8053 23.529 20.6375 25.1363 19.3643C26.7437 18.0567 29.5822 16.1986 31.6 15.2007ZM124.279 131.817C123.288 131.645 120.996 129.511 98.6301 107.041L106.325 99.2991L118.226 111.239C124.792 117.846 130.367 123.627 130.64 124.143C130.914 124.694 131.119 125.726 131.119 126.483C131.119 127.24 130.914 128.272 130.64 128.789C130.401 129.339 129.717 130.165 129.102 130.681C128.52 131.232 127.46 131.748 126.776 131.851C126.058 131.954 124.929 131.954 124.279 131.817Z" fill="#373737"/>
<path d="M32.6259 27.3819C32.8995 27.3819 33.6861 27.5195 34.3359 27.726C35.2251 27.9669 37.3112 29.8594 49.0415 41.6621L55.7787 34.8833C61.5583 29.1368 62.7553 28.0701 64.0207 27.7604C64.8073 27.5539 65.8674 27.4851 66.4146 27.5883C66.9276 27.726 67.8168 28.0701 68.364 28.4142C68.9453 28.7583 69.7319 29.7218 70.2107 30.6853C70.8605 32.0617 70.9631 32.6466 70.7921 33.9198C70.5527 35.365 70.0739 35.9156 56.7363 49.4044L63.6445 56.3552C69.6977 62.5146 70.5527 63.5125 70.7579 64.7169C70.8947 65.4739 70.8263 66.6439 70.6553 67.2977C70.4501 67.9515 69.6635 69.087 68.9111 69.7752C68.0562 70.5666 67.1328 71.1172 66.5856 71.1172C66.0384 71.1516 65.3202 71.1516 64.9441 71.1516C64.5679 71.1172 63.8839 70.9795 63.4051 70.8763C62.8921 70.7731 59.7458 67.8482 49.0415 57.1467L42.4411 63.719C38.8502 67.3665 35.4986 70.4978 35.0199 70.7387C34.5411 70.9795 33.4809 71.1516 32.6259 71.1172C31.7709 71.1172 30.6424 70.8075 30.061 70.4634C29.5138 70.1193 28.693 69.2934 28.2484 68.6397C27.7013 67.8138 27.4961 66.9536 27.4961 65.818C27.4961 64.9234 27.6671 63.8566 27.8723 63.4093C28.0774 62.9964 31.1896 59.6586 41.3467 49.4044L34.8147 42.7632C31.1896 39.1502 28.0774 35.8124 27.8723 35.365C27.6671 34.9521 27.4961 33.8854 27.4961 32.9563C27.4961 31.8208 27.7013 30.9605 28.2484 30.1347C28.693 29.4809 29.719 28.5862 30.574 28.1389C31.429 27.726 32.3523 27.3819 32.6259 27.3819Z" fill="#373737"/>
<path d="M32.6259 27.3819C32.8995 27.3819 33.6861 27.5195 34.3359 27.726C35.2251 27.9669 37.3112 29.8594 49.0415 41.6621L55.7787 34.8833C61.5583 29.1368 62.7553 28.0701 64.0207 27.7604C64.8073 27.5539 65.8674 27.4851 66.4146 27.5883C66.9276 27.726 67.8168 28.0701 68.364 28.4142C68.9453 28.7583 69.7319 29.7218 70.2107 30.6853C70.8605 32.0617 70.9631 32.6466 70.7921 33.9198C70.5527 35.365 70.0739 35.9156 56.7363 49.4044L63.6445 56.3552C69.6977 62.5146 70.5527 63.5125 70.7579 64.7169C70.8947 65.4739 70.8263 66.6439 70.6553 67.2977C70.4501 67.9515 69.6635 69.087 68.9111 69.7752C68.0562 70.5666 67.1328 71.1172 66.5856 71.1172C66.0384 71.1516 65.3202 71.1516 64.9441 71.1516C64.5679 71.1172 63.8839 70.9795 63.4051 70.8763C62.8921 70.7731 59.7458 67.8482 49.0415 57.1467L42.4411 63.719C38.8502 67.3665 35.4986 70.4978 35.0199 70.7387C34.5411 70.9795 33.4809 71.1516 32.6259 71.1172C31.7709 71.1172 30.6424 70.8075 30.061 70.4634C29.5138 70.1193 28.693 69.2934 28.2484 68.6397C27.7013 67.8138 27.4961 66.9536 27.4961 65.818C27.4961 64.9234 27.6671 63.8566 27.8723 63.4093C28.0774 62.9964 31.1896 59.6586 41.3467 49.4044L34.8147 42.7632C31.1896 39.1502 28.0774 35.8124 27.8723 35.365C27.6671 34.9521 27.4961 33.8854 27.4961 32.9563C27.4961 31.8208 27.7013 30.9605 28.2484 30.1347C28.693 29.4809 29.719 28.5862 30.574 28.1389C31.429 27.726 32.3523 27.3819 32.6259 27.3819Z" fill="#373737"/>
</svg>
