<svg width="21" height="20" viewBox="0 0 21 20" fill="none" xmlns="http://www.w3.org/2000/svg">
<path fill-rule="evenodd" clip-rule="evenodd" d="M9.53791 0.0452292C8.0846 0.184589 6.56655 0.695456 5.28698 1.47574C4.02653 2.24443 2.74677 3.52929 1.96947 4.8065C0.507856 7.20816 0.129836 10.0983 0.919337 12.8352C1.15462 13.6508 1.66766 14.7548 2.14516 15.4729C2.95362 16.6886 4.08772 17.7905 5.29147 18.5298C8.20799 20.3211 11.845 20.4863 14.8961 18.9662C15.2095 18.81 15.5974 18.5986 15.7583 18.4962C17.0093 17.7001 18.1731 16.5343 18.9721 15.277C19.2144 14.8957 19.6927 13.9134 19.8683 13.4363C20.1525 12.664 20.4375 11.3326 20.438 10.7743C20.4381 10.6722 20.4558 10.5887 20.4772 10.5887C20.5016 10.5887 20.516 10.3515 20.5156 9.95385C20.5152 9.52952 20.5025 9.3384 20.4772 9.37758C20.45 9.41974 20.4392 9.38141 20.4386 9.24084C20.4363 8.66938 20.1555 7.35205 19.8691 6.5691C19.6974 6.09981 19.2181 5.11644 18.9718 4.72836C18.3567 3.75886 17.3583 2.66731 16.4993 2.02509C14.4699 0.507885 12.0098 -0.191803 9.53791 0.0452292ZM10.2216 2.87582C10.0433 2.9533 9.95489 3.03694 9.86526 3.21287C9.79444 3.35184 9.7914 3.49862 9.7914 6.75964C9.7914 9.59016 9.80057 10.1826 9.846 10.2872C9.91643 10.4492 13.2843 13.8142 13.4306 13.8687C14.016 14.0867 14.5864 13.492 14.3387 12.9219C14.3081 12.8515 13.6039 12.1165 12.7397 11.2531L11.1954 9.71002V6.53394C11.1954 3.4944 11.1922 3.35161 11.1215 3.21287C11.0303 3.03382 10.9417 2.95162 10.7565 2.87407C10.5773 2.79909 10.3968 2.79968 10.2216 2.87582ZM0.525444 10.0027C0.525444 10.3572 0.531372 10.5023 0.538587 10.325C0.545802 10.1477 0.545802 9.85763 0.538587 9.68037C0.531372 9.50311 0.525444 9.64814 0.525444 10.0027Z" fill="#143886"/>
</svg>
