<svg width="31" height="27" viewBox="0 0 31 27" fill="none" xmlns="http://www.w3.org/2000/svg">
<path d="M0 7.67964L0.370813 7.84132L2.00239 8.73054L3.70813 9.78144L4.44976 10.1856L4.9689 10.4281L7.78708 12.0449L9.71531 13.1766L10.3828 13.5808L10.9019 13.8234L12.4593 14.7126L13.8684 15.521L15.1292 16.2485L15.6483 16.3293L16.9091 15.6826L18.3182 14.8743L20.3206 13.6617L21.0622 13.3383L22.3971 12.5299L24.5478 11.3174L25.8828 10.509L27.4402 9.7006L28.6268 8.97305L30.6292 7.84132L31 7.67964V22.0689L30.7775 23.4431L30.2584 24.5749L29.4426 25.6257L28.5526 26.3533L27.7368 26.7575L26.6986 27H4.30144L3.04067 26.6766L2.22488 26.1916L1.26077 25.3024L0.667464 24.4132L0.222488 23.4431L0 22.0689V7.67964Z" fill="#143886"/>
<path d="M4.30144 0H26.6986L27.9593 0.323353L28.7751 0.808383L29.7392 1.69761L30.3325 2.58683L30.7775 3.55689L30.9258 4.36527V5.09281L28.8493 6.30539L28.3301 6.62874L27.7368 6.87126L26.1053 7.84132L24.6962 8.6497L23.0646 9.61976L21.5072 10.4281L20.1722 11.2365L18.4665 12.2066L16.8349 13.1766L16.1675 13.5L15.5742 13.8234L15.1292 13.6617L14.7584 13.4192L14.0167 13.0958L11.9402 11.8832L10.3086 10.9132L8.7512 10.024L7.49043 9.37725L4.22727 7.43713L2.81818 6.62874L1.40909 5.9012L0.0741626 5.09281V4.36527L0.296651 3.39521L0.741627 2.42515L1.40909 1.53593L2.44737 0.646707L3.26316 0.242515L4.30144 0Z" fill="#143886"/>
</svg>
