<svg width="30" height="30" viewBox="0 0 30 30" fill="none" xmlns="http://www.w3.org/2000/svg">
<path fill-rule="evenodd" clip-rule="evenodd" d="M16.8646 0.0729861C16.5378 0.202023 16.2127 0.490243 16.0186 0.823157C15.8287 1.14886 15.7282 1.77474 15.7275 2.63624C15.7269 3.29151 15.7972 3.23338 14.9258 3.29872C13.2637 3.4233 10.9046 4.02878 9.25894 4.75314C4.92708 6.65989 1.66076 10.171 0.438614 14.2344C0.237711 14.9024 0 16.0227 0 16.3017C0 16.7565 0.470268 17.1686 0.989257 17.1686C1.42038 17.1686 1.601 17.0555 2.17828 16.4239C4.64894 13.7208 8.25516 12.0544 12.2469 11.7713C13.1634 11.7063 13.7127 11.7205 15.0075 11.8426L15.7269 11.9106L15.7275 12.56C15.7285 13.8967 15.8881 14.4906 16.3565 14.9011C16.8656 15.3473 17.5488 15.4205 18.276 15.1066C18.6536 14.9436 19.0751 14.5975 21.7935 12.2179C23.5726 10.6605 24.9832 9.37763 25.121 9.19182C25.7731 8.31167 25.8242 7.20278 25.255 6.2831C24.9844 5.8459 18.6827 0.338625 18.249 0.16032C17.8308 -0.0115915 17.1825 -0.0524726 16.8646 0.0729861ZM28.4988 12.9176C28.401 12.9641 28.066 13.2732 27.7543 13.6045C25.4008 16.1055 22.3292 17.6446 18.7027 18.1401C17.8187 18.2609 15.7378 18.268 14.8235 18.1533L14.2212 18.0777L14.1863 16.9927C14.1463 15.7408 14.0583 15.4725 13.5555 15.0662C13.2049 14.783 12.8783 14.685 12.3904 14.7162C11.6476 14.7637 11.5964 14.8012 8.11837 17.8403C5.01856 20.549 4.88411 20.6755 4.65751 21.0984C4.16891 22.01 4.20384 22.933 4.75963 23.7964C4.91061 24.031 5.8282 24.873 8.12192 26.8818C10.7952 29.2231 11.3354 29.6695 11.6623 29.8072C12.6331 30.2159 13.5076 29.9653 13.9661 29.147C14.1464 28.8252 14.1552 28.7692 14.1775 27.8011L14.2009 26.7909L14.4117 26.7628C14.5278 26.7473 14.8184 26.719 15.0577 26.6998C15.7013 26.6483 17.1377 26.396 17.912 26.1985C22.437 25.044 26.2389 22.2459 28.3086 18.547C29.1392 17.0623 29.6232 15.7428 29.885 14.2481L30 13.5914L29.8402 13.3194C29.5818 12.8797 28.966 12.6952 28.4988 12.9176Z" fill="#143886"/>
</svg>
