<svg width="18" height="20" viewBox="0 0 18 20" fill="none" xmlns="http://www.w3.org/2000/svg">
<path fill-rule="evenodd" clip-rule="evenodd" d="M8.84356 0.0122031C8.78916 0.0214626 8.62005 0.0488897 8.46775 0.073152C7.57257 0.215796 6.6745 0.684243 5.97158 1.37519C5.30252 2.03282 4.88363 2.79269 4.6638 3.74743C4.57214 4.14548 4.57214 5.21208 4.6638 5.61013C5.09729 7.49274 6.47141 8.8498 8.37526 9.27542C8.79723 9.36974 9.82046 9.36872 10.2677 9.27351C11.1961 9.07589 11.9898 8.64835 12.6636 7.9828C13.3377 7.31713 13.753 6.56429 13.9727 5.61013C14.0644 5.21208 14.0644 4.14548 13.9727 3.74743C13.5468 1.8976 12.1652 0.509171 10.3468 0.103548C10.0256 0.0318943 9.06963 -0.0261635 8.84356 0.0122031ZM8.86334 1.57847C7.60319 1.77874 6.60927 2.66082 6.25039 3.89738C6.15141 4.23839 6.1456 5.06428 6.23979 5.40157C6.47429 6.24103 6.91375 6.85063 7.60904 7.30068C8.14075 7.64488 8.63045 7.78311 9.31826 7.78311C10.0074 7.78311 10.4939 7.64547 11.0329 7.29798C11.5588 6.95889 12.0506 6.37578 12.2466 5.85896C12.4296 5.37668 12.4629 5.18599 12.4598 4.63971C12.457 4.15775 12.446 4.08015 12.3323 3.73993C12.0006 2.74717 11.265 2.02172 10.2689 1.70498C9.95698 1.60582 9.81326 1.58289 9.43694 1.57234C9.18673 1.56535 8.92861 1.56808 8.86334 1.57847ZM8.42819 10.6633C6.47888 10.8572 4.58045 11.7502 3.16974 13.137C2.23758 14.0534 1.5254 15.1769 1.09468 16.4106C0.813416 17.2163 0.761871 17.6173 0.872596 18.1383C1.05817 19.0113 1.80951 19.7534 2.69215 19.9356C3.10862 20.0216 15.5296 20.0214 15.9444 19.9354C16.838 19.7501 17.5741 19.0205 17.7649 18.1311C17.8746 17.6198 17.8226 17.2169 17.5423 16.4089C17.1263 15.2095 16.3855 14.0389 15.4712 13.1359C13.6352 11.3226 11.0225 10.4054 8.42819 10.6633ZM8.50731 12.2257C8.04043 12.2778 7.33245 12.4421 6.90517 12.5976C4.83822 13.3497 3.29396 14.9058 2.56975 16.9662C2.36887 17.5378 2.35922 17.8384 2.53391 18.0827C2.59918 18.1739 2.72379 18.2853 2.81082 18.3302L2.96906 18.4118H9.34453H15.72L15.888 18.2946C16.2637 18.0325 16.3123 17.6702 16.0665 16.9662C15.4973 15.3363 14.3987 14.0079 12.9001 13.1376C11.6078 12.3871 10.0181 12.0572 8.50731 12.2257Z" fill="#143886"/>
<path d="M8.50731 12.2257C8.04043 12.2778 7.33245 12.4421 6.90517 12.5976C4.83822 13.3497 3.29396 14.9058 2.56975 16.9662C2.36887 17.5378 2.35922 17.8384 2.53391 18.0827C2.59918 18.1739 2.72379 18.2853 2.81082 18.3302L2.96906 18.4118H9.34453H15.72L15.888 18.2946C16.2637 18.0325 16.3123 17.6702 16.0665 16.9662C15.4973 15.3363 14.3987 14.0079 12.9001 13.1376C11.6078 12.3871 10.0181 12.0572 8.50731 12.2257Z" fill="#143886"/>
<path d="M8.86334 1.57847C7.60319 1.77874 6.60927 2.66082 6.25039 3.89738C6.15141 4.23839 6.1456 5.06428 6.23979 5.40157C6.47429 6.24103 6.91375 6.85063 7.60904 7.30068C8.14075 7.64488 8.63045 7.78311 9.31826 7.78311C10.0074 7.78311 10.4939 7.64547 11.0329 7.29798C11.5588 6.95889 12.0506 6.37578 12.2466 5.85896C12.4296 5.37668 12.4629 5.18599 12.4598 4.63971C12.457 4.15775 12.446 4.08015 12.3323 3.73993C12.0006 2.74717 11.265 2.02172 10.2689 1.70498C9.95698 1.60582 9.81326 1.58289 9.43694 1.57234C9.18673 1.56535 8.92861 1.56808 8.86334 1.57847Z" fill="#143886"/>
</svg>
