<svg width="86" height="162" viewBox="0 0 86 162" fill="none" xmlns="http://www.w3.org/2000/svg">
<path fill-rule="evenodd" clip-rule="evenodd" d="M30.5335 0.691629C29.6263 1.6725 28.7071 3.80098 27.9095 6.76842L27.3009 9.03276H26.0646C24.7791 9.03276 23.8743 9.72313 23.0341 11.3451C22.2987 12.765 22.5536 16.1032 23.6369 19.2394L24.6312 22.1169L23.7768 22.5356C22.2446 23.286 21.6289 24.4943 21.6397 26.7294C21.6515 29.2054 22.2547 30.7449 23.6823 31.9434C25.039 33.0823 25.9119 33.301 28.3896 33.1222L30.3624 32.9797L30.5732 35.1793C30.6892 36.3889 30.8684 37.9451 30.9713 38.6368C31.1296 39.7012 31.0634 39.8954 30.5406 39.8981C29.3664 39.9042 26.5551 41.4852 25.1177 42.9478C23.4463 44.6482 22.1518 47.1836 21.6289 49.7817C21.2628 51.6002 21.2476 51.6176 17.6902 54.2171C9.31693 60.3365 2.32891 66.8752 0.752966 70.0661C-0.837772 73.2865 -0.0136509 80.903 4.23975 102.286C6.47001 113.5 7.67744 118.192 8.74634 119.804C9.71705 121.267 11.9846 122.835 14.3433 123.674C16.2293 124.345 16.3049 124.586 16.3046 129.923C16.3043 135.28 16.9831 152.839 17.2592 154.607L17.4925 156.101L20.1771 157.193C21.6535 157.794 24.7529 158.742 27.0645 159.302C31.3956 160.349 41.2 161.999 43.1014 162C44.1356 162.001 44.1797 161.945 44.2782 160.491L44.3808 158.981L56.8215 158.844L56.9258 160.087C56.992 160.875 57.2015 161.33 57.498 161.33C58.1517 161.33 62.8876 159.222 65.3367 157.841C68.4833 156.067 70.3487 154.703 72.6792 152.473L74.8173 150.428L75.1364 142.88C75.3119 138.729 75.559 131.974 75.6854 127.868L75.9158 120.404H77.3186C80.8894 120.404 84.8025 119.103 85.6428 117.636C86.6434 115.888 85.397 97.9405 83.6963 89.6088C82.2263 82.4062 78.6615 69.3204 76.6027 63.569C75.711 61.0785 75.5298 60.8279 73.7366 59.6109C72.6839 58.8964 69.3037 56.9984 66.2247 55.3929L60.6267 52.4744L59.8376 50.1769C58.8696 47.3573 57.3367 44.783 55.1999 42.3882L53.5782 40.5707L54.2742 37.8243C55.596 32.6103 55.8179 29.9535 55.3596 24.8415C54.948 20.2514 54.9548 20.1287 55.7842 17.1854C57.952 9.49367 57.7189 7.79995 54.2614 6.10355C49.1224 3.58226 38.3941 0.404476 33.9574 0.0894821C31.4363 -0.0896518 31.2214 -0.0517433 30.5335 0.691629ZM46.2243 12.7966C46.8682 12.9814 48.7088 13.0703 50.3143 12.9935L53.2332 12.8543L53.4302 13.8368C53.7682 15.5218 53.6922 15.606 51.4313 16.0542C46.841 16.9646 46.8181 18.654 51.392 18.9992C52.8062 19.1058 53.9699 19.2846 53.9773 19.3964C53.985 19.5081 54.1942 21.6855 54.442 24.2346C54.949 29.4463 54.7624 32.1789 53.558 37.1769C52.6791 40.8247 52.6213 40.872 48.1611 41.5841C42.8919 42.4251 39.4081 41.4 36.0464 38.0192C33.6814 35.6405 33.1343 36.2249 35.4449 38.6623C38.5729 41.9622 42.482 43.257 47.3444 42.6042C48.8272 42.4053 50.0796 42.2819 50.1281 42.3302C50.3621 42.5633 51.2736 50.2208 51.2736 51.9518C51.2736 53.9001 51.2545 53.939 49.5333 55.4828C46.6776 58.0443 45.1285 58.8041 43.2688 58.5549C41.0591 58.259 37.9005 56.629 36.0939 54.8521C34.9143 53.6918 34.3098 52.675 33.453 50.4103C32.4806 47.8397 32.3075 46.8864 32.0651 42.7616C31.7433 37.292 31.1697 32.4617 30.7964 32.083C30.6535 31.9377 30.1236 31.9753 29.6193 32.1669C27.2891 33.0508 24.3777 32.1783 23.2704 30.2641C22.3771 28.72 22.1424 25.8512 22.8051 24.5728C23.9547 22.3551 26.0968 22.3859 28.5813 24.6563C29.2729 25.2883 29.8957 25.8056 29.9649 25.8056C30.0342 25.8056 30.0907 24.654 30.0907 23.2464C30.0907 20.7781 30.1337 20.6399 31.3042 19.3474C32.4659 18.0643 32.5119 17.92 32.3865 15.9522L32.2557 13.8969H36.4688C40.3526 13.8969 40.8136 13.8284 42.3633 13.0237C43.288 12.5433 44.2715 12.2203 44.5489 12.3051C44.8263 12.3903 45.5801 12.6114 46.2243 12.7966ZM35.4728 17.2826C33.9571 17.9385 32.7806 19.0498 32.7806 19.8257C32.7806 20.3269 33.0523 20.4383 34.2728 20.4383C35.0935 20.4383 36.7704 20.2058 37.999 19.9213C42.4914 18.8818 43.98 17.8244 42.0052 17.0753C40.7067 16.5829 36.804 16.7067 35.4728 17.2826ZM45.5603 21.6962C45.566 23.8754 46.2993 27.0095 46.9701 27.7221C47.6419 28.4356 47.6463 28.4983 47.0861 29.3514C46.7257 29.9005 46.6231 30.3574 46.8175 30.5513C47.0118 30.7452 47.4624 30.3654 48.0007 29.554L48.8702 28.2434L47.9566 27.5694C47.154 26.9773 46.9903 26.5238 46.6087 23.8344C46.3699 22.1511 46.0357 20.7737 45.8659 20.7737C45.6965 20.7737 45.5586 21.189 45.5603 21.6962ZM49.3234 22.8536C48.8907 23.2853 48.7734 24.1283 49.1456 24.1283C49.2696 24.1283 49.657 23.8703 50.006 23.5553C50.5194 23.0917 50.7491 23.0602 51.2094 23.3896C52.6744 24.4393 53.4874 24.2652 52.4525 23.1239C51.7689 22.3708 49.9636 22.2149 49.3234 22.8536ZM37.462 24.4379C36.5064 25.3913 36.1951 26.141 36.7549 26.141C36.9062 26.141 37.3594 25.7637 37.7613 25.3024C38.548 24.3994 40.089 24.1739 40.7773 24.8606C41.4464 25.5282 41.6724 24.8492 41.0204 24.1303C40.1213 23.1394 38.6348 23.2679 37.462 24.4379ZM24.1904 25.3514C23.7371 25.8395 23.3659 26.3678 23.3659 26.5255C23.3659 27.0974 24.0885 26.7912 24.8669 25.8895L25.6631 24.9669L27.4088 26.601L26.4449 27.0052C25.4412 27.4262 24.7509 28.8247 25.5471 28.8247C25.7872 28.8247 26.071 28.5983 26.1775 28.3215C26.2838 28.0448 26.7592 27.8183 27.234 27.8183C27.9384 27.8183 28.2182 28.0998 28.7548 29.3494C29.5725 31.2524 30.2537 31.0471 29.5665 29.1045C28.5857 26.3309 27.0013 24.4638 25.6288 24.4638C25.2912 24.4638 24.644 24.8633 24.1904 25.3514ZM42.1952 33.8378C42.1952 34.4131 44.3297 35.1984 45.8938 35.1984C47.415 35.1984 49.5924 34.4184 49.5924 33.8737C49.5924 33.4158 49.5158 33.4228 47.5505 34.0642C45.9187 34.5966 44.7459 34.5053 42.7836 33.6928C42.4215 33.5429 42.1952 33.5986 42.1952 33.8378ZM31.0994 41.2715C31.0994 41.6596 30.5591 43.0031 29.8983 44.2574C28.6711 46.5875 28.5712 46.6757 23.2409 50.1339L22.2748 50.7602L22.5149 49.6046C23.264 45.9944 25.5468 42.9488 28.5746 41.5197C30.9928 40.3785 31.0994 40.3681 31.0994 41.2715ZM57.6144 47.2362C58.6513 49.1772 59.7781 51.9712 59.5239 51.9712C58.9526 51.9712 58.3346 51.4603 58.3346 50.988C58.3346 50.671 56.8215 48.5398 54.9722 46.2517C53.1229 43.9639 51.6099 41.9857 51.6099 41.8565C51.6099 41.727 51.8748 41.5533 52.1983 41.4701C53.019 41.2594 56.2708 44.7213 57.6144 47.2362ZM54.4719 46.9394C55.8965 48.6921 57.1396 50.3198 57.2344 50.5566C57.3289 50.7934 56.8585 51.8099 56.1894 52.8159C55.52 53.8216 54.9722 54.7095 54.9722 54.7887C54.9722 54.8682 55.7668 55.5005 56.7375 56.1939C57.7082 56.8877 58.6352 57.5686 58.7973 57.7075C58.9593 57.8461 57.5976 61.6944 55.7711 66.2586L52.4505 74.5575L52.2316 62.6773C52.0191 51.146 51.8523 47.4855 51.4034 44.5113C51.1465 42.8089 51.0578 42.7384 54.4719 46.9394ZM31.4356 45.7337C31.4356 47.2648 32.1723 49.4446 36.1705 59.739C38.7743 66.4445 41.2692 72.9121 41.7141 74.1114L42.5227 76.2918L39.734 73.3113C37.6674 71.1033 36.7465 69.8199 36.1782 68.3583C35.1917 65.8199 32.6363 63.0131 30.2527 61.8497C27.5689 60.5394 27.3658 60.1604 28.7659 59.0735C29.4007 58.5804 30.3546 57.7924 30.8852 57.3224L31.8495 56.4677L29.121 54.6804C27.62 53.6971 26.3921 52.8253 26.3921 52.7424C26.3921 52.3439 30.9639 43.9323 31.1834 43.9266C31.322 43.9233 31.4356 44.7364 31.4356 45.7337ZM26.5538 50.4056C25.9099 51.574 25.3834 52.7082 25.3834 52.9259C25.3834 53.1436 26.5343 54.0544 27.9411 54.9497L30.4989 56.5777L28.6324 58.0483C27.6059 58.8571 26.7576 59.783 26.7471 60.106C26.7313 60.5965 26.4032 60.6931 24.7549 60.6931H22.7815L22.5657 59.4351C22.447 58.7434 22.256 56.8186 22.1414 55.158L21.9326 52.1389L24.7331 50.2101C26.273 49.1494 27.5763 48.2812 27.6287 48.2812C27.6812 48.2812 27.1977 49.2372 26.5538 50.4056ZM58.9701 52.7907C59.8231 53.2308 59.9442 53.5291 60.2976 56.0614C60.5117 57.5941 60.849 61.1936 61.047 64.0604C61.4482 69.8692 61.5084 69.4401 59.0498 78.3046C58.2825 81.0721 57.4671 84.4602 57.2378 85.8339L56.8215 88.3314L54.8882 88.9023C53.1125 89.427 52.9548 89.429 52.9548 88.9275C52.9548 88.6272 52.7837 85.9362 52.5749 82.9473L52.1949 77.5132L56.1053 67.7608C58.2559 62.3969 60.0158 57.8873 60.0158 57.7394C60.0158 57.5915 59.1093 56.833 58.0014 56.0534L55.987 54.6361L56.7405 53.4754C57.5976 52.1554 57.686 52.1282 58.9701 52.7907ZM21.8102 59.8719C22.0398 60.8722 22.0069 60.9054 20.3586 61.3268C18.1267 61.8974 15.0135 63.943 13.8827 65.5817C12.296 67.8812 11.8427 69.3915 11.6756 72.9372C11.4998 76.6719 11.9429 78.3626 13.3346 79.2633C14.3575 79.9255 16.6893 80.1217 16.886 79.5625C16.9828 79.2871 16.6849 79.1432 16.0185 79.1432C13.0613 79.1432 12.0885 77.5343 12.3686 73.105C12.4678 71.5367 12.8027 69.5374 13.1131 68.6622C13.878 66.5032 16.2622 63.94 18.4774 62.8943C20.744 61.8246 24.3898 61.1859 26.4543 61.4968C27.9566 61.7229 28.2182 61.9427 32.1078 66.2415C36.1809 70.743 36.1867 70.7517 36.531 72.9577C36.9486 75.635 36.5326 76.3099 34.255 76.6508C33.444 76.7719 32.7806 77.0248 32.7806 77.2123C32.7806 77.7272 35.6557 77.3062 36.6708 76.6427C37.4765 76.116 37.536 75.9141 37.4324 74.0691L37.3198 72.0671L43.5092 78.64L43.5402 92.7346L40.591 93.7926L38.5087 92.543C37.3635 91.856 35.19 90.8057 33.679 90.2092C31.1885 89.2264 30.6912 89.1411 28.3661 89.2991L25.8006 89.4733L25.3914 86.908C24.7701 83.0154 23.4769 76.794 23.2398 76.5575C22.6104 75.9292 22.714 77.3062 23.6665 82.2321C24.6648 87.3934 26.3763 98.1337 26.387 99.3068C26.3904 99.6611 25.3665 100.315 23.3992 101.214C21.7533 101.966 20.3132 102.732 20.1996 102.916C19.6989 103.723 20.7527 103.419 24.2065 101.756C28.4458 99.7157 36.2183 96.3515 39.6734 95.0616C44.8357 93.1344 53.3189 90.2284 56.76 89.2086L60.3971 88.1308L62.7544 88.8872C67.253 90.33 70.6856 93.2092 72.4872 97.0502C73.3678 98.9271 74.1377 101.843 74.1377 103.299C74.1377 103.747 70.5219 105.428 58.4187 110.608C41.857 117.696 35.4224 120.243 28.8715 122.303C25.1194 123.483 24.6161 123.559 20.5079 123.563C15.2038 123.568 13.1315 122.918 10.5798 120.448C8.50996 118.444 8.14817 117.266 5.36514 103.464C2.22905 87.911 1.18301 81.5508 0.948657 76.6172C0.7607 72.6602 0.806766 72.0979 1.43654 70.6776C2.72063 67.7816 9.0271 61.779 17.2841 55.5938L21.1804 52.675L21.3778 55.7615C21.486 57.4593 21.6807 59.3087 21.8102 59.8719ZM67.802 57.1772C73.6307 60.2986 74.7275 61.0913 75.399 62.6662C76.7971 65.9463 81.2203 81.7923 82.7138 88.8714C83.6563 93.3384 84.9357 104.983 85.1357 110.916L85.3304 116.691L84.2736 117.675C83.6462 118.26 82.5138 118.828 81.4849 119.075C77.7412 119.971 69.2109 118.768 61.0732 116.197C59.0121 115.546 57.3259 114.937 57.3259 114.845C57.3259 114.752 59.9775 113.384 63.2181 111.804C68.7633 109.1 71.1116 107.519 71.1116 106.489C71.1116 106.244 71.9613 105.693 73.0003 105.263L74.8886 104.482L74.7211 102.128C74.6293 100.833 74.4441 99.5094 74.3099 99.1867C74.1176 98.7241 74.2339 98.6007 74.8583 98.6047C76.3354 98.6144 76.4823 98.9633 76.6313 102.812C76.7096 104.831 76.8993 106.521 77.0529 106.568C77.9453 106.84 76.9043 76.0889 75.9901 75.1764C75.4884 74.6763 75.4592 75.9718 75.8442 81.634C76.0772 85.0606 76.1996 87.9325 76.1162 88.0157C76.0328 88.0989 74.5322 87.8003 72.7817 87.3518C68.7697 86.3243 67.88 86.3257 65.5321 87.3615C63.7389 88.1529 63.5345 88.1747 61.9017 87.7493C60.9307 87.4961 59.8796 87.4125 59.5054 87.5581C59.1389 87.701 58.6281 87.8285 58.3709 87.8416C57.5777 87.8815 58.1561 84.5504 60.0851 77.9691L61.8547 71.9309L61.8372 66.3958C61.8214 61.5294 61.3597 56.0302 60.8144 54.2194C60.6449 53.6562 60.7105 53.6488 61.8059 54.1054C62.4512 54.3744 65.1495 55.7568 67.802 57.1772ZM51.4068 69.4988C51.5234 77.2942 51.7064 85.0315 51.8129 86.6937L52.007 89.7151L48.3618 90.9761C46.3572 91.6695 44.6037 92.2344 44.4648 92.2314C44.326 92.2283 44.2126 89.0395 44.2126 85.1449V78.064L40.0097 67.1882C37.698 61.2063 35.8067 56.2342 35.8067 56.1383C35.8067 56.0426 36.4893 56.4331 37.3235 57.0057C39.1765 58.2775 40.6475 58.9074 42.8795 59.3851C44.4312 59.7172 44.7365 59.674 46.3306 58.8957C47.2926 58.4261 48.6775 57.4308 49.4085 56.684C50.1395 55.937 50.8402 55.3258 50.966 55.3258C51.0914 55.3258 51.2898 61.7035 51.4068 69.4988ZM32.8105 64.6048C34.0014 65.9078 35.2405 67.7434 35.0545 67.9289C34.9705 68.0131 33.7896 66.8531 32.4302 65.3512C30.5658 63.2912 30.2023 62.7474 30.9494 63.1365C31.4941 63.4203 32.3317 64.0809 32.8105 64.6048ZM72.2612 88.0764C74.1253 88.5618 75.8401 89.1086 76.0711 89.2918C76.3667 89.5259 76.4914 90.856 76.4914 93.7765C76.4914 97.5091 76.4319 97.9284 75.903 97.9241C74.4377 97.9127 73.7766 97.4357 72.777 95.6691C71.4206 93.271 68.9577 90.8308 66.7846 89.7322C65.8357 89.2525 65.0593 88.7799 65.0593 88.6816C65.0593 88.4327 67.8131 87.2106 68.3945 87.2015C68.6568 87.1975 70.3968 87.5913 72.2612 88.0764ZM32.6266 90.7097C35.61 91.8298 39.6028 93.9489 39.27 94.2354C39.122 94.3625 38.4714 94.6675 37.8241 94.9127C37.1769 95.1579 34.5485 96.2458 31.9834 97.33C29.4182 98.4142 27.2851 99.2568 27.2427 99.2022C27.1375 99.0663 26.2925 92.2562 26.2545 91.2394C26.1974 89.7121 29.2861 89.4551 32.6266 90.7097ZM53.4134 117.478C53.9329 117.857 54.1535 120.177 55.3199 137.512C56.2237 150.943 56.53 157.226 56.2933 157.463C55.8992 157.856 45.7318 157.948 44.8011 157.567C44.251 157.341 44.2126 156.15 44.2126 139.254V121.182L48.3315 119.14C50.5971 118.017 52.5348 117.087 52.6384 117.074C52.7416 117.061 53.0907 117.243 53.4134 117.478ZM57.4584 119.382C61.6906 121.277 68.9029 123.091 73.8015 123.494L74.9783 123.591L74.86 125.772C74.7951 126.971 74.6811 128.052 74.6068 128.174C74.4229 128.475 70.5504 129.106 65.9793 129.58L62.2013 129.972L62.0994 131.543C61.9999 133.083 62.0201 133.119 63.1082 133.322C64.3647 133.556 70.8719 132.966 73.0578 132.419C73.8509 132.221 74.5486 132.117 74.6081 132.186C74.7581 132.362 74.1499 148.917 73.9609 149.803C73.7618 150.735 69.6342 154.235 66.3226 156.279C63.7073 157.894 58.108 160.551 57.8635 160.294C57.7623 160.187 54.9497 119.73 54.9679 118.643C54.9742 118.279 55.0314 118.296 57.4584 119.382ZM43.4588 161.187C43.2836 161.361 32.5116 159.683 29.2501 158.974C25.2855 158.111 20.9985 156.805 19.2854 155.937L18.0625 155.317L17.8365 151.028C17.5157 144.946 17.0326 128.647 17.1687 128.499C17.2313 128.43 17.9703 128.477 18.8113 128.603L20.3398 128.832V131.743L21.9369 132.108C26.043 133.048 34.1511 133.746 36.2956 133.345C37.5208 133.115 37.5229 133.111 37.4216 131.54L37.3198 129.965L33.7893 129.721C31.8475 129.586 28.5188 129.299 26.3921 129.081C23.1746 128.753 22.6948 128.634 23.534 128.378C27.3497 127.213 35.3293 124.5 39.001 123.12L43.372 121.476L43.4588 141.289C43.5065 152.186 43.5065 161.14 43.4588 161.187ZM31.6878 130.336L36.4792 130.572V132.481L33.0327 132.47C29.5305 132.46 25.9647 132.106 22.7775 131.453C21.2749 131.145 21.0123 130.978 21.0123 130.333C21.0123 129.915 21.0832 129.503 21.1696 129.416C21.256 129.33 22.5801 129.448 24.1117 129.679C25.6433 129.91 29.0524 130.205 31.6878 130.336ZM74.8102 130.097C74.8102 130.682 74.594 131.15 74.2648 131.276C73.1018 131.721 67.4705 132.478 65.3115 132.479L63.0419 132.481V130.569L66.3202 130.337C68.1235 130.209 70.582 129.903 71.7841 129.656C74.8718 129.021 74.8102 129.012 74.8102 130.097Z" fill="black"/>
<path fill-rule="evenodd" clip-rule="evenodd" d="M46.2243 12.7966C46.8682 12.9814 48.7088 13.0703 50.3143 12.9935L53.2332 12.8543L53.4302 13.8368C53.7682 15.5218 53.6922 15.606 51.4313 16.0542C46.841 16.9646 46.8181 18.654 51.392 18.9992C52.8062 19.1058 53.9699 19.2846 53.9773 19.3964C53.985 19.5081 54.1942 21.6855 54.442 24.2346C54.949 29.4463 54.7624 32.1789 53.558 37.1769C52.6791 40.8247 52.6213 40.872 48.1611 41.5841C42.8919 42.4251 39.4081 41.4 36.0464 38.0192C33.6814 35.6405 33.1343 36.2249 35.4449 38.6623C38.5729 41.9622 42.482 43.257 47.3444 42.6042C48.8272 42.4053 50.0796 42.2819 50.1281 42.3302C50.3621 42.5633 51.2736 50.2208 51.2736 51.9518C51.2736 53.9001 51.2545 53.939 49.5333 55.4828C46.6776 58.0443 45.1285 58.8041 43.2688 58.5549C41.0591 58.259 37.9005 56.629 36.0939 54.8521C34.9143 53.6918 34.3098 52.675 33.453 50.4103C32.4806 47.8397 32.3075 46.8864 32.0651 42.7616C31.7433 37.292 31.1697 32.4617 30.7964 32.083C30.6535 31.9377 30.1236 31.9753 29.6193 32.1669C27.2891 33.0508 24.3777 32.1783 23.2704 30.2641C22.3771 28.72 22.1424 25.8512 22.8051 24.5728C23.9547 22.3551 26.0968 22.3859 28.5813 24.6563C29.2729 25.2883 29.8957 25.8056 29.9649 25.8056C30.0342 25.8056 30.0907 24.654 30.0907 23.2464C30.0907 20.7781 30.1337 20.6399 31.3042 19.3474C32.4659 18.0643 32.5119 17.92 32.3865 15.9522L32.2557 13.8969H36.4688C40.3526 13.8969 40.8136 13.8284 42.3633 13.0237C43.288 12.5433 44.2715 12.2203 44.5489 12.3051C44.8263 12.3903 45.5801 12.6114 46.2243 12.7966ZM32.7806 19.8257C32.7806 19.0498 33.9571 17.9385 35.4728 17.2826C36.804 16.7067 40.7067 16.5829 42.0052 17.0753C43.98 17.8244 42.4914 18.8818 37.999 19.9213C36.7704 20.2058 35.0935 20.4383 34.2728 20.4383C33.0523 20.4383 32.7806 20.3269 32.7806 19.8257ZM46.9701 27.7221C46.2993 27.0095 45.566 23.8754 45.5603 21.6962C45.5586 21.189 45.6965 20.7737 45.8659 20.7737C46.0357 20.7737 46.3699 22.1511 46.6087 23.8344C46.9903 26.5238 47.154 26.9773 47.9566 27.5694L48.8702 28.2434L48.0007 29.554C47.4624 30.3654 47.0118 30.7452 46.8175 30.5513C46.6231 30.3574 46.7257 29.9005 47.0861 29.3514C47.6463 28.4983 47.6419 28.4356 46.9701 27.7221ZM49.1456 24.1283C48.7734 24.1283 48.8907 23.2853 49.3234 22.8536C49.9636 22.2149 51.7689 22.3708 52.4525 23.1239C53.4874 24.2652 52.6744 24.4393 51.2094 23.3896C50.7491 23.0602 50.5194 23.0917 50.006 23.5553C49.657 23.8703 49.2696 24.1283 49.1456 24.1283ZM36.7549 26.141C36.1951 26.141 36.5064 25.3913 37.462 24.4379C38.6348 23.2679 40.1213 23.1394 41.0204 24.1303C41.6724 24.8492 41.4464 25.5282 40.7773 24.8606C40.089 24.1739 38.548 24.3994 37.7613 25.3024C37.3594 25.7637 36.9062 26.141 36.7549 26.141ZM23.3659 26.5255C23.3659 26.3678 23.7371 25.8395 24.1904 25.3514C24.644 24.8633 25.2912 24.4638 25.6288 24.4638C27.0013 24.4638 28.5857 26.3309 29.5665 29.1045C30.2537 31.0471 29.5725 31.2524 28.7548 29.3494C28.2182 28.0998 27.9384 27.8183 27.234 27.8183C26.7592 27.8183 26.2838 28.0448 26.1775 28.3215C26.071 28.5983 25.7872 28.8247 25.5471 28.8247C24.7509 28.8247 25.4412 27.4262 26.4449 27.0052L27.4088 26.601L25.6631 24.9669L24.8669 25.8895C24.0885 26.7912 23.3659 27.0974 23.3659 26.5255ZM45.8938 35.1984C44.3297 35.1984 42.1952 34.4131 42.1952 33.8378C42.1952 33.5986 42.4215 33.5429 42.7836 33.6928C44.7459 34.5053 45.9187 34.5966 47.5505 34.0642C49.5158 33.4228 49.5924 33.4158 49.5924 33.8737C49.5924 34.4184 47.415 35.1984 45.8938 35.1984Z" fill="white"/>
<path d="M32.6266 90.7097C35.61 91.8298 39.6028 93.9489 39.27 94.2354C39.122 94.3625 38.4714 94.6675 37.8241 94.9127C37.1769 95.1579 34.5485 96.2458 31.9834 97.33C29.4182 98.4142 27.2851 99.2568 27.2427 99.2022C27.1375 99.0663 26.2925 92.2562 26.2545 91.2394C26.1974 89.7121 29.2861 89.4551 32.6266 90.7097Z" fill="white"/>
<path d="M72.2612 88.0764C74.1253 88.5618 75.8401 89.1086 76.0711 89.2918C76.3667 89.5259 76.4914 90.856 76.4914 93.7765C76.4914 97.5091 76.4319 97.9284 75.903 97.9241C74.4377 97.9127 73.7766 97.4357 72.777 95.6691C71.4206 93.271 68.9577 90.8308 66.7846 89.7322C65.8357 89.2525 65.0593 88.7799 65.0593 88.6816C65.0593 88.4327 67.8131 87.2106 68.3945 87.2015C68.6568 87.1975 70.3968 87.5913 72.2612 88.0764Z" fill="white"/>
<path d="M67.802 57.1772C73.6307 60.2986 74.7275 61.0913 75.399 62.6662C76.7971 65.9463 81.2203 81.7923 82.7138 88.8714C83.6563 93.3384 84.9357 104.983 85.1357 110.916L85.3304 116.691L84.2736 117.675C83.6462 118.26 82.5138 118.828 81.4849 119.075C77.7412 119.971 69.2109 118.768 61.0732 116.197C59.0121 115.546 57.3259 114.937 57.3259 114.845C57.3259 114.752 59.9775 113.384 63.2181 111.804C68.7633 109.1 71.1116 107.519 71.1116 106.489C71.1116 106.244 71.9613 105.693 73.0003 105.263L74.8886 104.482L74.7211 102.128C74.6293 100.833 74.4441 99.5094 74.3099 99.1867C74.1176 98.7241 74.2339 98.6007 74.8583 98.6047C76.3354 98.6144 76.4823 98.9633 76.6313 102.812C76.7096 104.831 76.8993 106.521 77.0529 106.568C77.9453 106.84 76.9043 76.0889 75.9901 75.1764C75.4884 74.6763 75.4592 75.9718 75.8442 81.634C76.0772 85.0606 76.1996 87.9325 76.1162 88.0157C76.0328 88.0989 74.5322 87.8003 72.7817 87.3518C68.7697 86.3243 67.88 86.3257 65.5321 87.3615C63.7389 88.1529 63.5345 88.1747 61.9017 87.7493C60.9307 87.4961 59.8796 87.4125 59.5054 87.5581C59.1389 87.701 58.6281 87.8285 58.3709 87.8416C57.5777 87.8815 58.1561 84.5504 60.0851 77.9691L61.8547 71.9309L61.8372 66.3958C61.8214 61.5294 61.3597 56.0302 60.8144 54.2194C60.6449 53.6562 60.7105 53.6488 61.8059 54.1054C62.4512 54.3744 65.1495 55.7568 67.802 57.1772Z" fill="#EEEEEE"/>
<path d="M21.8102 59.8719C22.0398 60.8722 22.0069 60.9054 20.3586 61.3268C18.1267 61.8974 15.0135 63.943 13.8827 65.5817C12.296 67.8812 11.8427 69.3915 11.6756 72.9372C11.4998 76.6719 11.9429 78.3626 13.3346 79.2633C14.3575 79.9255 16.6893 80.1217 16.886 79.5625C16.9828 79.2871 16.6849 79.1432 16.0185 79.1432C13.0613 79.1432 12.0885 77.5343 12.3686 73.105C12.4678 71.5367 12.8027 69.5374 13.1131 68.6622C13.878 66.5032 16.2622 63.94 18.4774 62.8943C20.744 61.8246 24.3898 61.1859 26.4543 61.4968C27.9566 61.7229 28.2182 61.9427 32.1078 66.2415C36.1809 70.743 36.1867 70.7517 36.531 72.9577C36.9486 75.635 36.5326 76.3099 34.255 76.6508C33.444 76.7719 32.7806 77.0248 32.7806 77.2123C32.7806 77.7272 35.6557 77.3062 36.6708 76.6427C37.4765 76.116 37.536 75.9141 37.4324 74.0691L37.3198 72.0671L43.5092 78.64L43.5402 92.7346L40.591 93.7926L38.5087 92.543C37.3635 91.856 35.19 90.8057 33.679 90.2092C31.1885 89.2264 30.6912 89.1411 28.3661 89.2991L25.8006 89.4733L25.3914 86.908C24.7701 83.0154 23.4769 76.794 23.2398 76.5575C22.6104 75.9292 22.714 77.3062 23.6665 82.2321C24.6648 87.3934 26.3763 98.1337 26.387 99.3068C26.3904 99.6611 25.3665 100.315 23.3992 101.214C21.7533 101.966 20.3132 102.732 20.1996 102.916C19.6989 103.723 20.7527 103.419 24.2065 101.756C28.4458 99.7157 36.2183 96.3515 39.6734 95.0616C44.8357 93.1344 53.3189 90.2284 56.76 89.2086L60.3971 88.1308L62.7544 88.8872C67.253 90.33 70.6856 93.2092 72.4872 97.0502C73.3678 98.9271 74.1377 101.843 74.1377 103.299C74.1377 103.747 70.5219 105.428 58.4187 110.608C41.857 117.696 35.4224 120.243 28.8715 122.303C25.1194 123.483 24.6161 123.559 20.5079 123.563C15.2038 123.568 13.1315 122.918 10.5798 120.448C8.50996 118.444 8.14817 117.266 5.36514 103.464C2.22905 87.911 1.18301 81.5508 0.948657 76.6172C0.7607 72.6602 0.806766 72.0979 1.43654 70.6776C2.72063 67.7816 9.0271 61.779 17.2841 55.5938L21.1804 52.675L21.3778 55.7615C21.486 57.4593 21.6807 59.3087 21.8102 59.8719Z" fill="#EEEEEE"/>
<path d="M31.4356 45.7337C31.4356 47.2648 32.1723 49.4446 36.1705 59.739C38.7743 66.4445 41.2692 72.9121 41.7141 74.1114L42.5227 76.2918L39.734 73.3113C37.6674 71.1033 36.7465 69.8199 36.1782 68.3583C35.1917 65.8199 32.6363 63.0131 30.2527 61.8497C27.5689 60.5394 27.3658 60.1604 28.7659 59.0735C29.4007 58.5804 30.3546 57.7924 30.8852 57.3224L31.8495 56.4677L29.121 54.6804C27.62 53.6971 26.3921 52.8253 26.3921 52.7424C26.3921 52.3439 30.9639 43.9323 31.1834 43.9266C31.322 43.9233 31.4356 44.7364 31.4356 45.7337Z" fill="#EEEEEE"/>
<path d="M26.5538 50.4056C25.9099 51.574 25.3834 52.7082 25.3834 52.9259C25.3834 53.1436 26.5343 54.0544 27.9411 54.9497L30.4989 56.5777L28.6324 58.0483C27.6059 58.8571 26.7576 59.783 26.7471 60.106C26.7313 60.5965 26.4032 60.6931 24.7549 60.6931H22.7815L22.5657 59.4351C22.447 58.7434 22.256 56.8186 22.1414 55.158L21.9326 52.1389L24.7331 50.2101C26.273 49.1494 27.5763 48.2812 27.6287 48.2812C27.6812 48.2812 27.1977 49.2372 26.5538 50.4056Z" fill="#EEEEEE"/>
<path d="M54.4719 46.9394C55.8965 48.6921 57.1396 50.3198 57.2344 50.5566C57.3289 50.7934 56.8585 51.8099 56.1894 52.8159C55.52 53.8216 54.9722 54.7095 54.9722 54.7887C54.9722 54.8682 55.7668 55.5005 56.7375 56.1939C57.7082 56.8877 58.6352 57.5686 58.7973 57.7075C58.9593 57.8461 57.5976 61.6944 55.7711 66.2586L52.4505 74.5575L52.2316 62.6773C52.0191 51.146 51.8523 47.4855 51.4034 44.5113C51.1465 42.8089 51.0578 42.7384 54.4719 46.9394Z" fill="#EEEEEE"/>
<path d="M58.9701 52.7907C59.8231 53.2308 59.9442 53.5291 60.2976 56.0614C60.5117 57.5941 60.849 61.1936 61.047 64.0604C61.4482 69.8692 61.5084 69.4401 59.0498 78.3046C58.2825 81.0721 57.4671 84.4602 57.2378 85.8339L56.8215 88.3314L54.8882 88.9023C53.1125 89.427 52.9548 89.429 52.9548 88.9275C52.9548 88.6272 52.7837 85.9362 52.5749 82.9473L52.1949 77.5132L56.1053 67.7608C58.2559 62.3969 60.0158 57.8873 60.0158 57.7394C60.0158 57.5915 59.1093 56.833 58.0014 56.0534L55.987 54.6361L56.7405 53.4754C57.5976 52.1554 57.686 52.1282 58.9701 52.7907Z" fill="#EEEEEE"/>
<path d="M43.4588 161.187C43.2836 161.361 32.5116 159.683 29.2501 158.974C25.2855 158.111 20.9985 156.805 19.2854 155.937L18.0625 155.317L17.8365 151.028C17.5157 144.946 17.0326 128.647 17.1687 128.499C17.2313 128.43 17.9703 128.477 18.8113 128.603L20.3398 128.832V131.743L21.9369 132.108C26.043 133.048 34.1511 133.746 36.2956 133.345C37.5208 133.115 37.5229 133.111 37.4216 131.54L37.3198 129.965L33.7893 129.721C31.8475 129.586 28.5188 129.299 26.3921 129.081C23.1746 128.753 22.6948 128.634 23.534 128.378C27.3497 127.213 35.3293 124.5 39.001 123.12L43.372 121.476L43.4588 141.289C43.5065 152.186 43.5065 161.14 43.4588 161.187Z" fill="#EEEEEE"/>
<path d="M57.4584 119.382C61.6906 121.277 68.9029 123.091 73.8015 123.494L74.9783 123.591L74.86 125.772C74.7951 126.971 74.6811 128.052 74.6068 128.174C74.4229 128.475 70.5504 129.106 65.9793 129.58L62.2013 129.972L62.0994 131.543C61.9999 133.083 62.0201 133.119 63.1082 133.322C64.3647 133.556 70.8719 132.966 73.0578 132.419C73.8509 132.221 74.5486 132.117 74.6081 132.186C74.7581 132.362 74.1499 148.917 73.9609 149.803C73.7618 150.735 69.6342 154.235 66.3226 156.279C63.7073 157.894 58.108 160.551 57.8635 160.294C57.7623 160.187 54.9497 119.73 54.9679 118.643C54.9742 118.279 55.0314 118.296 57.4584 119.382Z" fill="#EEEEEE"/>
<path d="M74.8102 130.097C74.8102 130.682 74.594 131.15 74.2648 131.276C73.1018 131.721 67.4705 132.478 65.3115 132.479L63.0419 132.481V130.569L66.3202 130.337C68.1235 130.209 70.582 129.903 71.7841 129.656C74.8718 129.021 74.8102 129.012 74.8102 130.097Z" fill="#EEEEEE"/>
<path d="M31.6878 130.336L36.4792 130.572V132.481L33.0327 132.47C29.5305 132.46 25.9647 132.106 22.7775 131.453C21.2749 131.145 21.0123 130.978 21.0123 130.333C21.0123 129.915 21.0832 129.503 21.1696 129.416C21.256 129.33 22.5801 129.448 24.1117 129.679C25.6433 129.91 29.0524 130.205 31.6878 130.336Z" fill="#EEEEEE"/>
<path d="M53.4134 117.478C53.9329 117.857 54.1535 120.177 55.3199 137.512C56.2237 150.943 56.53 157.226 56.2933 157.463C55.8992 157.856 45.7318 157.948 44.8011 157.567C44.251 157.341 44.2126 156.15 44.2126 139.254V121.182L48.3315 119.14C50.5971 118.017 52.5348 117.087 52.6384 117.074C52.7416 117.061 53.0907 117.243 53.4134 117.478Z" fill="#60FFCF"/>
<path d="M51.4068 69.4988C51.5234 77.2942 51.7064 85.0315 51.8129 86.6937L52.007 89.7151L48.3618 90.9761C46.3572 91.6695 44.6037 92.2344 44.4648 92.2314C44.326 92.2283 44.2126 89.0395 44.2126 85.1449V78.064L40.0097 67.1882C37.698 61.2063 35.8067 56.2342 35.8067 56.1383C35.8067 56.0426 36.4893 56.4331 37.3235 57.0057C39.1765 58.2775 40.6475 58.9074 42.8795 59.3851C44.4312 59.7172 44.7365 59.674 46.3306 58.8957C47.2926 58.4261 48.6775 57.4308 49.4085 56.684C50.1395 55.937 50.8402 55.3258 50.966 55.3258C51.0914 55.3258 51.2898 61.7035 51.4068 69.4988Z" fill="#60FFCF"/>
<path d="M32.8105 64.6048C34.0014 65.9078 35.2405 67.7434 35.0545 67.9289C34.9705 68.0131 33.7896 66.8531 32.4302 65.3512C30.5658 63.2912 30.2023 62.7474 30.9494 63.1365C31.4941 63.4203 32.3317 64.0809 32.8105 64.6048Z" fill="#EEEEEE"/>
</svg>
