<svg width="30" height="30" viewBox="0 0 30 30" fill="none" xmlns="http://www.w3.org/2000/svg">
<path fill-rule="evenodd" clip-rule="evenodd" d="M7.94949 0.166779C7.51934 0.386135 7.17371 0.884336 7.10362 1.386C7.04337 1.81685 6.9892 1.87216 6.62418 1.87519C6.23221 1.8785 5.48004 2.06577 4.72875 2.34721C2.86766 3.04422 1.15238 4.74231 0.479324 6.55384C-0.0235081 7.90718 0.000175536 7.43869 0.000175536 16.0447C0.000175536 23.3171 0.00913082 23.8731 0.135468 24.4454C0.411234 25.6942 1.01176 26.8044 1.91988 27.7436C3.12448 28.9897 4.58265 29.715 6.29113 29.9182C7.18488 30.0245 22.7648 30.0285 23.6487 29.9227C25.2831 29.7271 26.6264 29.1094 27.7809 28.0226C29.0294 26.8476 29.7383 25.4393 29.9387 23.7366C29.9955 23.2536 30.0119 20.7455 29.9918 15.576C29.96 7.37422 29.9879 7.87963 29.4948 6.55211C28.8448 4.8018 27.2138 3.14784 25.4044 2.40403C24.7363 2.12944 23.7578 1.8772 23.3507 1.87468C22.9859 1.87237 22.9315 1.81699 22.8713 1.386C22.8371 1.14177 22.7343 0.884336 22.5848 0.669018C21.7146 -0.584164 19.7273 0.041021 19.7246 1.56879L19.7242 1.80315H14.9874H10.2507L10.2503 1.56879C10.2492 0.967622 9.86868 0.374886 9.33084 0.136926C8.90705 -0.0506295 8.35226 -0.0385875 7.94949 0.166779ZM10.1433 5.03003C10.0068 5.57625 9.2982 6.13027 8.73749 6.12926C8.1101 6.12818 7.52408 5.76006 7.27444 5.2103C7.10628 4.83988 7.02051 4.82978 6.19661 5.08332C5.05714 5.43405 4.08937 6.26187 3.58254 7.31949C3.20982 8.09726 3.14565 8.51239 3.14565 10.145V11.5379H14.9874H26.8292V10.145C26.8292 8.51138 26.7651 8.09747 26.3911 7.31675C25.8856 6.26151 24.9664 5.4771 23.781 5.08945C22.9747 4.82567 22.8697 4.83742 22.7004 5.2103C22.4508 5.76006 21.8648 6.12818 21.2374 6.12926C20.6767 6.13027 19.9681 5.57625 19.8316 5.03003L19.7821 4.83173H14.9874H10.1928L10.1433 5.03003ZM7.96237 15.5505C6.97033 16.0322 6.79751 17.3044 7.62747 18.0161C8.43441 18.7082 9.58692 18.504 10.0566 17.5857C10.3826 16.9483 10.2775 16.3205 9.7601 15.8157C9.25653 15.3244 8.62122 15.2306 7.96237 15.5505ZM14.3577 15.4941C13.1856 16.0129 13.1226 17.6318 14.2506 18.2421C14.9376 18.6139 15.8083 18.4047 16.276 17.7558C16.573 17.3435 16.6317 16.6784 16.4082 16.2551C16.0009 15.483 15.1207 15.1564 14.3577 15.4941ZM20.7611 15.4545C20.619 15.4986 20.3634 15.6704 20.193 15.8364C19.6889 16.3276 19.5916 16.9471 19.9183 17.5857C20.4056 18.5384 21.6107 18.7203 22.3921 17.959C23.5814 16.8002 22.3782 14.9527 20.7611 15.4545ZM8.21971 21.5762C7.78238 21.6928 7.26067 22.2338 7.14928 22.6861C6.97477 23.3949 7.29968 24.077 7.96592 24.4005C8.61574 24.7159 9.26489 24.6153 9.77402 24.12C10.9102 23.0147 9.77735 21.1609 8.21971 21.5762ZM14.6544 21.5532C13.879 21.748 13.4332 22.3038 13.4332 23.0759C13.4332 24.1272 14.5762 24.8794 15.5634 24.4776C16.7929 23.9773 16.8858 22.2847 15.7159 21.7001C15.3899 21.5372 14.9567 21.4773 14.6544 21.5532ZM20.9258 21.5595C20.502 21.6574 20.1259 21.9576 19.9183 22.3635C19.5917 23.0019 19.6889 23.622 20.1923 24.1116C20.7104 24.6157 21.3547 24.7181 22.009 24.4005C22.9514 23.9429 23.161 22.82 22.4507 22.0338C22.2322 21.7918 22.0588 21.6796 21.778 21.5984C21.3664 21.4793 21.2882 21.4757 20.9258 21.5595Z" fill="#143886"/>
</svg>
