<svg width="512" height="512" viewBox="0 0 512 512" fill="none" xmlns="http://www.w3.org/2000/svg">
<path d="M233.472 0H280.576L304.128 2.048L331.776 8.192L359.424 17.408L377.856 25.6L400.384 37.888L409.6 44.032L414.72 47.104L423.936 53.248V55.296L428.032 57.344L439.296 66.56L459.776 87.04L467.968 97.28L480.256 114.688L492.544 136.192L499.712 152.576L505.856 171.008L509.952 187.392L512 207.872V244.736L508.928 265.216L501.76 286.72L494.592 300.032L486.4 312.32L478.208 322.56L471.04 330.752L462.848 337.92L448.512 348.16L432.128 357.376L411.648 365.568L392.192 369.664L385.024 370.688L316.416 371.712L306.176 373.76L295.936 378.88L286.72 387.072L280.576 398.336L278.528 404.48L277.504 413.696L279.552 422.912L285.696 435.2L294.912 447.488L297.984 456.704L299.008 460.8V476.16L295.936 488.448L289.792 497.664L282.624 504.832L273.408 509.952L265.216 512H233.472L204.8 508.928L180.224 502.784L155.648 493.568L130.048 481.28L120.832 475.136L109.568 467.968L102.4 463.872L91.136 454.656L86.016 449.536L75.776 440.32L64.512 429.056L59.392 423.936L45.056 405.504L38.912 394.24L28.672 377.856L17.408 354.304L8.192 327.68L3.072 307.2L0 278.528V233.472L3.072 204.8L9.216 180.224L19.456 152.576L30.72 130.048L44.032 109.568L48.128 102.4L60.416 87.04L65.536 81.92L82.944 64.512L91.136 57.344L102.4 48.128L112.64 41.984L132.096 29.696L157.696 17.408L184.32 8.192L204.8 3.072L233.472 0ZM184.32 57.344L173.056 59.392L162.816 64.512L153.6 72.704L146.432 82.944L143.36 92.16V106.496L148.48 119.808L156.672 130.048L165.888 136.192L176.128 140.288L186.368 141.312L196.608 139.264L208.896 133.12L215.04 129.024L218.112 123.904L223.232 115.712L226.304 104.448V94.208L223.232 82.944L217.088 74.752L214.016 69.632L203.776 62.464L193.536 58.368L184.32 57.344ZM326.656 57.344L315.392 59.392L303.104 65.536L296.96 70.656L290.816 79.872V82.944H288.768L285.696 94.208V104.448L289.792 117.76L294.912 124.928L297.984 130.048L303.104 133.12L315.392 139.264L328.704 141.312L338.944 139.264L349.184 134.144L358.4 126.976L365.568 115.712L368.64 106.496V92.16L364.544 81.92L356.352 70.656L347.136 63.488L338.944 59.392L326.656 57.344ZM97.28 171.008L87.04 173.056L75.776 179.2L65.536 189.44L59.392 201.728L57.344 214.016L59.392 224.256L63.488 233.472L70.656 242.688L79.872 249.856L88.064 253.952L91.136 254.976H107.52L119.808 249.856L129.024 242.688L138.24 228.352L140.288 222.208L141.312 210.944L138.24 198.656L133.12 189.44L129.024 183.296L118.784 176.128L108.544 172.032L97.28 171.008ZM409.6 171.008L397.312 174.08L387.072 180.224L381.952 185.344L374.784 196.608L371.712 204.8L370.688 215.04L372.736 225.28L377.856 235.52L385.024 244.736L394.24 250.88L404.48 254.976H420.864L430.08 250.88L439.296 244.736L447.488 235.52L451.584 227.328L453.632 221.184L454.656 211.968L452.608 201.728L446.464 189.44L436.224 179.2L424.96 173.056L414.72 171.008H409.6Z" fill="white"/>
</svg>
