<svg width="426" height="420" viewBox="0 0 426 420" fill="none" xmlns="http://www.w3.org/2000/svg">
<path d="M201.728 0H224.256L244.736 2.048L251.904 5.12L257.024 10.24L263.168 26.624L274.432 60.416L278.528 65.536L286.72 69.632H297.984L323.584 59.392L339.968 53.248H353.28L361.472 58.368L373.76 70.656L380.928 79.872L387.072 88.064L397.312 103.424L400.384 111.616V118.784L397.312 126.976L387.072 141.312L381.952 149.504L376.832 158.72L370.688 168.96V177.152L375.808 187.392L386.048 194.56L412.672 209.92L420.864 216.064L423.936 219.136L425.984 225.28V238.592L422.912 262.144L415.744 286.72L410.624 296.96L401.408 302.08L398.336 303.104L352.256 307.2L342.016 311.296L336.896 319.488L335.872 322.56V331.776L338.944 352.256L339.968 366.592V381.952L336.896 389.12L325.632 397.312L297.984 411.648L282.624 417.792L271.36 419.84L262.144 417.792L257.024 412.672L242.688 398.336L235.52 390.144L228.352 382.976L222.208 377.856L211.968 375.808L202.752 378.88L189.44 391.168L174.08 407.552L164.864 416.768L160.768 418.816L152.576 419.84L140.288 416.768L123.904 409.6L100.352 397.312L89.088 389.12L86.016 381.952V366.592L88.064 346.112L90.112 332.8V322.56L84.992 312.32L77.824 308.224L62.464 306.176L28.672 303.104L20.48 300.032L14.336 295.936L9.216 283.648L3.072 262.144L0 238.592V225.28L3.072 218.112L10.24 211.968L34.816 197.632L46.08 190.464L51.2 185.344L55.296 177.152V168.96L52.224 162.816L45.056 152.576L40.96 144.384L29.696 128V125.952H27.648L25.6 118.784V111.616L29.696 101.376L39.936 87.04L48.128 75.776L60.416 62.464L68.608 55.296L72.704 53.248H86.016L123.904 67.584L128 69.632H139.264L147.456 65.536L152.576 58.368L166.912 14.336L172.032 6.144L177.152 3.072L188.416 1.024L201.728 0ZM211.968 150.528L197.632 152.576L184.32 157.696L173.056 164.864L167.936 168.96L159.744 180.224L153.6 192.512L150.528 203.776V224.256L154.624 237.568L160.768 249.856L167.936 259.072L182.272 269.312L197.632 275.456L214.016 277.504L228.352 275.456L241.664 270.336L252.928 263.168L258.048 259.072L268.288 244.736L273.408 232.448L275.456 224.256V203.776L271.36 189.44L264.192 177.152L258.048 168.96L246.784 160.768L234.496 154.624L223.232 151.552L211.968 150.528Z" fill="white"/>
</svg>
