<svg width="16" height="16" viewBox="0 0 16 16" fill="none" xmlns="http://www.w3.org/2000/svg">
<path fill-rule="evenodd" clip-rule="evenodd" d="M15.2839 3.56927C15.135 3.65951 15.0499 3.81045 15.0481 3.98733L15.0468 4.12018H13.564H12.0812V8.02734V11.9345H13.1738H14.2664V10.2153V8.49619H14.6566H15.0468V9.09133C15.0468 9.61399 15.054 9.7006 15.106 9.80268C15.1747 9.9375 15.3676 10.0591 15.5128 10.0591C15.661 10.0591 15.9677 9.9356 15.9677 9.73828V9.26576L15.999 3.88575L15.9212 3.74969C15.7816 3.50569 15.5139 3.42989 15.2839 3.56927ZM14.2664 7.55848V6.30819V5.0579H14.6566H15.0468V6.30819V7.55848H14.6566H14.2664Z" fill="white"/>
<path fill-rule="evenodd" clip-rule="evenodd" d="M1.37488 0.667721C1.37641 0.29876 1.42205 0.182733 1.6106 0.0684564C1.83593 -0.0681066 2.10983 0.00544178 2.2401 0.237496C2.29979 0.343833 2.31009 0.408723 2.31009 0.678317V0.994453H1.84183H1.37357V1.59143C1.37357 2.25278 1.39136 2.33314 1.56668 2.46292C1.79504 2.63193 2.12301 2.54944 2.24766 2.29163C2.30326 2.1766 2.31009 2.09862 2.31009 1.57846V0.994453H2.99688H3.68366V1.59143C3.68366 2.25278 3.70145 2.33314 3.87677 2.46292C4.10513 2.63193 4.4331 2.54944 4.55775 2.29163C4.61335 2.1766 4.62018 2.09862 4.62018 1.57846V0.994453H5.30697H5.99375V1.59143C5.99375 2.25278 6.01155 2.33314 6.18687 2.46292C6.41522 2.63193 6.74319 2.54944 6.86784 2.29163C6.92344 2.1766 6.93028 2.09862 6.93028 1.57846V0.994453H7.61706H8.30385V1.59143C8.30385 2.25278 8.32164 2.33314 8.49696 2.46292C8.72531 2.63193 9.05328 2.54944 9.17794 2.29163C9.23353 2.1766 9.24037 2.09862 9.24037 1.57846V0.994453H8.77211H8.30385V0.68063C8.30385 0.303917 8.35598 0.171699 8.54681 0.0642992C8.7776 -0.0655747 9.04139 0.00769229 9.17038 0.237496C9.22982 0.343364 9.24037 0.408942 9.24037 0.671971V0.981731L9.45995 1.01943C10.0106 1.11398 10.4244 1.49819 10.5674 2.0476C10.6012 2.17782 10.6139 2.3995 10.6139 2.86082V3.49503H5.30697H0V2.86082C0 2.3995 0.0127055 2.17782 0.0465765 2.0476C0.190427 1.4946 0.605869 1.11342 1.17019 1.01665L1.37357 0.981762L1.37488 0.667721ZM6.93028 0.994453V0.678317C6.93028 0.408723 6.91998 0.343833 6.86029 0.237496C6.7313 0.00769229 6.46751 -0.0655747 6.23672 0.0642992C6.04589 0.171699 5.99375 0.303917 5.99375 0.68063V0.994453H6.46202H6.93028ZM4.62018 0.994453V0.678317C4.62018 0.408723 4.60988 0.343833 4.5502 0.237496C4.4212 0.00769229 4.15742 -0.0655747 3.92663 0.0642992C3.73579 0.171699 3.68366 0.303917 3.68366 0.68063V0.994453H4.15192H4.62018ZM12.178 1.96199C12.3212 1.65617 12.5479 1.45606 12.8705 1.3505C12.9498 1.32456 13.0916 1.31168 13.2275 1.31812C13.6427 1.33775 13.9873 1.57268 14.1685 1.95968C14.2453 2.12368 14.2515 2.1701 14.2612 2.6589L14.2717 3.18246H13.1738H12.0759L12.0863 2.6589C12.0961 2.17194 12.1025 2.12321 12.178 1.96199ZM0.0468262 15.0133L0.0386784 9.72304L0.0304995 4.43275H5.32223H10.6139V9.57304C10.6139 13.2624 10.604 14.7601 10.5788 14.879C10.5301 15.1088 10.3851 15.3843 10.22 15.5611C10.0592 15.7332 9.73545 15.9131 9.49638 15.9632C9.26119 16.0126 1.34959 16.0121 1.11755 15.9628C0.720249 15.8783 0.363715 15.6072 0.168325 15.241L0.0468262 15.0133ZM1.87305 6.46447C1.87305 6.31416 1.98353 6.12974 2.11533 6.06007C2.22921 5.9999 2.30713 5.99833 5.30041 5.99699C8.3154 5.99565 8.3709 5.99671 8.49196 6.05853C8.63047 6.1293 8.74089 6.30937 8.74089 6.46447C8.74089 6.61957 8.63047 6.79964 8.49196 6.87041C8.37096 6.93221 8.31399 6.93333 5.30697 6.93333C2.29995 6.93333 2.24297 6.93221 2.12198 6.87041C1.98346 6.79964 1.87305 6.61957 1.87305 6.46447ZM1.87305 8.33991C1.87305 8.18959 1.98353 8.00517 2.11533 7.9355C2.22921 7.87533 2.30713 7.87377 5.30041 7.87242C8.3154 7.87108 8.3709 7.87214 8.49196 7.93397C8.63047 8.00474 8.74089 8.18481 8.74089 8.33991C8.74089 8.49501 8.63047 8.67508 8.49196 8.74585C8.37096 8.80764 8.31399 8.80877 5.30697 8.80877C2.29995 8.80877 2.24297 8.80764 2.12198 8.74585C1.98346 8.67508 1.87305 8.49501 1.87305 8.33991ZM1.87305 10.2153C1.87305 10.065 1.98353 9.88061 2.11533 9.81094C2.22921 9.75077 2.30713 9.7492 5.30041 9.74786C8.3154 9.74652 8.3709 9.74758 8.49196 9.80941C8.63047 9.88017 8.74089 10.0602 8.74089 10.2153C8.74089 10.3704 8.63047 10.5505 8.49196 10.6213C8.37096 10.6831 8.31399 10.6842 5.30697 10.6842C2.29995 10.6842 2.24297 10.6831 2.12198 10.6213C1.98346 10.5505 1.87305 10.3704 1.87305 10.2153ZM1.87305 12.0908C1.87305 11.9405 1.98353 11.756 2.11533 11.6864C2.22921 11.6262 2.30713 11.6246 5.30041 11.6233C8.3154 11.622 8.3709 11.623 8.49196 11.6848C8.63047 11.7556 8.74089 11.9357 8.74089 12.0908C8.74089 12.2459 8.63047 12.426 8.49196 12.4967C8.37096 12.5585 8.31399 12.5596 5.30697 12.5596C2.29995 12.5596 2.24297 12.5585 2.12198 12.4967C1.98346 12.426 1.87305 12.2459 1.87305 12.0908ZM12.5512 14.7566C12.2902 14.2392 12.1387 13.7052 12.0943 13.1457L12.0726 12.8722H13.1738H14.275L14.2531 13.1457C14.2082 13.7093 14.0622 14.222 13.7947 14.7553C13.6453 15.0533 13.642 15.0661 13.642 15.3449C13.642 15.5823 13.6303 15.6508 13.572 15.7547C13.4431 15.9845 13.1793 16.0577 12.9485 15.9279C12.7629 15.8234 12.7055 15.6856 12.7055 15.3439C12.7055 15.0687 12.7021 15.0557 12.5512 14.7566ZM1.87305 13.9662C1.87305 13.8159 1.98353 13.6315 2.11533 13.5618C2.22868 13.5019 2.30475 13.5001 4.75411 13.4987C7.2216 13.4974 7.27882 13.4987 7.39935 13.5603C7.53786 13.631 7.64828 13.8111 7.64828 13.9662C7.64828 14.1213 7.53786 14.3014 7.39935 14.3722C7.27891 14.4337 7.22016 14.4351 4.76066 14.4351C2.30116 14.4351 2.24241 14.4337 2.12198 14.3722C1.98346 14.3014 1.87305 14.1213 1.87305 13.9662Z" fill="white"/>
</svg>
