<svg width="23" height="19" viewBox="0 0 23 19" fill="none" xmlns="http://www.w3.org/2000/svg">
<path fill-rule="evenodd" clip-rule="evenodd" d="M10.9943 0.0460668C10.8404 0.0790339 10.5983 0.164537 10.4561 0.23605C10.3012 0.31403 8.20598 1.93542 5.22232 4.28622C-0.21572 8.57088 0.0488183 8.34011 0.00500507 8.83812C-0.0259826 9.18998 0.0811065 9.42096 0.489821 9.88415C0.90432 10.3539 1.11222 10.4749 1.55017 10.5015C1.77655 10.5152 1.87019 10.4989 2.06589 10.4119C2.22787 10.3398 3.7846 9.13897 6.89091 6.6899L11.4768 3.07426L16.0616 6.68981C19.1648 9.13686 20.7238 10.3397 20.8857 10.4118C21.1845 10.5448 21.5665 10.5357 21.8901 10.3877C22.1283 10.2789 22.7435 9.62608 22.8516 9.36767C22.8856 9.28631 22.9331 9.18673 22.9571 9.14637C23.0108 9.05621 23.0157 8.63555 22.9627 8.6664C22.9417 8.67866 22.9013 8.6156 22.8729 8.52629C22.8445 8.43698 22.7457 8.28669 22.6532 8.19222C22.396 7.92946 12.83 0.415678 12.5745 0.275779C12.1179 0.0257794 11.5048 -0.0634007 10.9943 0.0460668ZM7.3837 7.60537L3.35889 10.7825L3.3615 14.0164C3.36437 17.6208 3.35966 17.56 3.67245 18.0464C3.86479 18.3455 4.06856 18.5338 4.40709 18.7251C4.87451 18.9893 5.08286 19.0105 7.0606 18.9959C8.76335 18.9834 8.81219 18.9807 8.99264 18.8897C9.23301 18.7686 9.51764 18.4616 9.58441 18.2516C9.6223 18.1324 9.63715 17.3699 9.63715 15.5441V13.0025H11.4758H13.3144V15.5441C13.3144 17.3699 13.3293 18.1324 13.3671 18.2516C13.4339 18.4616 13.7186 18.7686 13.9589 18.8897C14.1394 18.9807 14.1882 18.9834 15.891 18.9959C17.3619 19.0068 17.6887 18.9982 17.9595 18.9414C18.5315 18.8214 19.0549 18.4473 19.3369 17.9569C19.5867 17.5224 19.5911 17.4537 19.5919 13.9735L19.5927 10.7812L15.5708 7.61251C13.3588 5.86969 11.5174 4.44023 11.4787 4.43597C11.4401 4.4317 9.59737 5.8579 7.3837 7.60537ZM0.0094447 8.92388C0.00966892 9.06335 0.0180549 9.1153 0.0280552 9.03935C0.0380108 8.9634 0.0378314 8.84928 0.0276068 8.78576C0.0173374 8.72223 0.00917563 8.7844 0.0094447 8.92388Z" fill="#F4F8FF"/>
</svg>
