<svg width="13" height="17" viewBox="0 0 13 17" fill="none" xmlns="http://www.w3.org/2000/svg">
<path d="M0.795213 0H7.60638L7.64096 4.25L7.71011 4.59L7.91755 4.964L8.22872 5.168L8.43617 5.236L8.67819 5.27L13 5.304V16.218L12.8617 16.524L12.6888 16.762L12.4468 16.932L12.1702 17H0.795213L0.518617 16.898L0.242021 16.66L0.0691489 16.422L0 16.218V0.782L0.138298 0.476L0.276596 0.272L0.553191 0.068L0.795213 0ZM8.67819 7.446V14.858H10.8218V7.446H8.67819ZM5.42819 9.588V14.858H7.57181V9.588H5.42819ZM2.17819 11.696V14.858H4.32181V11.696H2.17819Z" fill="#F4F8FF"/>
<path d="M8.64362 0L8.81649 0.068L8.92021 0.17V0.238L9.05851 0.306L9.30053 0.544L9.54255 0.816L10.1995 1.462L10.3723 1.598V1.666L10.5106 1.734L10.7527 1.972L10.9947 2.244L11.617 2.856L11.8245 3.026V3.094L11.9628 3.162L12.516 3.74L13 4.216V4.25H8.64362V0Z" fill="#F4F8FF"/>
</svg>
