<svg width="21" height="21" viewBox="0 0 21 21" fill="none" xmlns="http://www.w3.org/2000/svg">
<path fill-rule="evenodd" clip-rule="evenodd" d="M11.2812 0.0495901C11.0626 0.137264 10.8452 0.333094 10.7153 0.559291C10.5883 0.780587 10.521 1.20584 10.5206 1.79118C10.5202 2.2364 10.5672 2.19691 9.9843 2.2413C8.87247 2.32595 7.29444 2.73734 6.19358 3.2295C3.29587 4.52504 1.11093 6.91063 0.293402 9.6715C0.159012 10.1254 0 10.8866 0 11.0762C0 11.3852 0.314576 11.6652 0.661743 11.6652C0.950131 11.6652 1.07096 11.5883 1.45711 11.1592C3.10982 9.32256 5.52212 8.19034 8.19233 7.99794C8.80536 7.95378 9.17285 7.96343 10.039 8.04644L10.5202 8.09259L10.5206 8.53386C10.5212 9.44204 10.628 9.84558 10.9413 10.1245C11.2819 10.4277 11.7389 10.4774 12.2254 10.2641C12.4779 10.1534 12.7599 9.91819 14.5783 8.30141C15.7684 7.24323 16.712 6.3716 16.8042 6.24535C17.2404 5.64734 17.2746 4.8939 16.8938 4.26903C16.7128 3.97198 12.4974 0.230078 12.2073 0.108929C11.9276 -0.00787579 11.4939 -0.0356523 11.2812 0.0495901ZM19.0637 8.77684C18.9983 8.80844 18.7742 9.01846 18.5657 9.2435C16.9914 10.9428 14.9367 11.9886 12.5108 12.3252C11.9194 12.4073 10.5275 12.4121 9.91585 12.3342L9.51295 12.2829L9.48967 11.5456C9.46285 10.6951 9.40403 10.5127 9.06765 10.2367C8.83316 10.0443 8.6147 9.97764 8.28831 9.99885C7.79139 10.0312 7.75719 10.0566 5.43062 12.1215C3.35706 13.962 3.26713 14.0479 3.11555 14.3352C2.7887 14.9546 2.81207 15.5817 3.18386 16.1684C3.28485 16.3277 3.89865 16.8999 5.43299 18.2648C7.2212 19.8555 7.5826 20.1588 7.80129 20.2524C8.45068 20.5301 9.03564 20.3598 9.34234 19.8038C9.46294 19.5852 9.46881 19.5471 9.48376 18.8893L9.49938 18.203L9.64044 18.1839C9.71807 18.1734 9.91249 18.1541 10.0725 18.1411C10.5031 18.1061 11.4639 17.9347 11.9819 17.8005C15.0087 17.0161 17.5519 15.1149 18.9364 12.6017C19.4921 11.5929 19.8158 10.6964 19.9909 9.68079L20.0679 9.23465L19.961 9.04982C19.7881 8.75105 19.3762 8.62572 19.0637 8.77684Z" fill="white"/>
</svg>
