<svg width="16" height="16" viewBox="0 0 16 16" fill="none" xmlns="http://www.w3.org/2000/svg">
<path d="M2.11623 0H9.2024L9.68337 0.096L10.1964 0.352L10.517 0.608L10.8056 0.928L11.0621 1.344L11.1904 1.6L11.3186 2.112V3.936L11.2224 4.128L11.0621 4.288L10.8697 4.384H10.485L10.2926 4.288L10.1323 4.128L10.0361 3.936L10.004 2.528L9.93988 2.144L9.77956 1.824L9.55511 1.568L9.26653 1.376L9.04208 1.312L8.78557 1.28H2.53307L2.1483 1.344L1.82766 1.504L1.57114 1.728L1.37876 2.048L1.31463 2.272L1.28257 2.528V13.472L1.34669 13.856L1.50701 14.176L1.73146 14.432L2.0521 14.624L2.27655 14.688H9.04208L9.39479 14.56L9.71543 14.272L9.90781 13.952L9.97194 13.76L10.004 13.472L10.0361 12.064L10.1323 11.872L10.2926 11.712L10.485 11.616H10.8697L11.0621 11.712L11.2224 11.872L11.3186 12.064V13.888L11.1904 14.4L10.998 14.784L10.7094 15.168L10.4208 15.488L9.97194 15.776L9.58717 15.936L9.2024 16H2.11623L1.6994 15.936L1.18637 15.68L0.833667 15.424L0.513026 15.104L0.224449 14.656L0.0641283 14.304L0 13.888V2.112L0.0641283 1.728L0.224449 1.344L0.448898 0.992L0.737475 0.672L1.02605 0.416L1.47495 0.16L1.6994 0.064L2.11623 0Z" fill="white"/>
<path d="M13.499 5.344H13.9479L14.1723 5.44L14.2365 5.568L14.3647 5.632L14.5892 5.856L14.8136 6.112L15.3908 6.688L15.5832 6.848V6.912L15.7114 6.976L15.9038 7.296L16 7.616V8.448L15.9038 8.768L15.7114 9.088L15.1984 9.568L14.6212 10.144L14.3968 10.4L14.1403 10.624L13.9479 10.72H13.499L13.2104 10.528L13.0822 10.272V9.92L13.2104 9.664L14.1723 8.704L6.57315 8.672L6.38076 8.576L6.22044 8.416L6.12425 8.224V7.84L6.25251 7.584L6.47695 7.424L6.57315 7.392L14.1723 7.36L13.1784 6.368L13.0822 6.144V5.792L13.2104 5.536L13.3387 5.408L13.499 5.344Z" fill="white"/>
</svg>
