<svg width="16" height="19" viewBox="0 0 16 19" fill="none" xmlns="http://www.w3.org/2000/svg">
<path fill-rule="evenodd" clip-rule="evenodd" d="M4.7558 0.0467076C4.60925 0.111973 4.47655 0.251495 4.42015 0.39969C4.39674 0.461154 4.37768 0.785582 4.37768 1.12245V1.73372H3.18555C2.47528 1.73372 1.90821 1.75126 1.78252 1.77716C1.38206 1.85966 1.00143 2.07474 0.67525 2.40289C0.329645 2.75053 0.188426 2.99112 0.0781332 3.42022C0.0012348 3.71946 -0.000596208 3.87934 8.04338e-05 10.3438C0.000677471 15.9331 0.00963306 17.0027 0.0577941 17.2287C0.194914 17.8726 0.666613 18.4648 1.27308 18.7544C1.45916 18.8433 1.71768 18.935 1.84759 18.9583C2.00835 18.9872 3.97766 19.0004 8.01698 19C13.0119 18.9994 13.9927 18.9903 14.2191 18.9426C14.8663 18.8061 15.4615 18.3368 15.7525 17.7334C15.8419 17.5482 15.934 17.291 15.9575 17.1617C15.9865 17.0011 16 14.8371 16 10.3266C16 3.84057 15.9986 3.72116 15.9198 3.41463C15.7161 2.62217 15.0064 1.93977 14.2169 1.77716C14.0912 1.75126 13.5241 1.73372 12.8139 1.73372H11.6217V1.08613C11.6217 0.479728 11.616 0.430184 11.5322 0.307613C11.4829 0.235614 11.3921 0.139418 11.3303 0.0938352C11.2187 0.0115796 11.1952 0.0109064 8.04655 0.00227292C5.46397 -0.00485563 4.85304 0.0034214 4.7558 0.0467076ZM4.38393 3.26921C4.4012 3.57312 4.49657 3.74726 4.70919 3.86298C4.82597 3.92654 5.07159 3.93169 7.9997 3.93169C11.1209 3.93169 11.1659 3.93058 11.3033 3.85027C11.5051 3.73233 11.6203 3.50707 11.6211 3.22874L11.6217 3.00102H12.7614C14.0199 3.00102 14.1179 3.01492 14.3698 3.22945C14.6544 3.4719 14.7025 3.61352 14.7192 4.25842L14.7338 4.82276H8.00344H1.27308V4.33477C1.27308 3.60825 1.40646 3.31761 1.83808 3.10359L2.04497 3.00102H3.20681H4.36868L4.38393 3.26921ZM12.4552 8.14819C12.9071 8.37761 12.9002 9.03554 12.4435 9.25549C12.2744 9.33692 12.2425 9.33751 7.89757 9.33688L3.52192 9.3362L3.36271 9.24757C3.19057 9.15177 3.02439 8.88469 3.02439 8.70386C3.02439 8.52303 3.19057 8.25595 3.36271 8.16015L3.52192 8.07152L7.91174 8.07085C12.2006 8.07021 12.3051 8.07199 12.4552 8.14819ZM8.23915 11.4702C8.65123 11.6881 8.69831 12.2548 8.32763 12.5361L8.18506 12.6444L5.85351 12.6542L3.52192 12.6639L3.36271 12.5747C3.19061 12.4784 3.02439 12.211 3.02439 12.0305C3.02439 11.8497 3.19057 11.5826 3.36271 11.4868L3.52192 11.3982L5.8112 11.3975C7.96356 11.3969 8.10876 11.4013 8.23915 11.4702ZM12.522 14.7878C12.7222 14.8823 12.8289 15.0554 12.8472 15.315C12.8643 15.5595 12.781 15.7283 12.5641 15.8882C12.4519 15.9709 12.4457 15.971 8.05336 15.9816C5.13655 15.9886 3.6038 15.9785 3.50314 15.9515C3.29871 15.8968 3.08123 15.654 3.04489 15.4399C3.00915 15.2293 3.14424 14.9409 3.33875 14.8127L3.474 14.7235H7.92993C11.9587 14.7235 12.3989 14.7297 12.522 14.7878Z" fill="white"/>
</svg>
