<svg width="19" height="17" viewBox="0 0 19 17" fill="none" xmlns="http://www.w3.org/2000/svg">
<path d="M14.3739 3.7823H14.9522L15.5304 3.90431L16.0261 4.10766L16.2739 4.27034L16.687 4.63636L17.0174 5.00239L17.3065 5.49043L17.4717 6.01914L17.513 6.30383V6.87321L17.3891 7.44258L17.1826 7.93062L16.8935 8.37799L16.4804 8.74402L16.1087 9.02871L15.6543 9.23206L15.5304 9.27273L15.5717 9.3134L16.1913 9.43541L16.8109 9.67943L17.3065 9.96411L17.7196 10.2895L18.0087 10.5335L18.5043 11.2249L18.7522 11.7536L18.9174 12.2416L19 12.689V15.9833L18.8348 16.39L18.6283 16.6746L18.3391 16.878L17.8848 17H11.4413L10.9043 16.8373L10.6978 16.6746L10.45 16.3086L10.3261 15.9833V12.689L10.4913 11.9569L10.7804 11.3062L11.0696 10.8589L11.4826 10.4115L11.6891 10.2081L12.2674 9.80144L12.8043 9.55742L13.4652 9.35407L13.7543 9.3134L13.7957 9.27273L13.3 9.06938L13.0109 8.9067V8.82536L12.8457 8.74402L12.35 8.25598L12.1022 7.84928L11.8957 7.32057L11.813 6.87321V6.30383L11.937 5.73445L12.1435 5.24641L12.4739 4.79904L12.9283 4.35167H13.0109V4.27034L13.6717 3.94498L14.0848 3.82297L14.3739 3.7823Z" fill="#F4F8FF"/>
<path d="M1.9413 0H14.0848L14.7457 0.162679L15.2 0.447368L15.5717 0.813397L15.8609 1.30144L15.9848 1.7488V3.29426L15.3239 3.13158L14.663 3.05024L14.6217 2.1555L14.5391 1.78947L14.3326 1.58612L14.0848 1.42344L13.9196 1.38278H2.06522L1.69348 1.54545L1.48696 1.7488L1.40435 1.95215V9.51675L1.56957 9.8421L1.81739 10.0455L2.02391 10.1268L10.6152 10.1675L10.5326 10.3708L10.2435 10.7775L9.91304 11.4282L9.66522 12.1196L9.58261 12.567L9.5413 13.177L9.5 15.7392H2.18913L1.9413 15.6172L1.73478 15.3732V14.7632L1.9413 14.2751L2.31304 13.8684L2.64348 13.6651L2.93261 13.5837H5.61739V12.7703H1.8587L1.36304 12.6483L0.991304 12.445L0.578261 12.0789L0.28913 11.7536L0.0826087 11.3062L0 10.9809V1.78947L0.165217 1.26077L0.454348 0.772727L0.784783 0.447368L1.28043 0.12201L1.9413 0ZM7.88913 10.8589L7.6413 10.9809L7.47609 11.1842L7.39348 11.3876L7.43478 11.7129L7.6413 11.9569L7.80652 12.0383H8.13696L8.42609 11.9163L8.5913 11.6316V11.3062L8.42609 11.0622L8.21956 10.8995L7.88913 10.8589Z" fill="#F4F8FF"/>
<path d="M7.6 2.11483H8.42609L8.96304 2.31818L9.41739 2.64354L9.78913 3.21292L9.95435 3.70096V4.39234L9.78913 4.92105L9.33478 5.5311L8.96304 5.77512L8.67391 5.89713L9.33478 5.97847L9.99565 6.26316L10.3674 6.54785L10.5739 6.7512L10.9043 7.11723L11.1109 7.52392L11.2348 8.13397V9.39474H4.7087V8.25598L4.83261 7.64593L5.16304 6.99522L5.7 6.46651L6.23696 6.14115L6.65 5.97847L7.31087 5.89713L6.81522 5.65311L6.56739 5.44976L6.23696 5.00239L6.11304 4.67703L6.03043 4.31101V3.7823L6.19565 3.17225L6.44348 2.80622L6.65 2.60287L6.89783 2.39952L7.31087 2.19617L7.6 2.11483Z" fill="#F4F8FF"/>
</svg>
