<svg width="21" height="21" viewBox="0 0 21 21" fill="none" xmlns="http://www.w3.org/2000/svg">
<path fill-rule="evenodd" clip-rule="evenodd" d="M1.5346 13.1143V16.9386H6.4733H11.412L11.437 16.27C11.4543 15.8063 11.4931 15.4893 11.5634 15.236C11.9147 13.97 12.8629 12.8477 14.0794 12.2581C14.7406 11.9376 15.625 11.7541 16.3659 11.7837L16.7832 11.8004V10.5451V9.28987H9.1589H1.5346V13.1143ZM2.74192 10.7558C2.57565 10.3938 2.73189 9.98924 3.10691 9.81041C3.34675 9.6961 3.52218 9.68676 3.74063 9.77681C4.07878 9.91617 4.29241 10.2927 4.2167 10.6159C4.04921 11.3313 3.04977 11.4261 2.74192 10.7558ZM14.2587 10.0327C14.3304 9.94208 14.462 9.83213 14.551 9.78844C14.758 9.68676 15.1347 9.71177 15.3131 9.83898C15.6668 10.0913 15.7709 10.529 15.5519 10.8421C15.211 11.3293 14.5933 11.3425 14.23 10.8702C14.0727 10.6657 14.0869 10.2496 14.2587 10.0327ZM9.59897 12.2871C10.1827 11.7216 10.6497 11.3086 10.7666 11.2543C11.4768 10.9244 12.1556 11.6967 11.723 12.3425C11.5054 12.6673 9.13386 14.9063 8.91351 14.995C8.78261 15.0477 8.66169 15.0605 8.50482 15.0382C8.29607 15.0085 8.22864 14.9557 7.43781 14.2012C6.97348 13.7582 6.56245 13.3388 6.52435 13.2691C6.41776 13.0741 6.43671 12.7555 6.56586 12.571C6.7941 12.2447 7.15841 12.1201 7.50884 12.2484C7.58279 12.2756 7.86448 12.5073 8.13476 12.7635L8.62622 13.2294L9.59897 12.2871ZM2.6802 15.8635C2.63645 15.614 2.8018 15.2723 3.03988 15.1203C3.47322 14.8438 4.0972 15.1022 4.21543 15.6072C4.30001 15.9684 3.98748 16.4269 3.61017 16.495C3.20118 16.5689 2.7502 16.2627 2.6802 15.8635Z" fill="white"/>
<path fill-rule="evenodd" clip-rule="evenodd" d="M8.55505 0.073002C7.76996 0.276328 7.16358 0.857869 6.92335 1.6379C6.88014 1.77807 6.84482 1.96445 6.84482 2.05211C6.84482 2.06254 6.84536 2.07169 6.84587 2.0803C6.84625 2.08686 6.84662 2.0931 6.84672 2.09935C6.84858 2.22153 6.74612 2.3453 4.63963 4.88993L4.18971 5.43348L2.24101 7.78794L1.38348 7.78813C0.574526 7.78827 0.516796 7.79423 0.364895 7.89385C0.276326 7.95194 0.157991 8.05902 0.101917 8.1319C4.86672e-05 8.26432 0 8.26686 0 13.1143C0 17.9394 0.000535898 17.9647 0.100456 18.0937C0.155701 18.165 0.261418 18.2668 0.33542 18.32C0.469053 18.4161 0.507734 18.4169 6.18869 18.4402L11.9074 18.4637L12.0921 18.7561C12.7813 19.8474 13.7844 20.5598 15.1268 20.9115C15.6089 21.0379 16.8696 21.0268 17.3763 20.8917C19.1631 20.4157 20.4456 19.1645 20.8862 17.4677C21.0387 16.8806 21.0378 15.9142 20.8843 15.3225C20.7554 14.8257 20.4257 14.1335 20.1264 13.7312C19.7331 13.2027 18.9207 12.5125 18.4894 12.3404L18.3451 12.2829L18.3315 10.2736C18.3182 8.31894 18.315 8.26071 18.2159 8.13185C18.1598 8.05902 18.0415 7.95194 17.9529 7.89385C17.801 7.79423 17.7434 7.78827 16.9342 7.78827H16.0765L14.0475 5.33644L13.5266 4.70718C11.5653 2.33784 11.4658 2.21759 11.47 2.10106C11.4702 2.09483 11.4707 2.08861 11.4712 2.08206C11.4721 2.07201 11.473 2.06117 11.473 2.04831C11.473 1.61026 11.0964 0.881426 10.7021 0.556376C10.1113 0.069248 9.2864 -0.116481 8.55505 0.073002ZM8.78665 1.60158C8.27526 1.88717 8.29032 2.64031 8.81208 2.87883C9.30958 3.10623 9.85123 2.81718 9.90316 2.29654C9.96099 1.71697 9.30783 1.31046 8.78665 1.60158ZM5.90564 5.80855L4.26659 7.7648L6.72863 7.77696C8.08278 7.78367 10.2838 7.78367 11.6198 7.77696L14.0488 7.7648L12.4117 5.80799L10.7746 3.85117L10.5951 3.98809C10.1361 4.33825 9.66693 4.47588 9.02483 4.44871C8.6444 4.43261 8.52236 4.40624 8.24072 4.27922C8.05725 4.19649 7.8256 4.06655 7.72592 3.99053L7.54469 3.85225L5.90564 5.80855ZM1.5346 13.1143V16.9386H6.4733H11.412L11.437 16.27C11.4543 15.8063 11.4931 15.4893 11.5634 15.236C11.9147 13.97 12.8629 12.8477 14.0794 12.2581C14.7406 11.9376 15.625 11.7541 16.3659 11.7837L16.7832 11.8004V10.5451V9.28987H9.1589H1.5346V13.1143ZM15.5417 13.3532C13.4701 13.7999 12.3893 15.9704 13.3261 17.8032C13.851 18.8302 15.0128 19.5179 16.2229 19.5179C17.082 19.5179 17.8468 19.2083 18.4682 18.609C19.15 17.9517 19.4357 17.2989 19.4357 16.399C19.4357 15.5111 19.1481 14.8445 18.4925 14.213C17.879 13.6221 17.2031 13.3345 16.3447 13.299C16.0352 13.2862 15.7692 13.3042 15.5417 13.3532ZM15.8039 14.1352C15.7128 14.1935 15.588 14.3361 15.5265 14.452C15.4187 14.6551 15.4151 14.6987 15.429 15.6504C15.4451 16.7478 15.45 16.7665 15.7919 17.0176L15.9718 17.1498H17.023C18.0418 17.1498 18.0799 17.1464 18.2584 17.0395C18.6129 16.8272 18.7305 16.3887 18.5267 16.0394C18.3478 15.7328 18.1752 15.6625 17.534 15.6353L16.9781 15.6116V15.0724C16.9781 14.6105 16.9637 14.5107 16.8782 14.3774C16.6561 14.0313 16.146 13.9163 15.8039 14.1352Z" fill="white"/>
</svg>
