<svg width="19" height="17" viewBox="0 0 19 17" fill="none" xmlns="http://www.w3.org/2000/svg">
<path d="M7.61954 0H8.69409L9.52442 0.151786L10.3548 0.556548L10.9897 1.0625L11.4781 1.66964L11.9177 2.37798L12.2108 3.28869L12.2596 3.54167V4.90774L12.0643 5.71726L11.7224 6.42559L11.2828 7.03274L10.7943 7.58929L10.1105 8.04464L9.42673 8.34821L8.84062 8.4494H7.52185L6.7892 8.29762L6.20308 8.04464L5.61697 7.63988L5.22622 7.28571L4.73779 6.62798L4.34704 5.91964L4.10283 5.11012L4.05398 4.75595V3.69345L4.20051 2.98512L4.44473 2.32738L4.78663 1.77083L5.27506 1.1131L5.7635 0.708333L6.4473 0.303571L6.98458 0.10119L7.61954 0Z" fill="#F4F8FF"/>
<path d="M7.61954 10.5238H8.69409L9.18252 10.5744L9.08483 10.8274L8.15681 11.7887L7.81491 12.3452L7.57069 12.9524L7.47301 13.6101L7.52185 14.2679L7.71722 14.9256L8.01028 15.4821L8.44987 15.9881L9.08483 16.6458L9.18252 16.8988H0V14.3185L0.195373 13.7619L0.537275 13.2054L0.976864 12.75H1.12339L1.17224 12.5982L1.85604 12.1429L2.58869 11.7381L3.56555 11.3333L4.68895 10.9792L5.71465 10.7262L7.03342 10.5744L7.61954 10.5238Z" fill="#F4F8FF"/>
<path d="M17.6324 9.36012H18.2185L18.6093 9.5625L18.9023 9.91667L19 10.119V10.7768L18.8046 11.1815L17.4859 12.5476L17.2416 12.75L16.8997 13.1548L13.4319 16.747L13.09 16.9494L12.8946 17H12.5527L12.1131 16.8482L11.8201 16.5952V16.494L11.6247 16.3929L10.8432 15.5327L10.0617 14.7232L9.81748 14.5208L9.57327 14.1161L9.52442 13.9137V13.5089L9.71979 13.003L10.0129 12.75L10.3059 12.6488H10.892L11.3316 12.8512L12.6992 14.2679L13.0411 13.9643L13.7738 13.1548L14.1645 12.75L14.5553 12.3958L15.3368 11.5863L15.6787 11.1815L16.1671 10.6756L16.5578 10.3214L17.3393 9.5119L17.6324 9.36012Z" fill="#F4F8FF"/>
</svg>
