<svg width="22" height="26" viewBox="0 0 22 26" fill="none" xmlns="http://www.w3.org/2000/svg">
<path d="M7.5023 0H10.7972L11.2028 0.253456L11.4055 0.557604L11.4562 0.709677V1.36866H12.7235L13.1797 1.67281L13.3318 1.92627L17.0829 1.97696L17.5899 2.12903L17.9447 2.3318L18.2488 2.83871L18.2995 3.09217V6.64055L18.1982 6.84332L17.9954 6.9447L17.5899 6.89401L17.4378 6.69124L17.3871 3.09217L17.3364 2.94009L16.9816 2.83871L13.4332 2.78802V3.447H16.1198L16.4747 3.54839L16.7281 3.80184L16.8295 4.0553L16.8802 9.42857L17.4378 8.56682L17.9954 7.65438L18.7558 6.48848L19.212 5.98157L19.5668 5.7788L19.7696 5.72811H20.3272L20.8341 5.93088L21.4424 6.33641L21.7972 6.64055L22 7.09677V7.90783L21.7972 8.31336L21.4931 8.76959L21.2903 9.17512L20.682 10.1382L20.3272 10.6452L19.7189 11.6083L19.3134 12.2673L18.553 13.4839L17.8433 14.5991L17.4885 15.106L17.235 15.5622L16.8802 16.1705L16.8295 23.318L16.6774 23.6221L16.3733 23.8756H1.92627L1.62212 23.6728L1.47005 23.4194V3.95392L1.67281 3.64977L1.87558 3.4977L2.12903 3.447H4.76498V2.78802L1.26728 2.83871L0.963134 2.99078L0.861751 3.14286V24.2304L1.11521 24.4839L1.31797 24.5346H16.9309L17.3364 24.4332L17.3871 24.2811L17.4378 15.5622L17.6912 15.3088H18.0461L18.2488 15.4608L18.2995 15.6129V24.2811L18.1475 24.7373L17.894 25.0922L17.6912 25.2442L17.3364 25.3456H0.912442L0.456221 25.1429L0.152074 24.788L0 24.4332V2.94009L0.202765 2.48387L0.608295 2.12903L0.861751 2.02765L1.1659 1.97696L4.86636 1.92627L5.2212 1.52074L5.57604 1.36866H6.79263V0.81106L6.9447 0.40553L7.19816 0.101382L7.5023 0ZM7.85714 0.760369L7.65438 0.861751L7.60369 0.963134L7.553 1.77419L7.29954 2.02765L7.04608 2.12903L5.7788 2.17972L5.62673 2.38249V3.447H12.6221V2.3318L12.47 2.17972L11.1521 2.12903L10.7972 1.92627L10.6959 1.67281L10.6452 0.912442L10.3917 0.760369H7.85714ZM2.3318 4.25806V23.1152H9.52995L10.2903 20.0737L10.6452 19.3641L10.7465 19.1106H10.8479L11.2028 18.5023L11.3548 18.4009H11.659L11.8618 18.553V18.9585L11.2535 19.9217L11.1521 20.1751L11.6083 20.3272L12.2166 19.3641L12.318 19.1106H12.4194L12.977 18.1982L13.2304 17.7926L13.4332 17.4378L13.788 16.8802L14.3456 16.0184L15.0553 14.9032L15.3088 14.5484L15.5115 14.1429L16.3226 12.8756V12.7742H16.424L17.0829 11.7097L17.4885 11.0507L18.0968 10.0876L18.4516 9.52995L18.2488 9.32719L18.0461 9.22581L17.5392 9.98618L17.235 10.4424L16.9309 11L16.1198 12.2673L15.6129 13.0277L15.106 13.8387L15.0046 14.1429H14.9032L14.7005 14.5484L14.3456 15.0553L13.6359 16.1705L13.2811 16.7281L12.977 17.1843L12.7742 17.5392L12.6728 17.6406H12.2166L12.0645 17.4378V17.1336L12.8249 15.9677L13.2811 15.2074L14.0415 13.9908L14.7512 12.8756V12.7742H14.8525L15.3088 12.0645L15.5622 11.5576L15.9677 10.9493V4.25806H2.3318ZM19.9217 6.53917L19.6682 6.69124L19.3134 7.14747L19.3641 7.40092L20.3779 8.05991L20.682 8.26267L20.8848 8.21198L21.1889 7.70507V7.29954L20.9355 6.99539L20.1751 6.53917H19.9217ZM18.8065 8.05991L18.5023 8.51613L18.9585 8.82028L19.3134 9.02304L19.9217 9.42857L20.1244 9.37788L20.3272 8.97235L19.6175 8.51613L19.3134 8.31336L18.9078 8.1106L18.8065 8.05991ZM19.1613 9.93548L18.8571 10.4424L18.2995 11.3041L17.6912 12.2673L17.235 12.9263L16.9816 13.4332L16.424 14.2949L15.8157 15.2074L15.2074 16.1705L14.3963 17.4885L13.5853 18.7558L13.2304 19.2627L12.977 19.6682L12.7742 20.0737L12.3687 20.682L12.4194 20.8848L12.6728 21.1382L13.0276 20.6313L13.2811 20.1751L13.8387 19.2627L14.2949 18.6037L14.9032 17.6406L15.3088 16.9816L16.0691 15.765L16.6267 14.9032L17.1336 14.1429L17.4378 13.6359L17.5392 13.3318H17.6406L17.8433 12.9263L18.2995 12.2673L18.9078 11.3041L19.2627 10.7465V10.6452H19.3641L19.5668 10.2903L19.5161 10.1382L19.1613 9.93548ZM15.9171 17.5392L15.3088 18.5023L14.5991 19.6682L13.788 20.9355L13.3825 21.4931L13.0276 21.8986L12.8249 22.1521L12.1152 22.7097L11.659 23.0645V23.1152H15.9677V17.5392H15.9171ZM10.8986 20.9862L10.4424 22.8618L10.4931 22.9631L11.1521 22.4055L11.8111 21.8479L11.9631 21.7465L11.8618 21.4931L11.3041 21.0876L11.0507 20.9862H10.8986Z" fill="black"/>
<path d="M4.10607 11.2534H7.45169L7.85722 11.4562L8.11068 11.7603L8.21206 12.1152V15.258L8.0093 15.7649L7.60377 16.0691L7.401 16.1198H4.10607L3.70054 15.917L3.39639 15.5622L3.3457 15.4101V11.9631L3.49778 11.6589L3.75123 11.4055L4.10607 11.2534ZM4.25815 12.1152L4.20745 12.1659V15.1566L4.30884 15.258H7.24893L7.35031 15.106V12.2672L7.24893 12.1152H4.25815Z" fill="black"/>
<path d="M4.20745 17.1843H7.29962L7.75584 17.3364L8.11068 17.7419L8.21206 18.0461V21.1889L8.05999 21.6452L7.65446 22L7.50239 22.0507H4.00469L3.59916 21.7972L3.3457 21.3917V17.894L3.59916 17.4885L3.85262 17.2857L4.20745 17.1843ZM4.30884 18.0461L4.20745 18.1475V21.1889L4.25815 21.2396H7.24893L7.35031 21.1382V18.1982L7.19824 18.0461H4.30884Z" fill="black"/>
<path d="M4.00469 5.32263H7.50239L7.80653 5.47471L8.11068 5.82954L8.21206 6.18438V9.32724L8.05999 9.73277L7.65446 10.0876L7.50239 10.1383H4.00469L3.64985 9.93553L3.44709 9.68208L3.3457 9.47931V5.98162L3.59916 5.57609L4.00469 5.32263ZM4.25815 6.18438L4.20745 6.23507V9.22586L4.35953 9.32724H7.19824L7.35031 9.17517V6.23507L7.29962 6.18438H4.25815Z" fill="black"/>
<path d="M9.52989 6.48853H14.2949L14.5483 6.6406L14.6497 6.79267L14.599 7.1982L14.3962 7.35028H9.37781L9.17505 7.09682L9.22574 6.74198L9.37781 6.53922L9.52989 6.48853Z" fill="black"/>
<path d="M9.42851 12.5208H12.9262L13.0783 12.7235V13.0784L12.9769 13.2811L12.8248 13.3318H9.4792L9.22574 13.1797L9.17505 13.0784V12.7742L9.42851 12.5208Z" fill="black"/>
<path d="M6.33645 18.6036H6.74198L6.94474 18.8064V19.1612L6.69129 19.5161L6.48852 19.8709L6.0323 20.4792L5.72815 20.7327H5.32262L5.01848 20.5299L4.76502 20.1751L4.56226 19.7695L4.61295 19.364L4.81571 19.2119H5.11986L5.37332 19.4147L5.57608 19.6175L5.67746 19.4147L5.88023 19.1106H5.98161L6.08299 18.9078L6.33645 18.6036Z" fill="black"/>
<path d="M6.38714 6.6405H6.69129L6.94474 6.84327V7.2488L6.69129 7.60364L6.53921 7.85709L6.23507 8.31331H6.13368L6.0323 8.51608L5.82954 8.71884L5.72815 8.76954H5.27193L4.96779 8.51608L4.61295 8.00917L4.56226 7.60364L4.71433 7.35018L4.76502 7.29949H5.11986L5.37332 7.50225L5.4747 7.65433H5.57608L6.08299 6.94465L6.28576 6.69119L6.38714 6.6405Z" fill="black"/>
<path d="M6.28576 12.7742H6.79267L6.94474 12.9769V13.3318L6.69129 13.6866L6.48852 14.0415L6.0323 14.6497L5.72815 14.8525H5.27193L4.96779 14.5991L4.76502 14.3456L4.56226 13.9401L4.61295 13.5852L4.81571 13.3825H5.11986L5.37332 13.5852L5.4747 13.7373H5.57608L6.23507 12.8249L6.28576 12.7742Z" fill="black"/>
<path d="M9.4792 14.0415H12.0644L12.3179 14.2443V14.6498L12.1151 14.8526H9.42851L9.17505 14.5991V14.295L9.32712 14.0922L9.4792 14.0415Z" fill="black"/>
<path d="M9.37781 8.1106H12.1151L12.3179 8.31336V8.71889L12.1658 8.87096L12.0138 8.92166H9.4792L9.27643 8.82027L9.17505 8.61751L9.22574 8.26267L9.37781 8.1106Z" fill="black"/>
</svg>
