<svg width="19" height="19" viewBox="0 0 19 19" fill="none" xmlns="http://www.w3.org/2000/svg">
<path fill-rule="evenodd" clip-rule="evenodd" d="M5.03468 0.105627C4.76225 0.244552 4.54335 0.560079 4.49896 0.877799C4.4608 1.15067 4.42649 1.1857 4.19531 1.18762C3.94707 1.18972 3.47069 1.30832 2.99487 1.48657C1.81619 1.928 0.729842 3.00346 0.303572 4.15076C-0.0148885 5.00788 0.000111173 4.71117 0.000111173 10.1616C0.000111173 14.7675 0.00578286 15.1196 0.0857963 15.4821C0.260448 16.273 0.640782 16.9761 1.21592 17.571C1.97884 18.3601 2.90235 18.8195 3.98438 18.9482C4.55043 19.0155 14.4177 19.018 14.9775 18.951C16.0126 18.8271 16.8634 18.4359 17.5946 17.7477C18.3853 17.0035 18.8343 16.1116 18.9611 15.0331C18.9971 14.7273 19.0075 13.1388 18.9948 9.86478C18.9746 4.67034 18.9923 4.99043 18.68 4.14967C18.2684 3.04114 17.2354 1.99363 16.0894 1.52255C15.6663 1.34865 15.0466 1.1889 14.7888 1.1873C14.5577 1.18584 14.5233 1.15076 14.4851 0.877799C14.4635 0.723118 14.3984 0.560079 14.3037 0.423712C13.7526 -0.369971 12.4939 0.02598 12.4922 0.99357L12.492 1.14199H9.49204H6.49212L6.49184 0.99357C6.49119 0.612827 6.25016 0.237428 5.90953 0.0867198C5.64113 -0.0320654 5.28977 -0.0244388 5.03468 0.105627ZM6.42406 3.18568C6.33763 3.53163 5.88886 3.8825 5.53374 3.88186C5.1364 3.88118 4.76525 3.64804 4.60714 3.29986C4.50065 3.06525 4.44632 3.05886 3.92452 3.21943C3.20285 3.44157 2.58993 3.96585 2.26894 4.63568C2.03288 5.12826 1.99225 5.39118 1.99225 6.42517V7.30732H9.49204H16.9918V6.42517C16.9918 5.39054 16.9513 5.1284 16.7144 4.63394C16.3942 3.96562 15.812 3.46883 15.0613 3.22332C14.5507 3.05626 14.4841 3.0637 14.3769 3.29986C14.2188 3.64804 13.8477 3.88118 13.4503 3.88186C13.0952 3.8825 12.6465 3.53163 12.56 3.18568L12.5287 3.06009H9.49204H6.45542L6.42406 3.18568ZM5.04284 9.84866C4.41454 10.1537 4.30509 10.9594 4.83073 11.4102C5.3418 11.8485 6.07171 11.7192 6.36917 11.1376C6.57565 10.7339 6.50909 10.3363 6.1814 10.0166C5.86247 9.70544 5.46011 9.64607 5.04284 9.84866ZM9.09319 9.81295C8.3509 10.1415 8.31097 11.1668 9.02537 11.5533C9.46045 11.7888 10.0119 11.6563 10.3081 11.2453C10.4962 10.9842 10.5334 10.563 10.3919 10.2949C10.1339 9.80591 9.57642 9.59908 9.09319 9.81295ZM13.1487 9.78788C13.0587 9.81578 12.8968 9.92461 12.7889 10.0297C12.4697 10.3408 12.408 10.7331 12.6149 11.1376C12.9235 11.741 13.6868 11.8562 14.1817 11.3741C14.9349 10.6402 14.1729 9.47007 13.1487 9.78788ZM5.20582 13.6649C4.92884 13.7388 4.59843 14.0814 4.52788 14.3678C4.41735 14.8168 4.62313 15.2488 5.04509 15.4536C5.45664 15.6534 5.86777 15.5897 6.19021 15.276C6.90977 14.576 6.19232 13.4019 5.20582 13.6649ZM9.28111 13.6504C8.79002 13.7737 8.5077 14.1257 8.5077 14.6147C8.5077 15.2806 9.23161 15.757 9.85682 15.5025C10.6355 15.1856 10.6943 14.1136 9.95338 13.7434C9.74694 13.6402 9.47259 13.6023 9.28111 13.6504ZM13.253 13.6544C12.9846 13.7164 12.7464 13.9065 12.6149 14.1636C12.4081 14.5679 12.4697 14.9606 12.7884 15.2707C13.1166 15.5899 13.5246 15.6548 13.939 15.4536C14.5359 15.1638 14.6686 14.4526 14.2188 13.9547C14.0804 13.8015 13.9706 13.7304 13.7927 13.679C13.532 13.6036 13.4825 13.6013 13.253 13.6544Z" fill="#F4F8FF"/>
</svg>
