<svg width="512" height="512" viewBox="0 0 512 512" fill="none" xmlns="http://www.w3.org/2000/svg">
<path d="M215.04 0H488.448L497.664 3.072L507.904 12.288L509.952 15.36L512 23.552V232.448L508.928 241.664L504.832 246.784L499.712 251.904L496.64 253.952L488.448 256H459.776V291.84L456.704 296.96L452.608 299.008H444.416L434.176 293.888L400.384 271.36L386.048 261.12L379.904 257.024L320.512 256V445.44L316.416 455.68L309.248 463.872L304.128 466.944L292.864 470.016L131.072 471.04L125.952 473.088V475.136L80.896 504.832L77.824 505.856V507.904L68.608 512H58.368L53.248 506.88L52.224 504.832V470.016H26.624L13.312 465.92V463.872L8.192 461.824L2.048 453.632L0 445.44V236.544L3.072 227.328L11.264 218.112L16.384 215.04L24.576 212.992H191.488V23.552L195.584 14.336L200.704 7.168L207.872 2.048L215.04 0ZM221.184 22.528L216.064 25.6L214.016 29.696V226.304L217.088 231.424L221.184 233.472L387.072 234.496L399.36 241.664L423.936 258.048L435.2 265.216H436.224L437.248 241.664L440.32 236.544L444.416 234.496L482.304 233.472L487.424 230.4L489.472 226.304V29.696L486.4 24.576L482.304 22.528H221.184ZM30.72 235.52L25.6 238.592L22.528 242.688V440.32L26.624 445.44L32.768 447.488L69.632 448.512L73.728 452.608L74.752 454.656L75.776 478.208L80.896 476.16L114.688 453.632L122.88 448.512L287.744 447.488L294.912 444.416L297.984 440.32V256L216.064 254.976L206.848 251.904L198.656 244.736L194.56 238.592L193.536 235.52H30.72Z" fill="white"/>
<path d="M155.648 276.48H164.864L169.984 281.6L171.008 283.648V297.984H205.824L210.944 301.056L212.992 304.128V314.368L209.92 319.488L202.752 320.512L201.728 329.728L196.608 343.04L188.416 358.4L179.2 369.664V372.736L201.728 387.072L203.776 391.168V399.36L198.656 405.504L195.584 406.528H188.416L177.152 400.384L160.768 388.096L151.552 394.24L137.216 403.456L131.072 406.528L122.88 405.504L117.76 400.384L116.736 391.168L119.808 386.048L130.048 379.904L140.288 372.736L139.264 368.64L132.096 359.424L130.048 352.256L133.12 345.088L137.216 342.016H147.456L152.576 345.088L159.744 353.28L164.864 349.184L172.032 338.944L178.176 320.512H112.64L106.496 315.392L105.472 306.176L107.52 301.056L113.664 297.984H148.48V283.648L153.6 277.504L155.648 276.48Z" fill="white"/>
<path d="M346.112 63.488H357.376L362.496 68.608L372.736 93.184L377.856 104.448L381.952 114.688L385.024 124.928L394.24 146.432L406.528 176.128V185.344L403.456 190.464L399.36 192.512H390.144L385.024 187.392L374.784 162.816V160.768H330.752L327.68 169.984L319.488 188.416L314.368 192.512H304.128L299.008 187.392L297.984 178.176L303.104 162.816L317.44 128L332.8 90.112L343.04 65.536L346.112 63.488ZM351.232 106.496L344.064 124.928L338.944 137.216H364.544L352.256 106.496H351.232Z" fill="white"/>
</svg>
