<svg width="494" height="494" viewBox="0 0 494 494" fill="none" xmlns="http://www.w3.org/2000/svg">
<path d="M210.944 0H475.136L484.352 4.096L491.52 12.288L493.568 18.432V219.136L490.496 227.328L483.328 234.496L475.136 237.568H439.296V279.552L435.2 278.528L419.84 268.288L408.576 260.096L385.024 244.736L375.808 238.592L210.944 237.568L202.752 234.496L197.632 229.376L193.536 223.232L192.512 219.136V18.432L195.584 10.24L202.752 3.072L210.944 0ZM338.944 56.32L333.824 60.416L329.728 69.632L323.584 86.016L311.296 116.736L299.008 146.432L293.888 159.744L289.792 168.96V175.104L294.912 181.248L301.056 182.272L307.2 178.176L312.32 167.936L319.488 151.552L363.52 150.528L366.592 149.504L369.664 158.72L375.808 175.104L379.904 179.2L385.024 180.224L391.168 177.152L394.24 172.032L393.216 165.888L378.88 131.072L374.784 118.784L361.472 86.016L351.232 61.44L345.088 56.32H338.944Z" fill="white"/>
<path d="M15.36 214.016H173.056L175.104 226.304L181.248 238.592L188.416 246.784L202.752 253.952L207.872 254.976L301.056 256V432.128L296.96 442.368L289.792 448.512L283.648 450.56L118.784 451.584L110.592 457.728L102.4 461.824L73.728 481.28L62.464 489.472L56.32 493.568H54.272V450.56H17.408L8.192 446.464L2.048 438.272L0 432.128V232.448L3.072 224.256L9.216 217.088L15.36 214.016ZM148.48 269.312L143.36 272.384L141.312 276.48V289.792H106.496L100.352 293.888L98.304 297.984L99.328 304.128L104.448 309.248L108.544 310.272H172.032L165.888 326.656L159.744 336.896L155.648 344.064L152.576 347.136H149.504L140.288 335.872L135.168 332.8L129.024 333.824L123.904 339.968V346.112L132.096 357.376L135.168 360.448L134.144 364.544L122.88 371.712L116.736 374.784L111.616 378.88L110.592 380.928V389.12L116.736 394.24H122.88L138.24 385.024L147.456 377.856H153.6L167.936 388.096L178.176 394.24L185.344 395.264L191.488 391.168L192.512 389.12V381.952L188.416 376.832L175.104 369.664L165.888 363.52L167.936 359.424L178.176 346.112L186.368 331.776L190.464 318.464L191.488 310.272L199.68 308.224L203.776 302.08L202.752 295.936L197.632 290.816L195.584 289.792H160.768V276.48L157.696 271.36L153.6 269.312H148.48Z" fill="white"/>
</svg>
