<svg width="163" height="45" viewBox="0 0 163 45" fill="none" xmlns="http://www.w3.org/2000/svg">
<path fill-rule="evenodd" clip-rule="evenodd" d="M78.9921 10.0796C80.667 10.0796 82.1768 10.4936 83.5214 11.3216C84.8897 12.1497 85.963 13.5456 86.7415 15.0834C87.5436 16.5976 87.9446 18.3602 87.9446 20.3712C87.9446 22.3822 87.5436 24.1684 86.7415 25.7298C85.963 27.2677 84.8897 28.4625 83.5214 29.3142C82.1768 30.1659 80.667 30.5917 78.9921 30.5917C77.5532 30.5917 76.2793 30.296 75.1705 29.7045C74.0854 29.113 73.2008 28.3678 72.5167 27.4688C72.5167 27.4688 72.5167 38.0797 72.5167 39.6411C72.5167 40.5195 67.5627 40.5639 67.5628 39.6411C67.563 37.3699 67.563 15.1189 67.5628 10.399C67.5627 9.60937 72.5167 9.69809 72.5167 10.399C72.5167 11.8717 72.5167 13.2381 72.5167 13.2381C73.1536 12.339 74.0265 11.5938 75.1352 11.0023C76.2675 10.3872 77.5532 10.0796 78.9921 10.0796ZM77.6829 14.6576C76.7865 14.6576 75.9373 14.8942 75.1352 15.3673C74.3567 15.8169 73.7198 16.4793 73.2244 17.3547C72.7526 18.2301 72.5167 19.2592 72.5167 20.4422C72.5167 21.6251 72.7526 22.6542 73.2244 23.5296C73.7198 24.405 74.3567 25.0792 75.1352 25.5524C75.9373 26.0019 76.7865 26.2267 77.6829 26.2267C78.6029 26.2267 79.4522 25.9901 80.2306 25.517C81.0327 25.0438 81.6697 24.3694 82.1415 23.4941C82.6368 22.6187 82.8845 21.5778 82.8845 20.3712C82.8845 19.1883 82.6368 18.1709 82.1415 17.3192C81.6697 16.4438 81.0327 15.7813 80.2306 15.3318C79.4522 14.8823 78.6029 14.6576 77.6829 14.6576Z" fill="white"/>
<path d="M131.935 10.2925C134.27 10.2925 136.134 10.884 137.526 12.0669C138.917 13.2262 139.516 15.2343 139.209 16.4763C138.901 17.7184 136.787 17.6385 136.024 16.7869C135.261 15.9352 134.683 15.391 134.093 14.9415C133.527 14.4683 132.76 14.2317 131.793 14.2317C130.897 14.2317 130.201 14.3973 129.706 14.7285C129.234 15.0598 128.998 15.5212 128.998 16.1126C128.998 16.7751 129.328 17.2837 129.989 17.6385C130.649 17.9698 131.675 18.3129 133.067 18.6678C134.483 19.0226 135.65 19.3893 136.57 19.7678C137.49 20.1464 138.28 20.7379 138.941 21.5422C139.625 22.323 139.979 23.364 140.003 24.6652C140.003 25.8008 139.684 26.8182 139.047 27.7172C138.434 28.6162 137.537 29.326 136.358 29.8465C135.202 30.3433 133.846 30.5917 132.289 30.5917C130.685 30.5917 129.245 30.3078 127.972 29.74C126.698 29.1486 125.683 28.356 124.929 27.3623C124.197 26.3687 123.685 25.3484 124.126 24.0619C124.567 22.7755 127.145 22.6424 128.151 24.0619C129.157 25.4814 129.175 25.446 129.812 25.9428C130.472 26.4396 131.286 26.688 132.253 26.688C133.197 26.688 133.928 26.4988 134.447 26.1203C134.99 25.7417 135.261 25.2567 135.261 24.6652C135.261 24.0264 134.931 23.5532 134.27 23.2457C133.633 22.9145 132.607 22.5596 131.192 22.181C129.729 21.8262 128.526 21.4595 127.582 21.081C126.662 20.7024 125.86 20.1227 125.176 19.342C124.516 18.5613 124.185 17.5085 124.185 16.1836C124.185 15.0953 124.492 14.1016 125.105 13.2025C125.742 12.3035 126.639 11.5937 127.795 11.0733C128.974 10.5528 130.354 10.2925 131.935 10.2925Z" fill="white"/>
<path fill-rule="evenodd" clip-rule="evenodd" d="M152.915 10.2925C154.802 10.2925 156.513 10.7184 158.046 11.5701C159.579 12.3982 160.783 13.5811 161.655 15.1189C162.552 16.6568 163 18.4312 163 20.4422C163 22.4531 162.54 24.2276 161.62 25.7654C160.724 27.3032 159.497 28.4979 157.94 29.3496C156.407 30.1777 154.685 30.5917 152.774 30.5917C150.887 30.5917 149.188 30.1777 147.678 29.3496C146.169 28.4979 144.977 27.3032 144.104 25.7654C143.255 24.2276 142.831 22.4531 142.831 20.4422C142.831 18.4312 143.267 16.6568 144.14 15.1189C145.036 13.5811 146.251 12.3982 147.784 11.5701C149.318 10.7184 151.028 10.2925 152.915 10.2925ZM152.845 14.6221C151.429 14.6221 150.238 15.1308 149.271 16.1481C148.327 17.1417 147.855 18.5731 147.855 20.4422C147.855 22.3112 148.315 23.7544 149.235 24.7717C150.179 25.7653 151.358 26.2622 152.774 26.2622C153.67 26.2622 154.508 26.0492 155.286 25.6234C156.088 25.1739 156.725 24.5114 157.197 23.6361C157.669 22.7607 157.905 21.6961 157.905 20.4422C157.905 18.5731 157.409 17.1417 156.418 16.1481C155.451 15.1307 154.26 14.6221 152.845 14.6221Z" fill="white"/>
<path d="M96.3214 21.4003C96.3214 22.9618 96.7106 24.1684 97.4891 25.0201C98.2676 25.8481 99.4181 26.4839 100.763 26.484C102.131 26.484 103.115 25.8481 103.894 25.0201C104.672 24.1684 105.062 22.9618 105.062 21.4003C105.062 21.4003 105.062 13.7792 105.062 10.5765C105.062 9.56501 110.051 9.65373 110.051 10.5765C110.051 14.4003 110.06 28.4624 110.06 30.015C110.06 30.9022 105.062 30.8578 105.062 30.015C105.062 28.3293 105.062 27.7526 105.062 27.7526C104.425 28.6044 103.676 29.5004 102.638 29.9972C101.624 30.4704 100.515 30.707 99.312 30.707C97.7787 30.707 96.4222 30.3876 95.2427 29.7488C94.0632 29.0864 93.1314 28.1282 92.4473 26.8743C91.7868 25.5967 91.3675 23.8608 91.3675 22.1101C91.3675 22.1101 91.3675 14.489 91.3675 10.5765C91.3675 9.60937 96.3214 9.65373 96.3214 10.5765C96.3214 14.8034 96.3214 21.4003 96.3214 21.4003Z" fill="white"/>
<path d="M119.968 29.74C119.968 31.0264 114.926 31.0264 114.926 29.74C114.926 24.5233 114.939 9.37862 114.939 4.01117C114.939 2.07091 119.855 2.07129 119.893 4.01117C120.012 10.1327 119.968 23.5296 119.968 29.74Z" fill="white"/>
<path fill-rule="evenodd" clip-rule="evenodd" d="M16.6267 3.15665C15.3635 3.3835 13.5781 4.0079 12.382 4.64121C9.65062 6.0873 7.38109 8.46525 6.07809 11.2461C4.5538 14.4991 4.31098 18.5845 5.44496 21.8943C5.59948 22.345 5.72582 22.7267 5.72582 22.7426C5.72582 22.7586 3.28384 22.7115 2.90242 22.7569C2.0376 22.8597 1.68561 23.0758 1.40053 23.679C1.12193 24.2684 1.22912 24.7432 1.76125 25.2775C2.15901 25.6769 2.19267 25.6837 3.76118 25.6847L7.48645 25.7828L7.79886 26.2415C7.97069 26.4938 12.1223 30.7181 17.0246 35.6288C25.4235 44.0422 25.9812 44.5715 26.6891 44.8015C27.6788 45.123 29.092 45.0467 29.9539 44.6256C30.4179 44.3988 33.076 41.814 39.7926 35.0582L48.9955 25.8012L51.036 25.7557C53.0735 25.7101 55.0469 25.7096 55.3859 25.3133C55.8901 24.7241 55.8587 23.8406 55.3149 23.3175C54.9487 22.965 52.8045 22.9144 51.7254 22.8468C51.0603 22.8051 50.5163 22.7581 50.5163 22.7424C50.5163 22.7266 50.6426 22.345 50.7971 21.8943C51.3361 20.3209 51.5395 18.7744 51.4668 16.8002C51.3832 14.5233 51.0322 13.0714 50.0995 11.1432C48.2409 7.30102 44.9055 4.5473 40.7271 3.40556C39.2623 3.00533 36.2881 2.91114 34.6886 3.21421C32.5327 3.6228 30.3275 4.57092 28.7866 5.75198L28.1713 6.22363L26.9787 5.4209C25.6542 4.52934 24.144 3.84964 22.5117 3.41037C21.286 3.08056 17.8705 2.93334 16.6267 3.15665ZM17.4384 5.98307C16.2411 6.1508 14.9077 6.60181 13.543 7.30046C12.6558 7.75472 12.1148 8.17943 10.9986 9.29811C9.73105 10.5684 9.50455 10.8762 8.8596 12.2039C7.94013 14.0966 7.63054 15.4561 7.65209 17.5074C7.66984 19.193 7.9545 20.554 8.59114 21.9977L8.94989 22.8109L16.7826 22.8051L18.0502 20.3684C19.1707 18.2147 19.3777 17.9022 19.8338 17.6784C20.4424 17.3797 20.927 17.4606 21.3902 17.9384C21.5674 18.1212 22.6897 20.3761 23.8843 22.9493C25.0788 25.5226 26.1049 27.5782 26.1646 27.5176C26.2242 27.4569 27.3549 24.2252 28.6774 20.3359C30.7537 14.2295 31.1395 13.2115 31.5051 12.8756C32.041 12.3832 32.7432 12.3549 33.259 12.8049C33.6467 13.1432 33.8536 13.6314 36.015 19.3083L37.3467 22.8062L47.2922 22.8109L47.6509 21.9977C48.3214 20.4775 48.5781 19.2038 48.5845 17.366C48.5918 15.2687 48.3455 14.199 47.4125 12.2746C46.2786 9.93637 44.5963 8.24632 42.2765 7.11561C40.3574 6.18022 39.2926 5.93343 37.2059 5.94078C34.5051 5.95026 32.0826 6.77973 30.1874 8.34405C28.0803 10.0835 28.1617 10.0835 26.0546 8.34405C23.862 6.53407 20.3583 5.57406 17.4384 5.98307ZM30.1062 25.1187C28.8353 28.8665 27.7092 32.1069 27.6038 32.3194C27.1885 33.1565 25.9549 33.3499 25.3467 32.6733C25.1905 32.4995 24.1879 30.4798 23.1189 28.1851C22.0497 25.8905 20.9856 23.6081 20.754 23.1133L20.3328 22.2135L19.5845 23.679C18.4438 25.9125 18.75 25.7809 14.6973 25.7809H11.2897L19.4206 33.945C27.4852 42.0427 27.5562 42.1093 28.1208 42.1093C28.6853 42.1093 28.7565 42.0423 36.7868 33.9804L44.8836 25.8516L40.309 25.7809C35.9412 25.7134 35.7213 25.6971 35.4471 25.4215C35.289 25.2628 34.5855 23.6399 33.8836 21.8151C33.1816 19.9904 32.5646 18.4539 32.5122 18.4009C32.4598 18.3479 31.3771 21.3709 30.1062 25.1187Z" fill="#60FFCF"/>
<path fill-rule="evenodd" clip-rule="evenodd" d="M9.042 0.0154656C8.67107 0.070682 7.4124 0.813791 6.43891 1.55232C4.70288 2.86926 3.2122 4.49431 2.08745 6.29588C0.958927 8.10361 -0.101944 10.7587 0.00783916 11.5004C0.178251 12.6515 1.6093 13.1261 2.42769 12.3029C2.63262 12.0969 2.7058 11.9434 2.98714 11.1291C3.75658 8.9017 4.68197 7.31491 6.15856 5.69069C7.14242 4.60852 8.04699 3.87365 9.67473 2.83417C10.1821 2.51015 10.3623 2.35426 10.4886 2.13028C11.0585 1.11904 10.187 -0.155047 9.042 0.0154656Z" fill="#60FFCF"/>
<path fill-rule="evenodd" clip-rule="evenodd" d="M47.0069 0.0154656C47.3779 0.070682 48.6365 0.813791 49.61 1.55232C51.346 2.86926 52.8367 4.49431 53.9615 6.29588C55.09 8.10361 56.1509 10.7587 56.0411 11.5004C55.8707 12.6515 54.4396 13.1261 53.6212 12.3029C53.4163 12.0969 53.3431 11.9434 53.0618 11.1291C52.2923 8.9017 51.3669 7.31491 49.8904 5.69069C48.9065 4.60852 48.0019 3.87365 46.3742 2.83417C45.8668 2.51015 45.6866 2.35426 45.5604 2.13028C44.9904 1.11904 45.862 -0.155047 47.0069 0.0154656Z" fill="#60FFCF"/>
</svg>
