<svg width="414" height="512" viewBox="0 0 414 512" fill="none" xmlns="http://www.w3.org/2000/svg">
<path d="M97.0622 246.784H114.89L122.813 250.88L131.727 257.024L141.632 262.144L155.498 271.36L174.316 279.552L190.163 283.648L198.086 284.672H214.923L231.761 281.6L248.598 275.456L264.445 267.264L278.311 258.048L289.206 251.904L293.167 248.832L299.11 246.784H315.947L331.794 249.856L347.641 256L357.545 261.12L366.459 268.288L378.345 281.6L388.249 296.96L397.163 314.368L405.086 338.944L410.038 361.472L412.019 381.952L413.01 391.168L414 414.72V428.032L411.029 454.656L405.086 468.992L396.172 482.304L390.23 489.472L380.325 497.664L368.44 504.832L355.565 509.952L340.708 512H72.3014L57.445 509.952L41.5981 502.784L31.6938 496.64L21.7895 487.424L12.8756 477.184L3.96172 459.776L0 439.296V394.24L2.97129 362.496L8.91388 335.872L14.8565 317.44L22.7799 301.056L30.7034 287.744L38.6268 277.504L45.5598 269.312L52.4928 263.168L60.4163 258.048L70.3206 253.952L85.177 248.832L97.0622 246.784ZM100.033 278.528L84.1866 282.624L76.2632 286.72L67.3493 293.888L59.4258 301.056L50.512 315.392L42.5885 332.8L39.6172 340.992L35.6555 361.472L31.6938 385.024L30.7034 395.264V436.224L34.6651 450.56L40.6077 461.824L48.5311 470.016L63.3876 477.184L75.2727 480.256L87.1579 481.28H325.852L343.679 479.232L356.555 474.112L365.469 468.992L373.392 460.8L380.325 445.44L383.297 429.056L382.306 394.24L379.335 370.688L373.392 339.968L365.469 320.512L356.555 305.152L349.622 296.96H347.641V294.912L343.679 290.816L332.785 284.672L323.871 280.576L313.967 278.528H306.043L287.225 290.816L280.292 295.936L258.502 306.176L236.713 313.344L217.895 316.416H195.115L176.297 313.344L152.526 305.152L135.689 296.96L117.861 285.696L106.967 278.528H100.033Z" fill="white"/>
<path d="M188.182 0H218.885L234.732 2.048L251.569 8.192L268.407 17.408L281.282 27.648L287.225 32.768L295.148 43.008L304.062 53.248L313.967 71.68L319.909 89.088L322.88 102.4L323.871 109.568V136.192L320.9 154.624L315.947 169.984L308.024 186.368L299.11 199.68L290.196 209.92L287.225 210.944L285.244 215.04L276.33 223.232L262.464 232.448L248.598 239.616L233.742 244.736L215.914 247.808H190.163L173.325 244.736L153.517 237.568L137.67 228.352L126.775 220.16L122.813 215.04L116.871 210.944L109.938 202.752L100.033 188.416L91.1196 171.008L86.1675 155.648L84.1866 139.264V107.52L86.1675 92.16L92.11 73.728L99.0431 59.392L108.947 45.056L124.794 28.672H126.775L128.756 24.576L138.66 17.408L157.478 7.168L168.373 3.072L188.182 0ZM191.153 31.744L177.287 34.816L161.44 40.96L148.565 50.176L136.679 61.44L126.775 74.752L121.823 82.944L115.88 104.448L114.89 110.592V136.192L118.852 153.6L123.804 166.912L127.766 173.056L135.689 183.296L140.641 189.44L151.536 198.656L165.402 207.872L178.278 212.992L193.134 216.064H212.943L228.789 212.992L243.646 206.848L252.56 200.704L262.464 192.512L273.359 181.248L283.263 166.912L288.215 155.648L291.187 145.408L292.177 135.168V112.64L290.196 97.28L285.244 83.968L276.33 69.632L265.435 56.32L254.541 47.104L245.627 40.96L229.78 34.816L215.914 31.744H191.153Z" fill="white"/>
</svg>
