<svg width="386" height="472" viewBox="0 0 386 472" fill="none" xmlns="http://www.w3.org/2000/svg">
<path d="M128 277.504H257.024L281.6 280.576L303.104 287.744L318.464 295.936L332.8 306.176L343.04 315.392L354.304 326.656V328.704L357.376 329.728L363.52 339.968L371.712 354.304L378.88 370.688L384 391.168L385.024 398.336V425.984L380.928 439.296L374.784 448.512L365.568 458.752L355.328 465.92L344.064 470.016L337.92 471.04H47.104L34.816 467.968L24.576 462.848L12.288 451.584L5.12 441.344L1.024 430.08L0 425.984V398.336L4.096 377.856L8.192 365.568L17.408 346.112L23.552 336.896L24.576 333.824H26.624L28.672 329.728L33.792 322.56L41.984 315.392L53.248 305.152L71.68 292.864L87.04 285.696L103.424 280.576L128 277.504Z" fill="white"/>
<path d="M179.2 0H205.824L224.256 3.072L244.736 10.24L262.144 19.456L274.432 28.672L284.672 37.888L294.912 49.152L305.152 64.512L313.344 80.896L318.464 96.256L320.512 112.64V145.408L317.44 164.864L310.272 184.32L303.104 196.608L292.864 210.944L280.576 224.256L271.36 231.424L270.336 233.472L259.072 239.616L243.712 247.808L226.304 253.952L210.944 257.024L201.728 258.048H183.296L162.816 254.976L146.432 249.856L126.976 240.64L114.688 232.448L100.352 220.16L91.1357 209.92L80.8957 194.56L76.7997 187.392L71.6797 177.152L66.5597 160.768L64.5117 145.408V111.616L66.5597 96.256L73.7277 75.776L79.8717 64.512L88.0637 52.224L97.2797 40.96L107.52 30.72L112.64 26.624H114.688V24.576L123.904 19.456L138.24 11.264L153.6 5.12L171.008 1.024L179.2 0Z" fill="white"/>
</svg>
