<svg width="416" height="464" viewBox="0 0 416 464" fill="none" xmlns="http://www.w3.org/2000/svg">
<path d="M116.864 254.528H126.08L130.176 265.792L137.344 276.032L168.064 306.752L180.352 318.016L185.472 321.088L201.856 334.4L206.976 338.496L210.048 339.52L211.072 336.448L225.408 325.184L232.576 319.04L237.696 315.968L248.96 305.728L275.584 279.104L281.728 271.936L287.872 261.696L289.92 254.528H299.136L320.64 259.648L333.952 264.768L351.36 273.984L361.6 280.128L375.936 292.416L385.152 303.68L395.392 318.016L401.536 328.256L408.704 344.64L413.824 363.072L415.872 375.36V405.056L412.8 420.416L404.608 436.8L399.488 442.944L385.152 452.16L372.864 457.28L352.384 461.376L326.784 463.424H89.2159L63.6159 461.376L43.1359 457.28L28.7999 451.136L18.5599 443.968L13.4399 438.848L7.29593 429.632L3.19993 420.416L0.12793 405.056V375.36L3.19993 357.952L10.3679 336.448L19.5839 319.04L31.8719 302.656L42.1119 290.368L53.3759 281.152L58.4959 277.056L68.7359 271.936L86.1439 262.72L106.624 256.576L116.864 254.528ZM298.112 340.544L296.064 343.616V366.144H273.536L270.464 368.192V392.768L273.536 394.816H296.064V418.368L298.112 420.416H322.688L324.736 417.344V394.816H347.264L350.336 392.768V368.192L347.264 366.144H324.736V343.616L322.688 340.544H298.112Z" fill="#143886"/>
<path d="M198.784 0.576172H217.216L236.672 3.64817L248.96 7.74417L266.368 15.9362L272.512 20.0322L279.68 24.1282V26.1762L284.8 28.2242L295.04 39.4882L306.304 54.8482L314.496 70.2082L319.616 85.5682L322.688 100.928V130.624L319.616 148.032L313.472 170.56L305.28 190.016L292.992 213.568L286.848 222.784L282.752 229.952L277.632 235.072L266.368 247.36L256.128 256.576L243.84 264.768L233.6 269.888L227.456 271.936L219.264 272.96H196.736L185.472 270.912L168.064 262.72V260.672L162.944 258.624L148.608 246.336L136.32 233.024L129.152 223.808L125.056 217.664L118.912 206.4L107.648 183.872L98.4319 156.224L94.3359 137.792L93.3119 130.624V101.952L97.4079 81.4722L103.552 66.1122L111.744 51.7762L119.936 41.5362L127.104 32.3202L135.296 25.1522L140.416 21.0562L167.04 7.74417L183.424 2.62417L198.784 0.576172Z" fill="#143886"/>
</svg>
